<svg width="184" height="147" viewBox="0 0 184 147" fill="none" xmlns="http://www.w3.org/2000/svg">
<path d="M88.0142 0.0832055C85.1285 0.213064 83.3105 0.400637 80.7999 0.876783C80.1218 0.992213 79.256 1.15093 78.852 1.22307C76.7887 1.56936 74.4801 2.03108 73.5856 2.27637C73.1527 2.40622 72.4024 2.60823 71.9263 2.73808C71.4501 2.86794 70.9307 3.02666 70.772 3.11323C70.6132 3.18537 70.1227 3.34409 69.6898 3.45952C68.0161 3.87795 67.3379 4.09438 67.1071 4.31081C66.9628 4.44067 66.5299 4.64267 66.1404 4.77253C65.7508 4.90239 65.3468 5.08996 65.2458 5.1621C65.1303 5.24867 64.7408 5.3641 64.3801 5.42182C63.572 5.53725 62.2735 6.07111 61.5087 6.60497C61.2057 6.80697 60.7729 7.0234 60.5276 7.08112C60.2967 7.13883 59.8062 7.34083 59.4599 7.52841C59.1136 7.70155 58.7529 7.86027 58.6519 7.86027C58.5509 7.86027 58.2334 8.04784 57.9304 8.29313C57.6419 8.52399 57.1946 8.7837 56.9349 8.84142C56.4443 8.9857 54.886 9.92357 54.1645 10.5151C53.9048 10.7171 53.5153 10.9336 53.27 10.9769C53.0391 11.0201 52.6495 11.2366 52.4042 11.453C52.1734 11.655 51.654 12.0013 51.2788 12.2322C50.8892 12.4486 50.2832 12.8526 49.9225 13.1267C49.5618 13.4153 48.9846 13.8626 48.6239 14.1512C47.9602 14.6706 47.5851 14.9448 46.1711 15.897C45.3775 16.4453 44.8292 16.9215 43.2709 18.3932C42.8092 18.8261 41.9579 19.6052 41.3952 20.1246C40.8324 20.6441 40.1254 21.3222 39.8369 21.6252C39.5483 21.9282 38.9567 22.5631 38.5238 23.0248C38.091 23.4721 37.3118 24.3234 36.7924 24.8861C36.273 25.4488 35.6381 26.1414 35.364 26.4156C35.0898 26.7041 34.6281 27.2957 34.3107 27.743C33.3872 29.1137 33.0698 29.5466 32.5504 30.2247C32.2618 30.5854 31.8145 31.1626 31.5259 31.5233C31.2518 31.884 30.8478 32.49 30.6314 32.8796C30.4005 33.2548 30.0831 33.7453 29.9099 33.9329C29.7368 34.1349 29.5203 34.5245 29.4193 34.8131C29.3183 35.1161 29.0875 35.5345 28.8999 35.7798C28.3228 36.4868 27.4715 37.9296 27.2839 38.4924C27.1829 38.7665 26.9232 39.2427 26.6779 39.5457C26.447 39.8342 26.2595 40.1517 26.2595 40.2527C26.2595 40.3537 26.1007 40.7144 25.9276 41.0607C25.74 41.407 25.538 41.8831 25.4803 42.1284C25.4226 42.3593 25.1917 42.821 24.9753 43.1384C24.7445 43.4558 24.5136 43.8743 24.4559 44.0763C24.3982 44.2783 24.225 44.6678 24.0807 44.942C23.922 45.2161 23.8066 45.6057 23.8066 45.8077C23.8066 46.0097 23.6334 46.4859 23.4459 46.8899C23.2439 47.2794 23.0852 47.6979 23.0852 47.8133C23.0852 47.9143 22.9264 48.3039 22.7244 48.679C22.3781 49.3283 21.7866 51.1463 21.7866 51.5503C21.7866 51.6658 21.7 51.9543 21.5846 52.1996C21.4691 52.4593 21.2671 53.0509 21.1373 53.5271C21.0074 54.0032 20.8054 54.7535 20.6756 55.1864C20.4014 56.1819 20.1561 57.4228 19.4058 61.6071C18.771 65.2143 18.6267 66.4552 18.4824 69.918C18.3237 73.7849 18.4968 79.7151 18.8287 81.8073C19.0451 83.1491 19.6944 86.9295 19.9108 88.0838C20.4447 90.8252 20.6611 91.7775 21.0363 92.9174C21.1084 93.1482 21.2816 93.6677 21.4259 94.0717C21.5557 94.4612 21.7433 95.1538 21.8587 95.5867C22.2194 97.0873 22.4647 97.8231 22.7677 98.3281C22.9409 98.6023 23.0852 98.9341 23.0852 99.0496C23.0852 99.165 23.2439 99.5834 23.4459 99.9874C23.6334 100.377 23.8066 100.853 23.8066 101.026C23.8066 101.387 24.8599 103.739 25.0763 103.869C25.1629 103.912 25.3072 104.201 25.4082 104.504C25.5669 105.009 26.346 106.639 27.0242 107.938C27.1973 108.255 27.4138 108.659 27.4859 108.818C27.861 109.582 28.5392 110.679 28.8711 111.083C29.0731 111.328 29.3183 111.732 29.3905 111.978C29.4771 112.223 29.7512 112.714 30.0109 113.06C30.2562 113.406 30.6746 114.012 30.9488 114.416C31.2229 114.806 31.6702 115.484 31.9444 115.888C32.2329 116.306 32.5215 116.653 32.6081 116.653C32.6802 116.653 32.9111 116.97 33.0987 117.345C33.2862 117.735 33.5604 118.139 33.7047 118.254C33.849 118.37 34.1231 118.716 34.3251 119.033C34.7435 119.697 35.768 120.909 36.9367 122.15C37.3696 122.626 38.1487 123.448 38.6681 124.011C39.1876 124.574 39.7936 125.209 40.0244 125.425C40.2553 125.642 40.8469 126.204 41.3374 126.68C43.6172 128.859 45.4785 130.49 46.1855 130.908C46.4596 131.081 46.8203 131.355 46.9791 131.529C47.1233 131.702 47.5562 131.99 47.9458 132.178C48.3209 132.365 48.6239 132.582 48.6239 132.654C48.6239 132.726 49.0424 133.058 49.5474 133.39C50.0668 133.722 50.5574 134.082 50.6584 134.212C50.7594 134.328 51.1057 134.559 51.4231 134.717C51.755 134.876 52.2311 135.208 52.4908 135.424C52.7505 135.655 53.0824 135.843 53.2411 135.843C53.3854 135.843 53.6884 136.001 53.9193 136.189C54.5253 136.694 56.7617 138.007 57.0214 138.007C57.1513 138.007 57.4399 138.166 57.6707 138.353C58.1324 138.728 60.0803 139.666 60.7152 139.811C60.9605 139.854 61.249 140.013 61.3933 140.171C61.6963 140.518 63.9328 141.47 64.4233 141.47C64.6253 141.47 65.0293 141.585 65.3323 141.744C65.6209 141.888 66.0538 142.047 66.2846 142.105C66.5299 142.162 66.8762 142.321 67.0782 142.465C67.2802 142.61 68.0449 142.898 68.7519 143.115C69.4734 143.317 70.2525 143.562 70.4834 143.649C70.7287 143.735 71.2481 143.894 71.6665 143.995C72.0705 144.096 72.4745 144.226 72.5611 144.269C72.7776 144.413 74.6533 144.875 76.1106 145.135C76.832 145.279 77.6977 145.438 78.0585 145.524C79.2416 145.77 82.1418 146.231 83.7578 146.448C88.6491 147.083 98.071 146.938 101.866 146.159C102.385 146.058 103.265 145.899 103.814 145.813C104.376 145.726 105.156 145.582 105.545 145.51C105.949 145.423 106.945 145.236 107.782 145.077C108.618 144.918 109.758 144.659 110.307 144.5C110.869 144.327 111.648 144.11 112.038 144.009C112.442 143.894 112.918 143.75 113.12 143.663C113.322 143.576 114.072 143.36 114.779 143.187C115.501 143.014 116.367 142.711 116.727 142.538C117.088 142.35 117.478 142.191 117.593 142.191C117.708 142.191 118.141 142.018 118.531 141.831C118.935 141.629 119.353 141.47 119.483 141.47C119.829 141.47 122.124 140.388 122.34 140.128C122.441 139.998 122.715 139.854 122.946 139.811C123.581 139.666 125.731 138.656 125.947 138.397C126.048 138.267 126.452 138.065 126.842 137.935C127.231 137.805 127.578 137.632 127.635 137.56C127.679 137.488 127.982 137.286 128.314 137.127C128.645 136.954 129.136 136.636 129.381 136.405C129.641 136.189 130.088 135.944 130.377 135.857C130.665 135.771 131.069 135.569 131.257 135.381C131.445 135.208 131.877 134.89 132.238 134.688C133.133 134.169 134.604 133.13 135.239 132.567C135.528 132.308 135.831 132.091 135.917 132.091C135.99 132.091 136.379 131.803 136.783 131.442C137.187 131.081 137.562 130.793 137.634 130.793C137.981 130.793 142.8 126.377 145.008 124.011C147.763 121.082 149.048 119.61 149.048 119.408C149.048 119.351 149.293 119.004 149.596 118.658C149.899 118.312 150.317 117.72 150.534 117.345C150.75 116.97 151.01 116.609 151.111 116.552C151.226 116.494 151.573 116.032 151.904 115.542C152.236 115.051 152.583 114.604 152.655 114.56C152.741 114.503 152.958 114.171 153.145 113.796C153.333 113.421 153.621 112.988 153.795 112.843C153.968 112.685 154.17 112.31 154.242 112.007C154.328 111.704 154.588 111.242 154.805 110.982C155.035 110.737 155.353 110.246 155.526 109.914C155.685 109.582 155.887 109.279 155.959 109.236C156.031 109.178 156.204 108.832 156.334 108.443C156.464 108.053 156.666 107.649 156.796 107.548C157.041 107.332 158.037 105.254 158.195 104.605C158.253 104.359 158.426 104.042 158.571 103.883C158.874 103.551 159.768 101.546 159.985 100.709C160.187 99.9153 160.778 98.4147 160.966 98.1694C161.052 98.054 161.269 97.448 161.456 96.8131C161.629 96.1783 161.86 95.3702 161.976 95.0095C162.091 94.6488 162.279 94.0284 162.394 93.6388C162.495 93.2348 162.726 92.4556 162.899 91.9074C163.058 91.3446 163.318 90.2192 163.476 89.3823C163.635 88.5455 163.823 87.5355 163.909 87.1459C163.981 86.7419 164.126 85.9627 164.212 85.4145C164.299 84.8517 164.457 83.986 164.558 83.4666C165.424 79.2534 165.482 68.5906 164.688 64.2043C164.573 63.5694 164.414 62.6604 164.328 62.1843C163.534 57.4517 163.116 55.4172 162.625 53.9599C162.264 52.9066 162.005 52.0265 161.817 51.2906C161.442 49.8045 161.182 49.0542 160.821 48.3472C160.619 47.9576 160.446 47.5536 160.446 47.4382C160.446 47.3372 160.316 47.0053 160.158 46.7167C159.999 46.4137 159.869 46.0386 159.869 45.8654C159.869 45.4614 158.83 43.1961 158.527 42.9508C158.397 42.8498 158.253 42.5468 158.195 42.3015C158.066 41.6667 157.056 39.5601 156.781 39.3292C156.651 39.2282 156.493 38.8964 156.406 38.5934C156.247 38.0306 155.728 37.1361 154.79 35.8231C154.487 35.4046 154.242 34.9573 154.242 34.8131C154.242 34.6832 154.054 34.3513 153.823 34.0916C153.607 33.8319 153.275 33.3413 153.102 33.0095C152.943 32.6776 152.727 32.3602 152.64 32.3025C152.554 32.2592 152.193 31.7686 151.847 31.2203C151.486 30.672 151.14 30.2247 151.068 30.2247C150.995 30.2247 150.765 29.9073 150.577 29.5322C150.389 29.1426 150.115 28.7386 149.971 28.6231C149.841 28.5077 149.509 28.0893 149.25 27.6853C148.99 27.2957 148.557 26.7041 148.268 26.3867C147.98 26.0837 147.331 25.3767 146.84 24.8428C144.2 21.9427 143.377 21.1058 140.419 18.4076C139.871 17.9026 139.164 17.2678 138.861 16.9936C138.558 16.7195 137.981 16.2866 137.591 16.0269C137.187 15.7672 136.769 15.4353 136.653 15.3055C136.538 15.1612 136.192 14.9303 135.903 14.7716C135.6 14.6273 135.225 14.3676 135.066 14.1945C134.778 13.877 133.883 13.2277 132.772 12.5207C132.426 12.2899 131.849 11.9003 131.488 11.6262C131.127 11.3664 130.622 11.0779 130.377 11.0057C130.132 10.9191 129.771 10.7027 129.569 10.5296C129.367 10.342 128.977 10.0823 128.703 9.95243C128.429 9.80814 128.011 9.56285 127.765 9.37528C127.534 9.20213 127.087 8.9857 126.799 8.8847C126.51 8.7837 126.034 8.52399 125.731 8.2787C125.442 8.04784 125.125 7.86027 125.024 7.86027C124.923 7.86027 124.548 7.70155 124.173 7.49955C123.797 7.29755 123.379 7.13883 123.235 7.13883C123.09 7.13883 122.715 6.96569 122.412 6.76369C121.72 6.28754 119.801 5.40739 119.483 5.40739C119.353 5.40739 118.978 5.27753 118.675 5.11882C118.358 4.9601 117.838 4.7581 117.535 4.67153C117.218 4.58496 116.799 4.41181 116.612 4.28195C116.251 4.05109 115.717 3.87795 113.986 3.47395C113.553 3.37295 113.062 3.21423 112.904 3.12766C112.745 3.04109 112.226 2.85351 111.749 2.73808C111.273 2.60823 110.523 2.40622 110.09 2.27637C109.196 2.03108 106.887 1.56936 104.824 1.22307C104.434 1.15093 103.554 0.992213 102.876 0.876783C99.6726 0.285207 99.2542 0.241921 92.5593 0.0110621C91.6936 -0.0177953 89.6447 0.0110621 88.0142 0.0832055ZM97.667 7.57169C98.8069 7.65827 99.9756 7.77369 100.264 7.84584C100.553 7.91798 101.274 8.06227 101.866 8.14884C103.006 8.30756 103.554 8.42299 105.329 8.7837C105.92 8.91356 107.06 9.14442 107.839 9.30314C108.633 9.47628 109.325 9.635 109.398 9.67828C109.47 9.736 109.874 9.85143 110.278 9.95243C110.696 10.0679 111.547 10.342 112.182 10.5729C112.817 10.8037 113.582 11.0346 113.885 11.0923C114.188 11.15 114.65 11.3232 114.895 11.4819C115.155 11.6262 115.458 11.756 115.587 11.756C115.717 11.756 116.136 11.9292 116.525 12.1312C116.915 12.3476 117.434 12.564 117.665 12.6362C118.473 12.8382 119.974 13.5307 120.378 13.8626C120.609 14.0502 120.955 14.2522 121.171 14.3099C121.85 14.483 123.581 15.3343 124.144 15.7816C124.447 16.0269 124.779 16.2289 124.865 16.2289C125.067 16.2289 126.842 17.3399 127.477 17.8593C127.722 18.0613 128.169 18.3211 128.487 18.4509C128.804 18.5952 129.223 18.8405 129.425 19.0281C129.627 19.2156 130.16 19.6052 130.622 19.8938C131.069 20.1679 131.445 20.4565 131.445 20.5287C131.445 20.5864 131.661 20.7595 131.921 20.9182C132.166 21.0625 132.671 21.4521 133.032 21.7839C133.392 22.1014 133.912 22.5342 134.186 22.7507C134.46 22.9527 134.994 23.4 135.355 23.7462C136.783 25.0881 137.894 26.127 138.298 26.4877C138.543 26.7041 139.222 27.3967 139.813 28.0604C140.405 28.7097 141.184 29.5466 141.53 29.9073C141.877 30.2824 142.324 30.8163 142.526 31.0905C142.742 31.3646 143.175 31.884 143.493 32.2447C143.824 32.6055 144.214 33.1105 144.358 33.3558C144.517 33.6155 144.69 33.8319 144.748 33.8319C144.82 33.8319 145.109 34.207 145.383 34.6543C145.671 35.1161 146.09 35.6788 146.306 35.9241C146.523 36.1549 146.782 36.5878 146.869 36.8764C146.97 37.1649 147.172 37.5256 147.331 37.6699C147.504 37.8286 147.749 38.1749 147.908 38.4635C148.052 38.7521 148.326 39.1705 148.514 39.4014C148.701 39.6322 148.932 40.0218 149.004 40.2671C149.091 40.5124 149.394 41.0174 149.682 41.3925C149.971 41.7677 150.202 42.1573 150.202 42.2438C150.202 42.3448 150.361 42.72 150.563 43.0951C150.765 43.4703 150.923 43.8598 150.923 43.9753C150.923 44.0763 151.14 44.4947 151.385 44.8843C151.876 45.6057 152.453 46.861 152.64 47.6113C152.712 47.8422 152.929 48.3616 153.145 48.7512C153.347 49.1407 153.52 49.5447 153.52 49.6602C153.52 49.7756 153.621 50.0642 153.751 50.295C153.867 50.5403 154.17 51.4205 154.415 52.2718C154.646 53.1086 154.934 53.9311 155.05 54.1042C155.151 54.2629 155.281 54.6814 155.338 55.0421C155.396 55.4028 155.512 55.8501 155.613 56.0521C155.699 56.2541 155.901 56.9899 156.031 57.7114C156.161 58.4184 156.334 59.2697 156.406 59.5871C156.623 60.5827 156.955 62.2853 157.128 63.4107C157.214 64.0023 157.344 64.7526 157.416 65.07C158.022 67.8692 158.022 79.0081 157.416 81.8073C157.344 82.1247 157.214 82.875 157.128 83.4666C156.955 84.592 156.623 86.2946 156.406 87.2902C156.334 87.6076 156.161 88.4445 156.031 89.1659C155.901 89.8729 155.699 90.6232 155.598 90.8252C155.512 91.0272 155.382 91.5034 155.324 91.8785C155.266 92.2536 155.165 92.5855 155.108 92.6288C155.035 92.6721 154.819 93.2637 154.603 93.9707C153.795 96.6111 153.275 98.0396 153.015 98.3281C152.9 98.458 152.756 98.7898 152.698 99.064C152.568 99.6988 151.702 101.632 151.356 102.007C151.226 102.166 151.024 102.556 150.923 102.873C150.822 103.176 150.577 103.739 150.404 104.114C150.216 104.489 150.058 104.835 150.058 104.893C150.058 104.951 149.87 105.239 149.639 105.528C149.408 105.817 149.12 106.307 148.99 106.625C148.86 106.942 148.629 107.332 148.485 107.49C148.341 107.649 148.081 108.039 147.922 108.37C147.763 108.688 147.518 109.049 147.388 109.15C147.244 109.265 146.999 109.683 146.826 110.088C146.638 110.477 146.393 110.896 146.263 111.011C146.119 111.112 145.787 111.588 145.498 112.05C145.224 112.526 144.921 112.901 144.849 112.901C144.777 112.901 144.546 113.175 144.329 113.507C144.113 113.853 143.68 114.431 143.348 114.791C143.031 115.166 142.324 116.003 141.761 116.653C141.213 117.316 140.434 118.182 140.03 118.586C139.64 118.99 139.106 119.553 138.846 119.827C138.168 120.563 135.6 122.9 133.378 124.805C132.916 125.194 132.267 125.699 131.921 125.916C131.574 126.132 131.3 126.377 131.3 126.45C131.3 126.522 130.925 126.825 130.449 127.099C129.987 127.387 129.511 127.719 129.41 127.864C129.295 127.993 128.876 128.239 128.487 128.426C128.083 128.6 127.664 128.845 127.549 128.989C127.448 129.119 127.087 129.364 126.77 129.523C126.438 129.682 126.048 129.941 125.89 130.086C125.731 130.23 125.341 130.461 125.024 130.591C124.706 130.721 124.216 131.009 123.927 131.24C123.639 131.471 123.35 131.658 123.307 131.658C123.134 131.658 120.681 132.87 120.262 133.159C119.801 133.491 118.43 134.054 117.521 134.27C117.203 134.357 116.843 134.501 116.727 134.616C116.439 134.862 114.88 135.439 112.37 136.203C111.663 136.42 111.071 136.636 111.028 136.708C110.985 136.766 110.653 136.867 110.278 136.925C109.903 136.983 109.426 137.112 109.224 137.199C109.022 137.3 108.287 137.502 107.565 137.632C106.858 137.762 106.007 137.935 105.689 138.007C104.42 138.281 102.89 138.57 101.866 138.728C101.274 138.815 100.509 138.959 100.178 139.031C97.4506 139.623 86.2251 139.623 83.4836 139.031C83.1662 138.959 82.4015 138.829 81.8099 138.728C80.67 138.57 80.1073 138.454 78.347 138.094C74.812 137.358 72.6621 136.809 72.388 136.593C72.2004 136.449 70.5555 135.944 69.7042 135.771C69.4301 135.713 69.0117 135.54 68.7664 135.395C68.5211 135.251 68.2181 135.121 68.0882 135.121C67.9584 135.121 67.4967 134.919 67.0494 134.688C66.6021 134.443 66.1404 134.256 66.0394 134.256C65.7219 134.256 63.7596 133.303 63.2113 132.899C62.9372 132.697 62.6053 132.524 62.4899 132.524C62.36 132.524 61.9416 132.365 61.5376 132.163C61.148 131.976 60.744 131.803 60.643 131.803C60.5565 131.803 60.1813 131.572 59.8206 131.298C59.4599 131.024 58.9116 130.692 58.623 130.576C58.32 130.446 57.9449 130.23 57.7861 130.086C57.6274 129.941 57.2379 129.682 56.906 129.523C56.5886 129.364 56.2278 129.119 56.1268 128.989C56.0114 128.845 55.593 128.6 55.1746 128.412C54.7706 128.239 54.381 128.008 54.3233 127.907C54.2655 127.82 53.775 127.46 53.2267 127.099C52.6784 126.753 52.2311 126.421 52.2311 126.349C52.2311 126.291 52.0291 126.118 51.7838 125.973C51.5241 125.815 50.9902 125.396 50.5862 125.036C50.1822 124.675 49.6051 124.213 49.3021 124.011C49.0135 123.809 48.7682 123.607 48.7682 123.564C48.7682 123.506 48.1045 122.857 47.2821 122.121C46.4596 121.371 45.5939 120.592 45.363 120.375C45.1322 120.159 44.4973 119.481 43.9346 118.86C43.3863 118.254 42.5927 117.403 42.1887 116.999C41.7847 116.595 41.3086 116.047 41.121 115.772C40.9334 115.498 40.515 114.993 40.1831 114.633C39.8657 114.272 39.4617 113.767 39.3174 113.522C39.1587 113.262 38.9856 113.045 38.9279 113.045C38.8557 113.045 38.5671 112.67 38.293 112.209C38.0044 111.761 37.6148 111.227 37.4273 111.025C37.2397 110.823 36.9944 110.405 36.8501 110.088C36.7203 109.77 36.4605 109.323 36.2585 109.077C35.7535 108.457 34.6281 106.668 34.6281 106.48C34.6281 106.394 34.3684 105.99 34.051 105.557C33.7335 105.138 33.4738 104.72 33.4738 104.619C33.4738 104.532 33.3151 104.157 33.1131 103.782C32.9111 103.407 32.7524 103.017 32.7524 102.902C32.7524 102.801 32.5359 102.383 32.2907 101.993C31.8145 101.286 31.2662 100.103 31.0065 99.2227C30.9199 98.9486 30.7035 98.4436 30.5015 98.0828C30.3139 97.7221 30.1552 97.3181 30.1552 97.1883C30.1552 97.0584 30.0254 96.7554 29.8811 96.4957C29.7224 96.2504 29.5492 95.7887 29.4915 95.4857C29.4338 95.1827 29.2029 94.418 28.9721 93.7831C28.7268 93.1482 28.4815 92.3691 28.3949 92.0516C28.3083 91.7342 28.1641 91.2436 28.0486 90.9695C27.9476 90.6953 27.76 89.8729 27.6302 89.1659C27.5003 88.4445 27.3416 87.622 27.255 87.319C27.0963 86.7419 26.8943 85.6597 26.6923 84.4044C26.6202 84.0004 26.5048 83.2934 26.4182 82.8173C26.0575 80.7684 25.9709 79.9027 25.8266 76.7572C25.7112 74.3909 25.7112 72.5008 25.8266 70.12C25.9709 67.0179 26.043 66.2532 26.4182 64.06C26.9088 61.1454 27.1396 59.9045 27.2118 59.7747C27.255 59.7025 27.3416 59.2985 27.4138 58.8945C27.6302 57.4661 27.861 56.4128 28.0486 55.9078C28.1496 55.6336 28.3083 55.1431 28.3949 54.8256C28.4815 54.5082 28.7412 53.7002 28.9721 53.0221C29.2173 52.3439 29.4482 51.5792 29.5059 51.305C29.5636 51.0309 29.7368 50.6125 29.8811 50.3672C30.0254 50.1219 30.1552 49.8189 30.1552 49.689C30.1552 49.5592 30.3139 49.1552 30.5015 48.7944C30.7035 48.4337 30.9199 47.9287 31.0065 47.6546C31.2951 46.7023 31.9299 45.2883 32.2618 44.8987C32.4494 44.6678 32.6514 44.3216 32.7091 44.1051C32.8822 43.4125 33.8634 41.407 34.1664 41.1328C34.3395 40.9885 34.556 40.6278 34.6425 40.3392C34.7435 40.0507 34.9744 39.6322 35.162 39.4014C35.3495 39.1849 35.6093 38.7954 35.7391 38.5357C35.869 38.2904 36.1431 37.8575 36.374 37.5834C36.5904 37.3092 36.8068 36.9196 36.8645 36.7176C36.9223 36.5156 37.1964 36.1116 37.4561 35.8231C37.7158 35.5345 38.0621 35.0439 38.2208 34.7409C38.3651 34.4379 38.6393 34.0628 38.8124 33.904C38.9856 33.7453 39.3607 33.2836 39.6204 32.8652C39.8946 32.4612 40.212 32.1005 40.313 32.0572C40.4284 32.0139 40.7314 31.6676 40.9767 31.2925C41.2364 30.9317 41.7414 30.3113 42.1166 29.9362C42.8092 29.2292 44.2376 27.7141 44.9013 26.9783C45.1178 26.733 45.8248 26.0548 46.4741 25.4633C47.1378 24.8717 47.9746 24.0925 48.3354 23.7318C48.6961 23.3711 49.3309 22.8372 49.7494 22.5342C50.1534 22.2312 50.4997 21.9138 50.4997 21.8417C50.4997 21.7695 50.7738 21.5387 51.1201 21.3222C51.452 21.1058 52.0002 20.6874 52.3321 20.3844C52.6784 20.0814 53.0103 19.8361 53.0824 19.8361C53.169 19.8361 53.573 19.5475 54.0058 19.2012C54.4387 18.8549 54.9437 18.5231 55.1313 18.4654C55.3188 18.4076 55.7084 18.1912 55.9826 17.9748C56.2567 17.7439 56.6896 17.4698 56.9349 17.3399C57.1946 17.2101 57.5841 16.9503 57.8006 16.7628C58.0314 16.5752 58.4499 16.3443 58.7384 16.2433C59.027 16.1568 59.3877 15.9403 59.532 15.7672C59.8062 15.4642 61.8118 14.483 62.5043 14.3099C62.7208 14.2522 63.067 14.0502 63.2979 13.8626C63.6875 13.5307 65.1015 12.8959 66.0538 12.6073C66.3279 12.5207 66.8329 12.3043 67.1937 12.1023C67.5544 11.9147 67.9584 11.756 68.0882 11.756C68.2181 11.756 68.5211 11.6262 68.7808 11.4819C69.0261 11.3232 69.4878 11.15 69.7908 11.0923C70.0938 11.0346 70.8585 10.8037 71.4934 10.5729C72.1283 10.3276 72.9074 10.0823 73.2248 9.99571C73.5423 9.90914 74.0328 9.76485 74.307 9.64942C74.5811 9.54842 75.4036 9.36085 76.1106 9.23099C76.832 9.10113 77.7699 8.91356 78.2027 8.79813C78.6356 8.69713 79.458 8.53842 80.0063 8.43741C81.6079 8.1777 82.4015 8.03341 83.2383 7.86027C83.9309 7.73041 86.4271 7.52841 89.385 7.36969C90.7413 7.29755 95.1132 7.41298 97.667 7.57169Z" fill="black"/>
<path d="M86.5855 29.8923C85.8208 30.3396 85.5466 30.6137 85.0993 31.3496L84.5366 32.273V56.9028V81.5325L85.0849 82.4416C85.5178 83.1774 85.7775 83.4371 86.5711 83.9133L87.5234 84.476H91.8231H96.1229L97.0896 83.8989C97.912 83.4083 98.1717 83.1486 98.6046 82.4271L99.1384 81.5325V56.9028V32.2586L98.5757 31.3496C98.1284 30.6137 97.8399 30.3396 97.0896 29.9067L96.1661 29.3584H91.8375H87.5089L86.5855 29.8923Z" fill="black"/>
<path d="M86.429 99.7974C85.722 100.274 85.3902 100.62 85.0006 101.284L84.51 102.135L84.4956 106.478V110.821L85.0439 111.773C85.5345 112.61 85.7365 112.798 86.6455 113.317L87.6699 113.909H91.7965H95.9231L96.76 113.461C97.8421 112.899 98.0153 112.74 98.6501 111.701L99.1696 110.835V106.478V102.12L98.6213 101.211C98.2029 100.519 97.871 100.187 97.1928 99.7541L96.3127 99.1914H91.8398H87.3525L86.429 99.7974Z" fill="black"/>
<path d="M27.4722 8.69309C26.7796 8.93838 24.8173 10.4822 24.8173 10.7708C24.8173 10.843 24.4422 11.2903 23.9949 11.752C23.1725 12.6033 22.0037 13.873 20.7484 15.287C20.4022 15.6766 19.9693 16.2393 19.7962 16.5279C19.623 16.802 19.3489 17.1627 19.1757 17.3214C19.0026 17.4657 18.7284 17.8842 18.5409 18.2449C18.3533 18.6056 18.0791 19.0096 17.9204 19.1539C17.7473 19.3126 17.4154 19.7743 17.1557 20.2072C16.896 20.64 16.6218 20.9863 16.5641 20.9863C16.492 20.9863 16.2034 21.3615 15.9293 21.8088C15.6407 22.2705 15.2511 22.8043 15.078 23.0063C14.9048 23.2083 14.674 23.5979 14.5874 23.8865C14.4864 24.1751 14.2844 24.5358 14.1257 24.6801C13.8371 24.9398 13.4331 25.6179 12.553 27.3349C12.351 27.7245 12.048 28.1862 11.8892 28.3738C11.7161 28.5614 11.2399 29.4127 10.8215 30.2928C10.4031 31.1585 9.94136 32.0098 9.81151 32.1686C9.66722 32.3273 9.46522 32.7457 9.37865 33.1064C9.27764 33.4671 9.14779 33.8279 9.07564 33.9144C9.0035 34.001 8.85921 34.3329 8.74378 34.6503C8.62835 34.9821 8.33978 35.516 8.09449 35.8479C7.8492 36.1942 7.6472 36.5549 7.6472 36.6703C7.6472 36.7857 7.51735 37.1464 7.37306 37.4783C7.21434 37.8246 7.0412 38.2863 6.98348 38.5172C6.92577 38.7625 6.76705 39.1087 6.62277 39.3108C6.33419 39.7436 5.84362 41.0566 5.55504 42.1965C5.2809 43.3075 4.83361 44.5628 4.55946 44.9668C4.24203 45.4429 3.95346 46.453 3.53503 48.4297C3.34746 49.3531 3.1166 50.2621 3.03002 50.4208C2.94345 50.594 2.81359 51.0268 2.74145 51.402C2.66931 51.7771 2.51059 52.4409 2.38073 52.8737C2.2653 53.3066 2.0633 54.4464 1.94787 55.3987C1.3563 60.0159 1.06772 61.2712 0.432861 61.8484L0 62.2524V73.4202C0 79.5668 0.0577147 84.6168 0.115429 84.6457C0.33186 84.7323 0.851292 85.5835 0.937865 86.002C0.981151 86.2328 1.11101 86.81 1.22644 87.2861C1.48615 88.426 1.67373 89.4649 1.89016 90.9654C2.23645 93.4039 2.75588 96.0732 2.98674 96.5205C3.05888 96.6792 3.27531 97.3862 3.44846 98.1076C3.6216 98.8146 3.86689 99.6948 3.98232 100.056C4.09775 100.416 4.18432 100.806 4.18432 100.921C4.18432 101.051 4.29975 101.369 4.44404 101.657C4.58832 101.931 4.8769 102.739 5.10775 103.446C5.67047 105.221 6.33419 106.981 6.59391 107.385C6.82477 107.746 7.2432 108.9 7.57506 110.069C7.69049 110.444 7.87806 110.877 7.99349 111.007C8.31092 111.353 9.32093 113.46 9.43636 114.008C9.49408 114.253 9.63836 114.542 9.75379 114.643C9.86922 114.744 10.3309 115.566 10.7782 116.49C11.2111 117.413 11.7017 118.293 11.846 118.452C12.0768 118.726 12.2788 119.058 13.3898 121.121C13.6207 121.554 13.9525 122.03 14.1257 122.189C14.2844 122.333 14.4864 122.694 14.5874 122.983C14.674 123.271 14.9337 123.69 15.1501 123.935C15.3665 124.166 15.6551 124.57 15.7706 124.801C15.886 125.046 16.1457 125.407 16.3333 125.594C16.5353 125.796 16.9248 126.316 17.2134 126.749C18.6563 128.913 19.522 129.851 20.4599 130.312C21.8739 130.976 23.3456 130.716 24.5721 129.577C25.4522 128.769 25.9139 126.893 25.4378 126.07C25.2935 125.825 25.0049 125.306 24.7885 124.916C24.5865 124.527 24.2979 124.123 24.168 124.007C24.0382 123.906 23.8073 123.574 23.663 123.271C23.5043 122.983 23.1148 122.434 22.7973 122.059C22.4799 121.699 22.2202 121.295 22.2202 121.194C22.2202 121.078 22.0182 120.746 21.7585 120.472C21.2246 119.852 20.4887 118.726 19.9982 117.76C19.8106 117.384 19.5509 116.952 19.4066 116.793C19.2623 116.634 18.9449 116.129 18.6996 115.667C17.5453 113.46 17.3289 113.085 17.1124 112.911C16.997 112.81 16.8238 112.493 16.7373 112.204C16.4776 111.396 15.4676 109.348 15.2223 109.146C15.1068 109.045 14.9337 108.698 14.8471 108.366C14.7605 108.049 14.573 107.515 14.4143 107.183C14.27 106.866 14.1401 106.505 14.1401 106.39C14.1401 106.274 13.9814 105.957 13.7938 105.668C13.4475 105.163 12.6972 103.187 12.6972 102.783C12.6972 102.667 12.5385 102.278 12.3365 101.902C12.1345 101.527 11.9758 101.109 11.9758 100.965C11.9758 100.82 11.846 100.46 11.6872 100.157C11.5141 99.8535 11.3265 99.3052 11.2544 98.9301C10.9658 97.5161 10.6772 96.4772 10.2732 95.294C9.79708 93.9378 9.47965 92.5959 9.23436 90.9654C9.14779 90.3739 8.97464 89.4216 8.84478 88.8733C8.46964 87.0697 8.38307 86.5791 8.22435 85.2661C8.12335 84.5447 7.99349 83.679 7.92135 83.3182C7.47406 81.0241 7.27206 74.0839 7.50292 69.0338C7.67606 65.0515 7.73378 64.5321 8.28207 61.3866C8.62835 59.4388 8.87364 57.9526 9.24879 55.6152C9.33536 55.0957 9.49408 54.3887 9.59508 54.028C9.78265 53.3931 10.2011 51.9503 10.6051 50.493C10.7205 50.089 10.9514 49.18 11.1245 48.473C11.2832 47.7515 11.5574 46.9724 11.7017 46.7271C11.846 46.4818 11.9758 46.1788 11.9758 46.0634C11.9758 45.9479 12.1345 45.5439 12.3365 45.1688C12.5385 44.7937 12.6972 44.3608 12.6972 44.2165C12.6972 43.7115 13.2744 42.1676 14.0824 40.5228C14.5153 39.6282 14.8615 38.7769 14.8615 38.6326C14.8615 38.4739 15.0203 38.0987 15.2223 37.8102C15.684 37.132 16.5353 35.314 16.6651 34.7657C16.7084 34.5204 16.8816 34.203 17.0258 34.0443C17.3433 33.698 18.209 32.2551 18.613 31.3894C18.7717 31.0431 19.0747 30.567 19.2767 30.3217C19.4787 30.0764 19.7962 29.5425 19.9837 29.1241C20.1569 28.7201 20.3877 28.3305 20.4743 28.2872C20.5609 28.2295 20.7773 27.9121 20.936 27.5802C21.1092 27.2484 21.4699 26.7289 21.7296 26.4259C22.0037 26.1374 22.2202 25.7911 22.2202 25.6756C22.2202 25.5458 22.4655 25.1851 22.7829 24.8388C23.0859 24.5069 23.4755 23.9731 23.6342 23.6556C23.7929 23.3382 24.067 22.9631 24.2258 22.8332C24.3989 22.6889 24.7308 22.256 24.9616 21.8665C25.2069 21.4769 25.4955 21.1306 25.5965 21.0873C25.7119 21.044 26.0149 20.6977 26.2746 20.3082C26.5344 19.933 27.0105 19.3559 27.3279 19.0384C27.6598 18.7066 28.3812 17.913 28.9295 17.2493C29.4922 16.5856 30.1704 15.7776 30.459 15.4457C30.7475 15.1138 31.2237 14.4357 31.5411 13.9307C32.0461 13.0938 32.1038 12.9063 32.1038 12.055C32.0894 10.8863 31.7431 10.136 30.8485 9.41452C30.0117 8.73638 29.7519 8.60652 28.9151 8.50552C28.4245 8.4478 27.9916 8.50552 27.4722 8.69309Z" fill="black"/>
<path d="M154.271 8.57004C153.132 8.85861 151.905 10.0851 151.631 11.2105C151.299 12.5956 151.718 13.6778 153.233 15.4525C153.507 15.7844 154.156 16.5491 154.675 17.1695C155.195 17.79 155.887 18.5835 156.234 18.9443C156.58 19.305 157.071 19.8965 157.345 20.2573C157.604 20.618 157.994 21.0797 158.196 21.2673C158.412 21.4693 158.744 21.9021 158.946 22.2484C159.134 22.5947 159.365 22.8689 159.437 22.8689C159.509 22.8689 159.74 23.1719 159.956 23.547C160.173 23.9366 160.534 24.4272 160.75 24.6724C160.966 24.9033 161.269 25.365 161.428 25.6825C161.587 25.9999 161.861 26.3895 162.034 26.5482C162.207 26.7069 162.51 27.1397 162.698 27.5149C162.885 27.89 163.116 28.2363 163.203 28.2796C163.289 28.3373 163.535 28.7846 163.751 29.2752C163.982 29.7513 164.271 30.2563 164.415 30.3718C164.545 30.4872 164.819 30.9056 165.006 31.3096C165.54 32.3918 166.262 33.6182 166.55 33.9501C166.695 34.1088 166.897 34.5272 167.012 34.8735C167.286 35.7537 167.935 37.1388 168.325 37.6583C168.498 37.8891 168.7 38.2643 168.743 38.4951C168.873 39.0146 169.696 40.8759 169.999 41.3376C170.287 41.7704 170.763 43.1989 170.908 44.0069C170.965 44.3243 171.124 44.7716 171.268 45.0169C171.413 45.2477 171.571 45.6806 171.629 45.9548C171.687 46.2289 171.86 46.6329 172.004 46.8349C172.149 47.0369 172.394 47.8161 172.567 48.5663C172.74 49.3166 172.957 50.2401 173.072 50.6441C173.187 51.0336 173.418 51.8561 173.577 52.4477C173.736 53.0392 173.952 53.7174 174.024 53.9627C174.197 54.4388 174.385 55.3623 174.587 56.7041C174.746 57.7286 174.876 58.5654 175.381 61.4656C175.943 64.7553 176.001 65.2315 176.174 69.1128C176.52 76.4281 176.073 82.921 174.803 88.8801C174.702 89.3562 174.544 90.2941 174.443 90.9723C174.342 91.6504 174.169 92.5594 174.053 92.9923C173.635 94.565 173.26 95.8203 173.072 96.3109C172.856 96.8736 172.423 98.706 172.423 99.0523C172.423 99.1677 172.264 99.5862 172.062 99.9902C171.874 100.38 171.701 100.813 171.701 100.928C171.701 101.058 171.571 101.419 171.413 101.722C171.24 102.039 171.038 102.587 170.951 102.948C170.864 103.294 170.706 103.756 170.59 103.958C170.489 104.16 170.403 104.405 170.403 104.521C170.403 104.636 170.244 104.997 170.056 105.314C169.869 105.646 169.508 106.454 169.248 107.132C169.003 107.811 168.671 108.59 168.527 108.864C167.474 110.841 167.099 111.62 167.012 112.009C166.969 112.255 166.781 112.63 166.608 112.846C166.233 113.308 165.497 114.578 165.064 115.487C164.905 115.833 164.602 116.309 164.4 116.554C164.198 116.8 163.867 117.333 163.679 117.723C163.304 118.517 162.943 119.079 162.222 120.017C161.962 120.349 161.601 120.912 161.399 121.272C161.212 121.633 160.909 122.052 160.736 122.21C160.562 122.369 160.259 122.802 160.086 123.163C159.899 123.523 159.639 123.899 159.509 124.014C159.379 124.129 159.091 124.533 158.889 124.923C158.672 125.313 158.384 125.832 158.239 126.077C157.763 126.914 158.225 128.761 159.105 129.583C159.812 130.247 160.88 130.709 161.673 130.694C162.958 130.694 164.487 129.757 165.064 128.646C165.208 128.357 165.468 127.996 165.641 127.838C165.829 127.679 166.262 127.131 166.608 126.611C167.604 125.125 168.238 124.259 168.527 123.942C168.686 123.783 168.902 123.394 169.032 123.076C169.176 122.759 169.393 122.369 169.537 122.21C169.869 121.864 170.72 120.421 171.124 119.555C171.283 119.209 171.6 118.704 171.831 118.444C172.062 118.185 172.322 117.723 172.423 117.42C172.524 117.117 172.682 116.771 172.783 116.655C172.884 116.54 173.086 116.15 173.245 115.79C173.404 115.429 173.707 114.881 173.909 114.578C174.125 114.275 174.298 113.928 174.298 113.813C174.298 113.553 175.28 111.475 175.597 111.071C175.727 110.898 176.059 110.09 176.333 109.268C176.593 108.445 176.953 107.565 177.141 107.291C177.329 107.017 177.473 106.7 177.473 106.57C177.473 106.44 177.603 106.094 177.761 105.791C177.935 105.488 178.122 104.968 178.194 104.636C178.339 103.944 178.959 102.111 179.175 101.707C179.377 101.346 179.882 99.5573 179.998 98.8503C180.056 98.5329 180.272 97.7249 180.488 97.0467C181.109 95.1277 181.383 93.8147 181.888 90.3951C182.306 87.6248 182.364 87.2641 182.523 86.8745C182.595 86.6581 182.667 86.3118 182.667 86.1242C182.667 85.7635 183.331 84.4505 183.562 84.3639C183.619 84.3351 183.677 79.4004 183.677 73.4125V62.5189L183.244 62.0283C183.013 61.7542 182.754 61.2636 182.667 60.9317C182.581 60.5854 182.451 60.1093 182.379 59.8784C182.234 59.4023 182.061 58.2191 181.801 55.9105C181.614 54.3234 181.369 52.9815 181.109 52.1447C180.503 50.2256 180.344 49.6341 180.142 48.5519C179.868 47.1235 179.377 45.4353 179.103 45.0025C178.901 44.6706 178.425 43.372 178.122 42.2754C177.848 41.251 177.242 39.6206 177.054 39.4041C176.968 39.3031 176.766 38.8703 176.621 38.4374C175.972 36.5473 175.813 36.1865 175.424 35.6527C175.207 35.3497 175.02 35.0178 175.02 34.9312C175.02 34.8447 174.861 34.4407 174.659 34.0511C174.472 33.6471 174.298 33.2287 174.298 33.0988C174.298 32.9689 174.125 32.6082 173.909 32.3052C173.707 32.0022 173.404 31.4539 173.245 31.0932C173.086 30.7325 172.884 30.3429 172.783 30.2275C172.682 30.1121 172.538 29.7946 172.452 29.5349C172.365 29.2752 172.091 28.799 171.846 28.5105C171.615 28.2075 171.283 27.6736 171.124 27.3273C170.778 26.5915 169.984 25.2784 169.537 24.7157C169.378 24.4993 169.162 24.1097 169.075 23.85C168.989 23.5903 168.743 23.1719 168.527 22.941C168.311 22.6957 168.022 22.3061 167.907 22.0753C167.777 21.83 167.474 21.426 167.228 21.1663C166.983 20.8921 166.565 20.3438 166.291 19.9398C165.425 18.6557 165.093 18.2084 164.516 17.4581C164.198 17.0541 163.867 16.578 163.766 16.3759C163.665 16.1739 163.376 15.7844 163.102 15.5102C162.842 15.2361 162.164 14.4858 161.601 13.8509C158.658 10.5179 157.388 9.24819 156.623 8.88747C155.931 8.54118 154.921 8.41132 154.271 8.57004Z" fill="black"/>
</svg>
