<svg width="184" height="184" viewBox="0 0 184 184" fill="none" xmlns="http://www.w3.org/2000/svg">
<path d="M31.1214 0.0348834C31.1092 0.0552467 30.6917 0.0959733 30.2014 0.136685C29.3844 0.197775 29.2694 0.224926 28.8397 0.442135C28.5855 0.571088 28.1619 0.740782 27.9016 0.815447C27.3388 0.985127 27.2178 1.053 26.7396 1.46026C26.5339 1.63672 26.2071 1.83357 25.9831 1.91501C25.4021 2.13222 25.2629 2.22046 24.8332 2.682C24.6154 2.91278 24.2643 3.23858 24.0525 3.39468C23.5684 3.76799 23.2839 4.08701 22.951 4.63001C22.8118 4.86757 22.5213 5.26125 22.3156 5.50559C21.904 5.9943 21.8254 6.14361 21.6317 6.8088C21.547 7.08708 21.3896 7.41967 21.2201 7.65722C20.8631 8.17308 20.8147 8.28846 20.627 9.03508C20.5423 9.38124 20.4092 9.7885 20.3426 9.94461C20.276 10.0939 20.1913 10.3111 20.161 10.4265C20.0884 10.6912 20.0037 11.9062 19.9311 13.7185C19.9008 14.5194 19.8463 15.3746 19.8161 15.619C19.7434 16.1823 19.8161 16.6439 20.0339 16.9697C20.2276 17.2615 20.9236 17.9946 21.7406 18.7683C22.2974 19.291 22.3156 19.3181 22.6303 20.0648C22.8603 20.6145 23.0539 20.9607 23.3202 21.2933C23.8589 21.972 24.0162 22.3725 24.0162 23.0513C24.0162 23.506 23.992 23.6485 23.8528 23.9336C23.6712 24.3205 22.7574 25.4947 22.3095 25.9156C22.1461 26.0717 21.8375 26.4789 21.6256 26.8319C21.4078 27.178 21.0023 27.7414 20.7178 28.074C20.4273 28.4202 20.0945 28.8953 19.9613 29.16C19.8282 29.4315 19.5377 29.8455 19.2714 30.1442C18.9446 30.5107 18.7146 30.8569 18.4786 31.332C18.2728 31.746 17.9702 32.2076 17.6918 32.5537C17.4255 32.8795 17.135 33.3207 16.9958 33.6126C16.8627 33.9044 16.5903 34.3185 16.3482 34.6036C16.0396 34.9701 15.8641 35.2551 15.6583 35.7439C15.4586 36.2122 15.2649 36.5312 14.9562 36.9181C14.6779 37.2507 14.46 37.5968 14.351 37.8819C14.2542 38.1263 14.1211 38.4521 14.0545 38.6082C13.994 38.7711 13.8124 39.0765 13.655 39.2869C13.5037 39.5041 13.2496 39.9657 13.1043 40.3186C12.947 40.6919 12.717 41.0992 12.5415 41.3164C12.1844 41.7644 12.0512 42.0494 11.912 42.6874C11.8092 43.1694 11.561 43.6377 11.2524 43.916C11.1919 43.9703 10.9921 44.3572 10.8106 44.7644C10.629 45.1785 10.3869 45.64 10.278 45.7893C9.99959 46.1762 9.90881 46.4002 9.79987 46.9907C9.70304 47.5473 9.53963 47.9749 9.36412 48.1378C9.18861 48.3007 9.001 48.6876 8.80128 49.3188C8.6984 49.6514 8.48657 50.1265 8.34132 50.3709C8.1174 50.7374 8.04477 50.9275 7.92978 51.5383C7.80874 52.1492 7.74217 52.3393 7.53034 52.6786C7.38509 52.9094 7.17327 53.3981 7.04012 53.7986C6.89488 54.2533 6.71937 54.6402 6.56806 54.871C6.26546 55.3054 6.22915 55.4208 6.1081 56.1878C6.05364 56.5271 5.9568 56.948 5.88418 57.1312C5.8176 57.3145 5.70867 57.7489 5.64209 58.0951C5.5271 58.7466 5.44238 58.9706 5.15793 59.439C5.05504 59.6087 4.90979 60.0295 4.80086 60.4775C4.70402 60.8915 4.54667 61.3598 4.46194 61.5159C4.21986 61.9503 4.14723 62.1743 4.0504 62.8802C3.99593 63.24 3.8991 63.6812 3.83252 63.8712C3.772 64.0545 3.67517 64.5092 3.6207 64.869C3.56018 65.2898 3.45124 65.7242 3.32415 66.0432C3.18495 66.3826 3.08812 66.7966 3.02154 67.2514C2.96707 67.6315 2.86419 68.1066 2.77946 68.3034C2.59185 68.7786 2.52527 69.0365 2.43449 69.6474C2.39818 69.9256 2.30135 70.3397 2.22872 70.5637C2.15004 70.7944 2.05321 71.2967 2.0169 71.6904C1.98059 72.0773 1.90796 72.566 1.85954 72.7764C1.81113 72.9868 1.74455 73.4755 1.71429 73.8624C1.67798 74.2493 1.59325 74.7855 1.53273 75.0502C1.46616 75.3149 1.38748 75.8308 1.35117 76.2041C1.32091 76.5706 1.24223 77.1068 1.18171 77.3851C1.11514 77.6634 1.04251 78.1521 1.02436 78.4711C1.00015 78.7901 0.927524 79.2788 0.867003 79.5571C0.806482 79.8354 0.727805 80.3784 0.685441 80.7653C0.649128 81.1521 0.576503 81.6069 0.528087 81.7834C0.47967 81.9599 0.413097 82.4825 0.382837 82.9508C0.346524 83.4192 0.30416 83.8468 0.286003 83.9011C0.267847 83.9554 0.195222 85.6183 0.122597 87.6003C-0.0892256 93.3357 -0.0226527 99.1661 0.292055 102.94C0.340472 103.537 0.394941 104.067 0.413097 104.121C0.431253 104.175 0.473618 104.603 0.503878 105.071C0.540191 105.54 0.606764 106.137 0.65518 106.402C0.703597 106.66 0.77017 107.196 0.806482 107.576C0.836743 107.963 0.909368 108.438 0.957784 108.628C1.0062 108.825 1.08488 109.334 1.13935 109.768C1.18776 110.196 1.2846 110.718 1.34512 110.922C1.41169 111.126 1.49037 111.58 1.52668 111.94C1.56299 112.3 1.64772 112.85 1.70824 113.162C1.77482 113.474 1.84139 113.99 1.8656 114.309C1.8898 114.628 1.94427 115.062 1.99269 115.273C2.04111 115.49 2.11978 115.986 2.1682 116.386C2.22872 116.854 2.32555 117.268 2.44054 117.567C2.54343 117.825 2.65842 118.307 2.71289 118.687C2.76736 119.06 2.89445 119.583 3.00944 119.895C3.12443 120.201 3.25757 120.703 3.30599 121.008C3.36046 121.314 3.4815 121.775 3.58439 122.033C3.69938 122.332 3.80226 122.766 3.86278 123.207C3.91725 123.594 4.03829 124.178 4.13513 124.497C4.23801 124.823 4.31669 125.142 4.31669 125.217C4.31669 125.502 4.51036 126.153 4.67981 126.431C4.94005 126.873 4.95821 126.913 5.13372 127.646C5.21845 128.02 5.40001 128.536 5.5271 128.8C5.70261 129.16 5.78734 129.452 5.88418 130.015C5.96285 130.47 6.06574 130.857 6.16257 131.04C6.24125 131.203 6.3865 131.617 6.47123 131.97C6.65884 132.703 6.73147 132.88 7.04012 133.348C7.34273 133.803 7.42746 134 7.57876 134.638C7.65139 134.936 7.79058 135.33 7.88742 135.52C7.98425 135.703 8.1295 136.151 8.22028 136.497C8.4079 137.258 8.42 137.285 8.73471 137.692C9.02521 138.065 9.18256 138.405 9.37623 139.043C9.46096 139.307 9.63042 139.721 9.76356 139.966C9.89671 140.217 10.0904 140.712 10.1872 141.072C10.3385 141.615 10.4172 141.778 10.6653 142.083C11.0466 142.559 11.2463 142.918 11.4642 143.55C11.561 143.835 11.7607 144.269 11.912 144.513C12.0573 144.758 12.251 145.165 12.3417 145.43C12.5536 146.041 12.6988 146.292 13.1467 146.862C13.4432 147.235 13.5522 147.432 13.7035 147.921C13.8608 148.403 13.9637 148.606 14.2542 148.973C14.46 149.237 14.7444 149.713 14.9078 150.079C15.1075 150.507 15.3315 150.873 15.5796 151.165C15.852 151.484 16.0214 151.762 16.209 152.217C16.4027 152.692 16.5722 152.971 16.9292 153.412C17.2681 153.826 17.4739 154.158 17.6797 154.62C17.8976 155.115 18.061 155.373 18.3878 155.74C18.642 156.032 18.9325 156.453 19.108 156.799C19.3258 157.226 19.5498 157.532 19.9734 157.98C20.3486 158.38 20.6513 158.787 20.8691 159.174C21.087 159.561 21.3533 159.914 21.6801 160.247C22.0009 160.573 22.3216 160.993 22.6061 161.462C22.9087 161.964 23.1568 162.283 23.4292 162.527C23.641 162.717 24.0828 163.24 24.4096 163.695C24.7364 164.143 25.1722 164.679 25.3779 164.876C25.5837 165.073 26.0194 165.595 26.3523 166.036C26.7094 166.512 27.248 167.116 27.6717 167.516C28.065 167.889 28.525 168.378 28.7066 168.609C28.8821 168.833 29.3118 169.288 29.6689 169.62C30.0199 169.946 30.5101 170.469 30.7582 170.774C31.0548 171.147 31.4179 171.494 31.8294 171.806C32.2349 172.118 32.6041 172.471 32.8644 172.804C33.1306 173.136 33.4575 173.448 33.7903 173.686C34.1111 173.917 34.5347 174.317 34.91 174.745C35.3154 175.213 35.6604 175.532 35.9691 175.736C36.2172 175.899 36.6287 176.252 36.8769 176.516C37.2218 176.883 37.4639 177.073 37.8513 177.277C38.2325 177.473 38.4988 177.684 38.8801 178.071C39.2614 178.464 39.5277 178.668 39.9574 178.899C40.375 179.123 40.6352 179.326 40.956 179.666C41.2465 179.971 41.5672 180.229 41.9304 180.44C42.233 180.616 42.6385 180.915 42.8382 181.111C43.0379 181.308 43.3284 181.532 43.4736 181.6C44.2786 181.98 44.5086 182.13 44.8777 182.51C45.3558 182.998 45.5919 183.141 46.4089 183.453L47.0141 183.677H136.585L137.19 183.467C137.983 183.188 138.286 183.012 138.715 182.571C139.181 182.096 139.363 181.96 139.78 181.783C140.319 181.559 140.488 181.451 140.858 181.064C141.045 180.874 141.451 180.568 141.759 180.392C142.104 180.188 142.474 179.903 142.728 179.645C143.073 179.286 143.224 179.184 143.69 179.001C144.18 178.804 144.295 178.722 144.767 178.24C145.058 177.942 145.53 177.548 145.814 177.365C146.141 177.154 146.48 176.856 146.752 176.55C146.994 176.272 147.394 175.919 147.69 175.715C148.048 175.478 148.399 175.145 148.84 174.65C149.234 174.202 149.615 173.842 149.839 173.7C150.063 173.557 150.432 173.211 150.807 172.776C151.146 172.39 151.667 171.894 151.987 171.643C152.308 171.392 152.732 170.985 152.938 170.72C153.149 170.462 153.597 170.007 153.936 169.709C154.281 169.417 154.735 168.948 154.953 168.677C155.171 168.399 155.661 167.856 156.048 167.462C156.436 167.068 156.993 166.423 157.295 166.03C157.592 165.636 158.033 165.113 158.263 164.876C158.499 164.631 158.923 164.116 159.208 163.722C159.486 163.328 159.928 162.792 160.182 162.534C160.472 162.249 160.793 161.828 161.023 161.455C161.229 161.102 161.647 160.559 161.979 160.192C162.324 159.819 162.688 159.337 162.857 159.039C163.02 158.74 163.377 158.278 163.704 157.919C164.086 157.505 164.364 157.125 164.582 156.731C164.751 156.412 165.078 155.937 165.308 155.679C165.623 155.312 165.774 155.068 165.962 154.62C166.143 154.172 166.307 153.894 166.658 153.466C167.003 153.052 167.196 152.74 167.408 152.258C167.608 151.803 167.808 151.464 168.092 151.124C168.328 150.832 168.594 150.412 168.746 150.079C168.891 149.767 169.151 149.339 169.333 149.122C169.69 148.681 169.823 148.423 170.017 147.758C170.113 147.425 170.234 147.194 170.47 146.903C170.93 146.326 171.027 146.156 171.318 145.416C171.457 145.05 171.675 144.595 171.79 144.398C171.911 144.208 172.092 143.801 172.195 143.495C172.383 142.939 172.528 142.674 173.018 142.002C173.224 141.724 173.333 141.486 173.448 141.052C173.533 140.733 173.708 140.278 173.842 140.034C173.969 139.789 174.144 139.375 174.223 139.111C174.416 138.466 174.519 138.248 174.907 137.678C175.179 137.278 175.264 137.081 175.415 136.511C175.512 136.131 175.669 135.662 175.766 135.466C175.869 135.276 176.008 134.868 176.081 134.57C176.226 133.959 176.323 133.735 176.704 133.138C176.892 132.839 177.001 132.567 177.098 132.153C177.17 131.841 177.328 131.359 177.442 131.094C177.576 130.796 177.691 130.382 177.745 130.042C177.854 129.337 177.921 129.099 178.138 128.705C178.229 128.536 178.393 128.054 178.496 127.646C178.604 127.198 178.762 126.764 178.883 126.56C179.143 126.112 179.204 125.922 179.319 125.237C179.367 124.918 179.464 124.531 179.524 124.368C179.633 124.09 179.688 123.818 179.821 122.875C179.857 122.637 179.954 122.271 180.039 122.06C180.13 121.85 180.251 121.388 180.317 121.035C180.378 120.689 180.487 120.262 180.559 120.085C180.783 119.535 180.85 119.277 180.916 118.707C180.953 118.402 181.043 118.001 181.11 117.811C181.358 117.112 181.395 116.97 181.461 116.413C181.497 116.094 181.57 115.66 181.618 115.443C181.667 115.232 181.733 114.709 181.77 114.289C181.8 113.875 181.873 113.366 181.921 113.176C181.969 112.979 182.048 112.456 182.097 112.022C182.145 111.58 182.236 111.051 182.302 110.847C182.369 110.637 182.466 110.114 182.514 109.694C182.569 109.266 182.647 108.743 182.702 108.54C182.75 108.336 182.805 107.936 182.823 107.657C182.847 107.379 182.914 106.829 182.974 106.436C183.035 106.042 183.119 105.383 183.15 104.976C183.186 104.562 183.24 103.972 183.271 103.653C183.495 101.501 183.543 100.463 183.646 96.2815C183.694 94.1434 183.688 93.0506 183.616 90.6478C183.476 86.1885 183.398 84.3287 183.337 83.7993C183.307 83.5346 183.265 83.0934 183.246 82.8151C183.228 82.5368 183.156 82.0617 183.095 81.763C183.035 81.4644 182.956 80.9146 182.92 80.5413C182.877 80.1747 182.811 79.7132 182.762 79.5231C182.714 79.3399 182.647 78.8444 182.611 78.4371C182.575 78.0231 182.508 77.5276 182.454 77.3308C182.405 77.1407 182.327 76.6045 182.278 76.143C182.23 75.6882 182.145 75.1588 182.097 74.9755C182.042 74.7855 181.976 74.3307 181.939 73.9574C181.903 73.5841 181.83 73.0207 181.764 72.7017C181.703 72.3827 181.637 71.894 181.612 71.6089C181.594 71.3306 181.509 70.8827 181.425 70.6247C181.34 70.3668 181.225 69.851 181.165 69.4777C181.104 69.1044 180.977 68.6157 180.886 68.3985C180.795 68.1745 180.668 67.6722 180.608 67.2785C180.541 66.8509 180.414 66.369 180.305 66.0975C180.184 65.8056 180.075 65.3577 180.003 64.8893C179.942 64.4821 179.839 63.973 179.773 63.7558C179.706 63.5454 179.609 63.0771 179.555 62.7241C179.494 62.3101 179.403 61.9707 179.3 61.7739C179.016 61.2173 178.937 61.0001 178.804 60.3824C178.719 59.9956 178.598 59.6494 178.471 59.4322C178.163 58.9028 178.138 58.8349 178.011 58.1358C177.945 57.776 177.836 57.3484 177.769 57.1787C177.703 57.0158 177.6 56.5611 177.533 56.1742C177.4 55.4004 177.34 55.2375 177.019 54.7828C176.886 54.5927 176.734 54.2398 176.613 53.8529C176.51 53.5067 176.311 53.0248 176.159 52.7669C175.893 52.3121 175.796 52.0202 175.651 51.2329C175.609 51.0021 175.494 50.6967 175.367 50.4863C175.094 50.0315 174.967 49.7464 174.834 49.2849C174.683 48.7623 174.55 48.484 174.265 48.0971C173.999 47.7373 173.957 47.622 173.805 46.8278C173.727 46.4002 173.654 46.2237 173.4 45.8436C173.23 45.5925 172.97 45.097 172.825 44.7509C172.661 44.3843 172.425 43.9703 172.256 43.7599C171.971 43.4069 171.723 42.9182 171.717 42.6942C171.717 42.3481 171.511 41.873 171.197 41.4793C170.967 41.1942 170.761 40.8209 170.543 40.305C170.362 39.8706 170.107 39.3887 169.944 39.1783C169.781 38.9611 169.593 38.6082 169.478 38.2824C169.26 37.6919 169.121 37.4475 168.6 36.7959C168.364 36.5108 168.165 36.1511 167.995 35.7439C167.802 35.2755 167.65 35.0244 167.354 34.6918C167.118 34.4203 166.851 34.0198 166.664 33.6397C166.488 33.2868 166.186 32.8184 165.931 32.5198C165.695 32.2347 165.399 31.7935 165.272 31.5288C164.939 30.8501 164.654 30.4225 164.322 30.0831C164.158 29.9202 163.886 29.5265 163.71 29.2075C163.535 28.8885 163.178 28.3726 162.905 28.0604C162.639 27.7482 162.324 27.3206 162.209 27.1102C161.858 26.4654 161.58 26.0785 161.296 25.8341C160.951 25.5287 160.006 24.3137 159.801 23.9065C159.668 23.6418 159.643 23.5128 159.643 23.0513C159.643 22.3657 159.825 21.8974 160.303 21.3272C160.545 21.0489 160.721 20.7435 160.938 20.2277C161.102 19.8408 161.296 19.4403 161.368 19.3317C161.441 19.2299 161.804 18.8634 162.173 18.5104C162.548 18.1643 163.063 17.628 163.317 17.3294C163.85 16.705 163.88 16.5964 163.825 15.7411C163.807 15.4289 163.765 14.5669 163.735 13.8203C163.668 12.2795 163.571 10.8406 163.511 10.5555C163.486 10.4469 163.408 10.2229 163.335 10.0532C163.262 9.88352 163.099 9.39482 162.984 8.96722C162.803 8.3224 162.712 8.1052 162.464 7.74547C162.24 7.42646 162.1 7.12781 161.961 6.65947C161.78 6.07575 161.725 5.96714 161.332 5.50559C161.096 5.22731 160.811 4.84042 160.702 4.65716C160.382 4.13452 160.043 3.75442 159.583 3.40147C159.353 3.21821 159.008 2.8992 158.826 2.68878C158.457 2.26117 158.263 2.13222 157.658 1.91501C157.434 1.82678 157.095 1.62994 156.902 1.46704C156.448 1.08694 156.266 0.991915 155.697 0.815447C155.437 0.733994 155.05 0.577876 154.832 0.469271C154.408 0.24529 154.124 0.1842 152.956 0.07561C152.223 0.0077323 31.1819 -0.0329943 31.1214 0.0348834ZM152.623 9.09617C153.022 9.30659 154.178 10.0939 154.414 10.3111C154.632 10.5283 155.346 11.7705 155.564 12.327C155.831 12.9922 155.824 14.0171 155.552 14.6212C155.334 15.1099 154.699 16.257 154.535 16.4538C154.451 16.5624 154.257 16.7253 154.106 16.8271C153.954 16.9221 153.537 17.2004 153.174 17.4448L152.514 17.8928L91.9871 17.9131C58.6946 17.9199 31.3755 17.9131 31.2727 17.8928C31.0487 17.852 29.5539 16.8814 29.2392 16.5692C28.991 16.3316 28.3979 15.2932 28.0893 14.5669C27.9077 14.1325 27.8895 14.0375 27.8895 13.4402C27.8895 12.7954 27.8956 12.775 28.174 12.1506C28.3313 11.7976 28.6218 11.2342 28.8155 10.9016L29.1726 10.2908L30.1046 9.67312C30.619 9.32696 31.0911 9.03508 31.1577 9.01472C31.2242 9.00114 58.5252 8.98078 91.8298 8.97401C150.644 8.96722 152.387 8.97401 152.623 9.09617ZM92.2716 26.859C123.936 26.8387 149.99 26.8251 150.172 26.8251C150.595 26.8183 150.832 26.9473 151.77 27.7346C152.369 28.2369 152.532 28.4066 152.762 28.8138C153.101 29.4043 153.464 29.8455 153.997 30.3206C154.287 30.5854 154.499 30.8637 154.771 31.3252C155.032 31.7732 155.31 32.1397 155.667 32.4994C156.024 32.866 156.303 33.2257 156.563 33.6737C156.769 34.0266 157.12 34.5085 157.337 34.7393C157.652 35.0719 157.791 35.2891 157.985 35.7371C158.155 36.1307 158.366 36.4837 158.681 36.8774C159.02 37.2982 159.208 37.6172 159.438 38.1466C159.668 38.6761 159.843 38.9679 160.146 39.3344C160.388 39.6195 160.66 40.0471 160.817 40.3729C161.017 40.787 161.229 41.0992 161.641 41.5607C162.288 42.3006 162.548 42.701 162.712 43.2305C162.93 43.9228 162.79 44.4658 162.33 44.7712C162.064 44.9477 160.745 45.0156 159.674 44.9137C158.421 44.7984 153.44 44.8594 151.685 45.0088C149.809 45.1717 148.719 45.2803 148.356 45.3482C148.138 45.3821 147.83 45.416 147.66 45.416C147.497 45.416 147.182 45.4635 146.964 45.5178C146.746 45.5721 146.232 45.6672 145.814 45.7215C145.397 45.7826 144.931 45.8708 144.779 45.9251C144.622 45.9726 144.229 46.054 143.902 46.0948C143.569 46.1423 143.061 46.2441 142.758 46.3323C142.461 46.4206 142.008 46.5088 141.759 46.536C141.511 46.5631 141.088 46.6378 140.821 46.7056C140.555 46.7735 140.119 46.8482 139.853 46.8753C139.587 46.8957 139.109 46.9568 138.794 47.0111C138.479 47.0654 137.977 47.1265 137.674 47.1468C137.378 47.1672 136.966 47.2283 136.766 47.2826C136.567 47.3301 136.228 47.3912 136.01 47.4183C135.429 47.4794 135.005 47.5812 134.721 47.7238C134.582 47.7916 134.152 47.9138 133.771 47.9885C133.389 48.0631 132.911 48.1989 132.706 48.2939C132.5 48.3889 132.076 48.5111 131.761 48.5654C131.447 48.6265 131.011 48.7487 130.787 48.8437C130.551 48.9387 130.127 49.0405 129.788 49.0813C129.468 49.122 129.038 49.2034 128.838 49.251C128.639 49.3053 128.179 49.3935 127.809 49.4478C127.446 49.5021 126.962 49.6243 126.744 49.7193C126.526 49.8075 126.127 49.9229 125.861 49.9636C125.31 50.0451 125.134 50.0994 124.753 50.2894C124.602 50.3709 124.208 50.4795 123.876 50.5406C123.488 50.6152 123.095 50.7442 122.792 50.8935C122.471 51.0564 122.12 51.165 121.733 51.2329C121.412 51.2872 120.977 51.389 120.759 51.4569C120.541 51.5316 120.111 51.6198 119.796 51.6605C119.439 51.708 119.058 51.8098 118.786 51.932C118.55 52.0338 118.114 52.1764 117.817 52.2375C117.521 52.2985 117.103 52.4411 116.885 52.5497C116.668 52.6651 116.183 52.8348 115.802 52.923C115.421 53.0112 115.009 53.1402 114.894 53.2081C114.561 53.4049 114.295 53.4863 113.769 53.561C113.502 53.595 113 53.7035 112.649 53.7918C112.298 53.8868 111.814 53.9886 111.572 54.0293C111.33 54.0701 110.991 54.1855 110.821 54.2805C110.652 54.3755 110.198 54.5316 109.81 54.6199C109.429 54.7081 108.945 54.871 108.727 54.9864C108.515 55.095 108.11 55.2375 107.819 55.2986C107.529 55.3597 107.093 55.4954 106.851 55.604C106.585 55.7194 106.191 55.828 105.852 55.8688C105.544 55.9095 105.102 56.0045 104.86 56.0792C104.618 56.1538 104.17 56.2624 103.861 56.3167C103.498 56.3778 103.135 56.5 102.845 56.6493C102.554 56.8054 102.161 56.9344 101.749 57.0158C101.398 57.0837 100.956 57.2262 100.769 57.3281C100.581 57.4231 100.139 57.5656 99.7883 57.6335C99.4372 57.7014 99.0015 57.8236 98.8199 57.8982C98.6384 57.9797 98.1542 58.0815 97.7427 58.1358C97.3372 58.1901 96.9317 58.2647 96.8409 58.3055C96.7501 58.3394 96.387 58.4208 96.0239 58.4819C95.2552 58.6041 95.2431 58.6109 94.7348 58.8553C94.5169 58.9639 94.1114 59.086 93.8269 59.1267C93.5425 59.1743 93.1068 59.2964 92.8586 59.405C92.6044 59.5136 92.1142 59.6562 91.7692 59.7308C91.4182 59.7987 90.9885 59.9209 90.813 60.0023C90.6315 60.0838 90.2199 60.1788 89.8749 60.2195C89.536 60.2535 89.0398 60.3281 88.7735 60.3824C88.5072 60.4299 88.023 60.4978 87.6901 60.5182C87.3633 60.5453 87.0123 60.5928 86.9034 60.6268C86.8005 60.6607 86.3708 60.7354 85.9471 60.7897C85.5296 60.8508 85.0151 60.9526 84.8154 61.0273C84.6096 61.1019 84.2041 61.1901 83.9136 61.2309C83.6231 61.2716 83.1571 61.3802 82.8727 61.4684C82.5882 61.5567 82.098 61.6653 81.7833 61.6992C81.4625 61.7399 81.0692 61.8146 80.9058 61.8757C80.7363 61.93 80.3187 62.0114 79.9677 62.0454C79.6167 62.0793 79.0478 62.154 78.6968 62.2151C78.0915 62.3101 77.3471 62.3915 75.9128 62.5273C73.728 62.7309 63.8328 62.7241 61.5512 62.5137C61.1155 62.473 60.4013 62.4187 59.9656 62.3847C58.622 62.2897 57.3813 62.1811 56.879 62.1132C56.6127 62.0725 56.2072 62.0454 55.9833 62.0454C55.602 62.0454 54.9968 61.9571 53.3083 61.6653C52.9754 61.6042 52.4731 61.5295 52.1886 61.4888C51.9042 61.4549 51.4563 61.3802 51.19 61.3259C50.9238 61.2648 50.4335 61.1901 50.1007 61.1562C49.7678 61.1155 49.2534 61.0273 48.9508 60.9594C48.6542 60.8847 48.1035 60.7965 47.7404 60.7558C47.3712 60.7218 46.9778 60.6539 46.8628 60.62C46.7478 60.5861 46.3302 60.525 45.9247 60.4842C45.5253 60.4435 45.0896 60.3824 44.9564 60.3485C44.8233 60.3078 44.3815 60.2331 43.976 60.1788C43.5644 60.1245 43.0924 60.0159 42.9169 59.9345C42.7474 59.8598 42.3177 59.7512 41.9667 59.6901C41.6157 59.6358 41.1496 59.5136 40.9378 59.4254C40.726 59.3372 40.26 59.2014 39.9029 59.1335C39.5458 59.0589 39.1222 58.9299 38.9588 58.8349C38.6441 58.6584 38.2568 58.5498 37.7242 58.4819C37.5426 58.4548 37.2037 58.3801 36.9677 58.3122C36.7377 58.2376 36.3685 58.1629 36.1506 58.1426C35.5273 58.0747 35.1157 57.9661 34.8192 57.8032C34.6679 57.7217 34.2805 57.5792 33.9477 57.4978C33.5785 57.4027 33.1851 57.2466 32.9067 57.0837C32.6404 56.9208 32.2228 56.7579 31.8415 56.6561C31.4966 56.5611 31.0669 56.4118 30.8853 56.3167C30.6674 56.2013 30.3104 56.1063 29.8867 56.0452C29.4631 55.9841 29.1 55.8823 28.8881 55.7737C28.7066 55.6787 28.3192 55.5362 28.0287 55.4547C27.708 55.3665 27.3691 55.2172 27.1814 55.0814C26.6004 54.6742 26.2978 54.5113 25.8197 54.3687C25.5595 54.2941 25.1419 54.1244 24.8938 54.0022C24.6093 53.8597 24.2462 53.7511 23.9133 53.6968C23.4655 53.6289 23.3202 53.5678 22.8845 53.2827C22.6121 53.0995 22.1643 52.8687 21.8919 52.7804C21.6256 52.6854 21.2746 52.509 21.1112 52.3868C20.5302 51.9524 20.385 51.8709 20.0884 51.8302C19.4893 51.7488 19.0656 51.5926 18.757 51.3415C17.9823 50.7171 17.7886 50.3777 17.8249 49.6989C17.8552 49.1695 18.0489 48.6469 18.418 48.1242C18.5572 47.9274 18.8054 47.4658 18.9688 47.1061C19.1322 46.7396 19.3803 46.278 19.5316 46.0744C19.8645 45.6129 19.9553 45.4228 20.1429 44.7441C20.276 44.2757 20.3486 44.14 20.7239 43.6784C21.0325 43.2983 21.2262 42.9725 21.4199 42.511C21.5772 42.1445 21.8193 41.7236 21.9827 41.52C22.3277 41.0992 22.5516 40.7259 22.8663 40.0878C22.9995 39.8299 23.2597 39.443 23.4534 39.2258C23.7257 38.9272 23.871 38.6896 24.0767 38.1806C24.2946 37.6647 24.4459 37.4136 24.8272 36.952C25.1116 36.6127 25.4203 36.1443 25.5958 35.7914C25.7955 35.3841 26.0255 35.0515 26.3221 34.7257C26.5762 34.4474 26.9152 33.9791 27.127 33.6058C27.3872 33.1375 27.6414 32.8049 28.0287 32.4044C28.3313 32.0922 28.6945 31.6374 28.8458 31.3863C29.2028 30.7822 29.3723 30.5786 29.9049 30.1102C30.3164 29.7573 30.5161 29.4926 31.0427 28.6374C31.2182 28.3523 32.0231 27.6192 32.713 27.0966C33.0822 26.8251 33.4211 26.764 34.1716 26.8319C34.4682 26.8658 60.6131 26.8726 92.2716 26.859ZM159.583 53.8325C162.573 54.0158 164.176 54.1583 164.636 54.2737C164.854 54.328 165.302 54.4027 165.635 54.4434C166.186 54.5045 166.307 54.552 167.045 54.9389C167.983 55.4276 168.34 55.7466 168.619 56.3371C168.728 56.5611 168.915 56.8733 169.036 57.0362C169.327 57.4231 169.448 57.7489 169.569 58.4752C169.623 58.8077 169.732 59.2218 169.805 59.3915C169.883 59.5612 170.023 60.0091 170.107 60.3824C170.222 60.8711 170.331 61.163 170.501 61.4345C170.815 61.9436 170.961 62.2761 171.082 62.792C171.142 63.0363 171.288 63.464 171.403 63.7422C171.566 64.1291 171.633 64.421 171.693 64.964C171.741 65.3577 171.832 65.8531 171.899 66.0636C171.971 66.2808 172.074 66.7559 172.141 67.1292C172.213 67.5636 172.328 67.9641 172.468 68.2695C172.607 68.5817 172.716 68.9822 172.794 69.4573C172.879 69.946 172.982 70.3057 173.127 70.6112C173.261 70.8895 173.363 71.2424 173.412 71.5546C173.454 71.8329 173.551 72.3624 173.624 72.7357C173.702 73.109 173.781 73.6859 173.805 74.0185C173.829 74.3579 173.884 74.7855 173.932 74.9823C173.975 75.1724 174.053 75.7222 174.108 76.1973C174.156 76.6656 174.241 77.1679 174.289 77.2969C174.338 77.4258 174.41 77.8127 174.447 78.1589C174.483 78.4982 174.574 79.0955 174.652 79.4892C174.731 79.8829 174.816 80.4123 174.834 80.677C174.858 80.9349 174.937 81.4236 175.016 81.763C175.094 82.0956 175.173 82.5707 175.197 82.8151C175.215 83.0594 175.27 83.6228 175.318 84.0708C175.367 84.5187 175.433 85.7065 175.47 86.7179C175.506 87.7224 175.572 89.6365 175.627 90.9601C175.778 95.0258 175.572 101.223 175.197 104.06C175.149 104.413 175.094 104.963 175.076 105.282C175.052 105.601 174.985 106.103 174.925 106.402C174.858 106.7 174.78 107.236 174.743 107.589C174.707 107.942 174.628 108.417 174.568 108.641C174.501 108.865 174.423 109.341 174.386 109.694C174.35 110.046 174.253 110.596 174.168 110.915C174.09 111.234 173.993 111.784 173.957 112.137C173.92 112.49 173.854 112.952 173.805 113.155C173.757 113.359 173.69 113.847 173.654 114.241C173.618 114.628 173.533 115.124 173.466 115.334C173.4 115.544 173.297 116.047 173.236 116.454C173.164 116.956 173.067 117.329 172.94 117.608C172.831 117.852 172.716 118.273 172.655 118.626C172.595 119.026 172.474 119.42 172.316 119.78C172.183 120.085 172.044 120.513 172.008 120.73C171.971 120.954 171.893 121.361 171.826 121.64C171.584 122.705 171.542 122.909 171.475 123.37C171.439 123.635 171.342 123.968 171.263 124.117C170.943 124.707 170.87 124.904 170.719 125.515C170.628 125.895 170.477 126.289 170.362 126.493C170.059 126.995 170.029 127.076 169.908 127.769C169.841 128.122 169.708 128.617 169.611 128.875C169.508 129.133 169.381 129.54 169.327 129.778C169.2 130.328 169.072 130.606 168.697 131.162C168.479 131.488 168.352 131.78 168.207 132.269C168.098 132.642 167.935 133.083 167.838 133.253C167.741 133.423 167.602 133.85 167.523 134.203C167.366 134.909 167.257 135.181 167.057 135.384C166.821 135.622 166.573 136.083 166.307 136.762C166.167 137.122 165.95 137.583 165.829 137.78C165.708 137.984 165.55 138.364 165.478 138.629C165.308 139.273 165.175 139.552 164.848 139.966C164.485 140.427 164.334 140.706 164.098 141.364C163.983 141.697 163.795 142.056 163.638 142.267C163.492 142.457 163.22 142.939 163.026 143.339C162.809 143.801 162.548 144.221 162.33 144.479C161.949 144.934 161.87 145.09 161.671 145.762C161.556 146.149 161.465 146.305 161.144 146.679C160.908 146.95 160.624 147.391 160.412 147.805C160.2 148.226 159.898 148.688 159.613 149.034C159.365 149.332 159.008 149.862 158.826 150.208C158.59 150.649 158.378 150.948 158.106 151.219C157.858 151.471 157.58 151.844 157.325 152.278C157.114 152.652 156.714 153.215 156.442 153.541C156.169 153.86 155.843 154.314 155.709 154.559C155.582 154.803 155.268 155.244 155.013 155.543C154.759 155.842 154.348 156.378 154.094 156.738C153.839 157.097 153.464 157.552 153.258 157.756C153.053 157.959 152.671 158.434 152.405 158.815C152.127 159.222 151.721 159.697 151.431 159.975C151.152 160.233 150.771 160.661 150.577 160.925C150.384 161.183 149.936 161.665 149.579 161.984C149.222 162.303 148.762 162.778 148.55 163.043C148.338 163.308 147.945 163.708 147.672 163.939C147.4 164.177 146.946 164.611 146.662 164.917C146.377 165.222 145.972 165.588 145.754 165.731C145.536 165.874 145.124 166.24 144.84 166.546C144.555 166.851 144.077 167.279 143.781 167.489C143.484 167.706 143.036 168.113 142.788 168.399C142.492 168.738 142.159 169.03 141.826 169.247C141.542 169.43 141.106 169.797 140.858 170.061C140.585 170.353 140.15 170.72 139.799 170.951C139.466 171.168 138.994 171.555 138.758 171.806C138.497 172.071 138.207 172.301 138.056 172.362C137.91 172.424 137.662 172.525 137.499 172.586C137.305 172.668 137.051 172.865 136.773 173.157C136.367 173.571 135.29 174.317 134.66 174.616C134.461 174.711 129.982 174.718 91.8479 174.718H49.2534L48.9205 174.528C48.0853 174.053 47.2259 173.442 46.8628 173.062C46.4997 172.681 46.415 172.627 45.9066 172.457C45.3922 172.281 45.3074 172.227 44.9382 171.84C44.7143 171.602 44.2604 171.229 43.9276 171.012C43.5221 170.74 43.165 170.435 42.8321 170.068C42.5295 169.729 42.1543 169.403 41.8335 169.193C41.5249 168.989 41.1618 168.67 40.9015 168.378C40.6292 168.066 40.2781 167.76 39.909 167.523C39.5277 167.272 39.1767 166.966 38.8378 166.6C38.5654 166.288 38.1418 165.914 37.8997 165.751C37.6515 165.588 37.2582 165.242 37.0221 164.978C36.7861 164.713 36.308 164.245 35.957 163.939C35.5999 163.634 35.1883 163.22 35.037 163.009C34.8857 162.799 34.4863 162.385 34.1534 162.086C33.8206 161.788 33.4211 161.373 33.2638 161.163C32.9007 160.681 32.471 160.199 31.9807 159.724C31.7689 159.52 31.3937 159.059 31.1516 158.699C30.9035 158.339 30.5585 157.925 30.389 157.783C30.2196 157.634 29.8202 157.152 29.5054 156.704C29.1907 156.256 28.7792 155.74 28.5976 155.55C28.4161 155.36 28.1316 154.946 27.9561 154.627C27.7867 154.301 27.4538 153.833 27.2117 153.561C26.9696 153.29 26.5702 152.726 26.3221 152.305C26.0316 151.817 25.7289 151.403 25.4869 151.158C25.2085 150.88 25.0209 150.609 24.7848 150.14C24.5912 149.747 24.3067 149.319 24.0525 149.02C23.8165 148.742 23.4715 148.226 23.2415 147.798C23.0237 147.391 22.7029 146.903 22.5334 146.719C22.1824 146.339 22.0674 146.115 21.8677 145.443C21.7588 145.07 21.662 144.893 21.3291 144.493C21.0567 144.16 20.8268 143.787 20.6149 143.326C20.4394 142.952 20.1852 142.491 20.046 142.307C19.9068 142.117 19.7253 141.798 19.6466 141.595C19.3258 140.76 19.114 140.353 18.8054 139.966C18.412 139.47 18.3878 139.416 18.176 138.669C18.0791 138.31 17.9218 137.943 17.7886 137.733C17.6676 137.549 17.4921 137.203 17.4073 136.966C17.1532 136.26 16.9655 135.873 16.7235 135.581C16.3664 135.147 16.2938 134.991 16.1425 134.298C16.0638 133.938 15.9064 133.457 15.7914 133.226C15.6825 132.995 15.5251 132.588 15.4525 132.33C15.271 131.705 15.1862 131.522 14.8776 131.074C14.5387 130.579 14.46 130.395 14.2724 129.662C14.1876 129.316 14.0605 128.909 13.9879 128.753C13.9153 128.597 13.7942 128.142 13.7216 127.741C13.6066 127.117 13.5461 126.947 13.3161 126.574C13.1225 126.255 13.0135 125.97 12.9167 125.563C12.8501 125.25 12.717 124.843 12.6262 124.66C12.5415 124.47 12.4083 124.185 12.3296 124.015C12.2449 123.832 12.1541 123.438 12.0997 123.031C12.0512 122.658 11.9665 122.237 11.912 122.094C11.8636 121.959 11.7547 121.483 11.676 121.042C11.5731 120.465 11.4763 120.126 11.3189 119.807C11.1616 119.488 11.0708 119.169 10.9861 118.646C10.9074 118.191 10.7985 117.784 10.6774 117.526C10.5503 117.248 10.4596 116.915 10.399 116.454C10.3446 116.081 10.2477 115.605 10.1812 115.402C10.1146 115.191 10.0238 114.635 9.97538 114.16C9.92697 113.685 9.85434 113.216 9.82408 113.121C9.79382 113.026 9.7212 112.571 9.66673 112.117C9.61831 111.662 9.52148 111.119 9.45491 110.915C9.38833 110.712 9.2915 110.182 9.24308 109.748C9.19467 109.313 9.11599 108.825 9.06757 108.669C9.01916 108.513 8.93443 107.997 8.87996 107.528C8.83154 107.06 8.75286 106.517 8.70445 106.334C8.65603 106.144 8.58946 105.614 8.55315 105.159C8.52288 104.698 8.46236 104.189 8.4321 104.04C8.40184 103.883 8.34737 103.354 8.31106 102.872C8.2808 102.383 8.22633 101.759 8.19607 101.481C8.09924 100.619 7.99635 96.8991 7.98425 94.1502C7.9782 90.7021 8.16581 85.1364 8.34132 83.8671C8.38369 83.5278 8.44421 83.0459 8.46236 82.7811C8.48657 82.5232 8.5592 82.0956 8.61972 81.8309C8.68024 81.573 8.76497 81.0503 8.79523 80.677C8.83154 80.3037 8.90417 79.8286 8.95258 79.6182C8.99495 79.4078 9.06757 78.9191 9.09783 78.5322C9.13415 78.1453 9.21887 77.6023 9.28545 77.3376C9.35202 77.0661 9.4307 76.5638 9.46701 76.2176C9.49727 75.8715 9.582 75.376 9.64857 75.1181C9.71514 74.8669 9.80593 74.3171 9.85434 73.8963C9.90276 73.4823 9.98144 72.9868 10.0299 72.8035C10.0783 72.6135 10.163 72.1519 10.2114 71.765C10.2719 71.3171 10.3748 70.8963 10.4959 70.584C10.5987 70.3193 10.7198 69.8578 10.7622 69.5523C10.8771 68.7786 10.9074 68.6428 11.1071 68.2016C11.204 67.9844 11.331 67.5229 11.3976 67.1699C11.4642 66.817 11.5852 66.3418 11.67 66.1111C11.7607 65.8803 11.8818 65.3644 11.9363 64.9708C12.0089 64.4821 12.1057 64.1155 12.2328 63.8373C12.3357 63.6065 12.493 63.1382 12.5778 62.792C12.7472 62.1065 12.8864 61.7739 13.1527 61.353C13.2496 61.2105 13.4069 60.8304 13.5098 60.5114C13.7398 59.7987 13.8729 59.5951 14.2663 59.3575C14.5144 59.2014 14.6476 59.1675 14.9381 59.1675C15.513 59.1743 15.858 59.3507 16.9837 60.2263C17.1108 60.3281 17.371 60.4435 17.5586 60.491C18.4059 60.6811 18.6056 60.7625 18.9809 61.0476C19.2472 61.258 19.5256 61.3938 19.8766 61.5024C20.4455 61.6721 20.6634 61.7807 20.9296 62.0318C21.1838 62.2694 21.4441 62.378 22.0372 62.4933C22.3216 62.5544 22.715 62.6698 22.9087 62.7648C23.1023 62.8531 23.5018 62.9956 23.7923 63.0703C24.3551 63.2196 24.5306 63.3078 24.9603 63.6404C25.154 63.7898 25.4506 63.9119 25.8802 64.0341C26.2494 64.1427 26.7094 64.326 26.9636 64.4753C27.3267 64.6925 27.5143 64.7536 28.0106 64.8214C28.3374 64.869 28.7368 64.964 28.8942 65.0319C29.0455 65.0997 29.4631 65.2219 29.8202 65.2966C30.3164 65.3984 30.5706 65.5002 30.9035 65.7038C31.2182 65.9007 31.4905 66.0025 31.8839 66.0839C32.241 66.1586 32.592 66.2875 32.9128 66.4572C33.2819 66.6609 33.5422 66.7491 34.0021 66.8238C34.3411 66.8848 34.7284 66.9731 34.8736 67.0342C35.0189 67.0885 35.4667 67.1835 35.8722 67.2378C36.2777 67.2853 36.7558 67.3939 36.9374 67.4618C37.119 67.5364 37.5426 67.645 37.8755 67.7061C38.2023 67.774 38.6562 67.9098 38.8741 68.0184C39.1343 68.1405 39.4974 68.2491 39.9392 68.317C40.3084 68.3713 40.7563 68.4799 40.9318 68.5614C41.1073 68.636 41.543 68.7446 41.8941 68.7989C42.2451 68.8532 42.705 68.955 42.9048 69.0297C43.1105 69.0976 43.5826 69.1926 43.9639 69.2401C44.3451 69.2808 44.7506 69.3419 44.8656 69.3759C44.9867 69.4098 45.4224 69.4709 45.834 69.5116C46.2455 69.5523 46.766 69.627 46.9839 69.6813C47.2017 69.7288 47.6375 69.7899 47.9522 69.817C48.2669 69.8442 48.6784 69.9121 48.86 69.9664C49.0416 70.0207 49.4773 70.0885 49.8283 70.1293C50.1794 70.1632 50.6272 70.2379 50.8269 70.2989C51.0266 70.3533 51.4745 70.4279 51.8255 70.4686C52.1765 70.5026 52.6668 70.5772 52.9149 70.6315C53.163 70.6858 53.6169 70.7469 53.9135 70.7673C54.2161 70.7876 54.6034 70.8419 54.7789 70.8759C54.9544 70.9166 55.4628 70.9709 55.8986 71.0048C56.3404 71.0388 57.0243 71.0931 57.4237 71.1338C57.8231 71.1745 58.4889 71.2356 58.9064 71.2764C59.324 71.3103 60.0563 71.3714 60.5405 71.4189C61.0247 71.4596 62.7556 71.5207 64.3836 71.5546C66.0176 71.5818 67.9604 71.6293 68.7108 71.6565C71.3798 71.7447 76.633 71.5411 78.6362 71.2764C78.9207 71.2356 79.5077 71.1745 79.9374 71.1406C80.3732 71.1067 80.815 71.0456 80.93 71.0116C81.0389 70.9709 81.402 70.9098 81.7288 70.8691C82.0617 70.8284 82.5277 70.7401 82.7698 70.6655C83.0058 70.5976 83.49 70.5094 83.841 70.4686C84.192 70.4279 84.6399 70.3329 84.8396 70.265C85.0393 70.1971 85.463 70.1021 85.7777 70.0614C86.0924 70.0139 86.5584 69.9188 86.8126 69.851C87.0668 69.7763 87.5691 69.6881 87.9322 69.6541C88.2954 69.6134 88.7432 69.5523 88.9248 69.5184C89.1063 69.4845 89.5058 69.4369 89.8023 69.4098C90.1049 69.3894 90.5528 69.3283 90.8009 69.274C91.049 69.2197 91.5272 69.1451 91.86 69.1111C92.2232 69.0704 92.6347 68.9754 92.8586 68.8804C93.0765 68.7853 93.5183 68.6632 93.8512 68.6021C94.178 68.541 94.6137 68.412 94.8195 68.317C95.0192 68.222 95.461 68.0998 95.7939 68.0455C96.1328 67.9844 96.5746 67.8555 96.7925 67.7469C97.0527 67.6179 97.4219 67.5161 97.8818 67.4482C98.2631 67.3871 98.6747 67.3057 98.7897 67.2649C98.9046 67.231 99.3283 67.1563 99.7338 67.102C100.133 67.0545 100.623 66.9459 100.823 66.8645C101.017 66.7898 101.44 66.6812 101.755 66.6201C102.07 66.5658 102.506 66.4301 102.73 66.3215C102.978 66.1993 103.377 66.0771 103.758 66.016C104.182 65.9414 104.527 65.8396 104.836 65.6767C105.108 65.5409 105.568 65.3916 105.961 65.3101C106.331 65.2287 106.736 65.1201 106.869 65.0726C107.002 65.0183 107.402 64.9368 107.747 64.8961C108.104 64.8486 108.552 64.74 108.776 64.645C108.993 64.5567 109.435 64.421 109.762 64.3531C110.083 64.2784 110.482 64.1495 110.64 64.0612C111.033 63.8373 111.263 63.7626 111.868 63.6404C112.177 63.5861 112.576 63.4436 112.837 63.3078C113.163 63.1382 113.46 63.0431 113.92 62.9685C114.271 62.9142 114.67 62.8191 114.803 62.7648C114.943 62.7105 115.215 62.6494 115.409 62.6223C116.111 62.5341 116.468 62.4458 116.867 62.249C117.097 62.1472 117.454 62.025 117.672 61.9775C118.126 61.8893 118.616 61.7264 118.792 61.6042C118.973 61.482 119.306 61.3734 119.911 61.2309C120.208 61.163 120.613 61.0273 120.801 60.9254C121.031 60.81 121.388 60.7082 121.818 60.6471C122.187 60.5861 122.647 60.491 122.847 60.4232C123.046 60.3553 123.361 60.2738 123.543 60.2535C124.106 60.1788 124.463 60.0702 124.82 59.8666C125.007 59.7648 125.431 59.6222 125.794 59.5476C126.139 59.4729 126.605 59.3236 126.817 59.2286C127.029 59.1267 127.495 58.9842 127.852 58.9163C128.203 58.8417 128.626 58.7263 128.79 58.6448C128.947 58.5702 129.395 58.4616 129.776 58.4073C130.158 58.3462 130.612 58.258 130.775 58.2104C130.944 58.1561 131.338 58.0815 131.652 58.0407C132.3 57.9593 132.33 57.9525 132.833 57.7353C133.032 57.6471 133.456 57.5249 133.771 57.457C134.085 57.3959 134.539 57.2602 134.769 57.1516C135.005 57.0498 135.453 56.914 135.774 56.8597C136.089 56.8054 136.536 56.6765 136.76 56.5814C137.021 56.4728 137.456 56.371 137.91 56.3099C138.316 56.2556 138.739 56.181 138.854 56.147C138.969 56.1063 139.429 56.0452 139.871 56.0113C140.319 55.9706 140.7 55.9231 140.731 55.9027C140.755 55.8823 141.154 55.8212 141.62 55.7669C142.08 55.7126 142.619 55.6108 142.819 55.5362C143.018 55.4683 143.46 55.3733 143.805 55.3325C144.144 55.285 144.574 55.19 144.761 55.1221C144.949 55.0475 145.415 54.9457 145.802 54.8846C146.196 54.8303 146.643 54.7352 146.801 54.681C146.958 54.6266 147.37 54.552 147.709 54.5113C148.048 54.4773 148.556 54.4027 148.84 54.3484C149.125 54.2941 149.712 54.2126 150.142 54.1719C150.577 54.1312 151.134 54.0701 151.382 54.0361C151.63 54.0022 152.762 53.9411 153.894 53.9004C155.026 53.8597 156.018 53.8189 156.103 53.8054C156.454 53.7578 158.572 53.7714 159.583 53.8325Z" fill="black"/>
<path d="M129.219 67.2518C129.122 67.2654 128.674 67.3875 128.22 67.5165C127.615 67.6862 127.325 67.8084 127.095 67.9781C126.393 68.5075 124.638 70.5437 124.377 71.1342C124.299 71.3039 124.147 71.8605 124.032 72.3628C123.869 73.0822 123.827 73.4148 123.827 73.9239C123.827 74.4329 123.869 74.7655 124.032 75.485C124.147 75.9873 124.299 76.5371 124.377 76.7068C124.692 77.4262 126.665 79.639 127.301 79.9919C127.452 80.0801 127.948 80.2498 128.396 80.3788C129.522 80.691 130.103 80.691 131.246 80.3516C131.706 80.2159 132.178 80.053 132.306 79.9783C132.85 79.6661 134.775 77.5077 135.15 76.8018C135.229 76.6457 135.398 76.0959 135.519 75.58C135.828 74.2633 135.828 73.5845 135.519 72.2813C135.404 71.7723 135.259 71.2564 135.198 71.1274C134.896 70.4555 132.911 68.2224 132.306 67.8695C131.894 67.6319 130.532 67.2722 129.939 67.2382C129.643 67.2246 129.316 67.2314 129.219 67.2518Z" fill="black"/>
<path d="M117.234 85.1699C117.137 85.1835 116.689 85.3057 116.235 85.4346C115.63 85.6043 115.34 85.7265 115.11 85.8962C114.408 86.4256 112.659 88.4551 112.386 89.0659C112.308 89.2424 112.15 89.7786 112.047 90.2538C111.769 91.4959 111.769 92.1746 112.047 93.4032C112.162 93.9054 112.314 94.4552 112.392 94.6249C112.707 95.3444 114.68 97.5571 115.316 97.91C115.467 97.9983 115.963 98.168 116.411 98.2969C117.537 98.6092 118.118 98.6092 119.261 98.2698C119.721 98.134 120.193 97.9711 120.321 97.8965C120.865 97.5842 122.79 95.4326 123.165 94.7267C123.244 94.5706 123.407 94.0208 123.528 93.505C123.837 92.2018 123.843 91.4959 123.564 90.2605C123.456 89.7786 123.304 89.2424 123.226 89.0727C122.923 88.4076 120.902 86.1202 120.321 85.7876C119.903 85.55 118.547 85.1903 117.954 85.1564C117.658 85.1428 117.331 85.1496 117.234 85.1699Z" fill="black"/>
<path d="M131.242 103.042C130.8 103.144 129.457 103.999 129.051 104.427C128.827 104.658 128.161 105.852 127.907 106.483C127.762 106.823 127.744 106.965 127.744 107.522C127.738 108.106 127.756 108.207 127.931 108.621C128.21 109.293 128.821 110.373 129.051 110.617C129.251 110.827 130.237 111.52 130.715 111.791C131.248 112.09 132.168 112.103 132.743 111.818C133.076 111.649 134.286 110.814 134.474 110.617C134.619 110.468 135.339 109.205 135.569 108.696C135.823 108.126 135.848 107.101 135.618 106.49C135.448 106.029 134.667 104.63 134.468 104.42C134.232 104.176 133.191 103.456 132.725 103.212C132.343 103.022 131.66 102.94 131.242 103.042Z" fill="black"/>
<path d="M89.6649 103.117C88.1035 103.212 87.2501 103.313 86.8749 103.449C86.657 103.524 86.2818 103.612 86.0337 103.653C85.4406 103.748 85.1622 103.836 84.8112 104.033C84.6599 104.121 84.2423 104.27 83.8912 104.366C83.5402 104.454 83.0924 104.623 82.8987 104.732C82.4993 104.963 82.2269 105.044 81.6762 105.112C81.4583 105.132 81.0891 105.241 80.8592 105.35C80.6231 105.452 80.2661 105.574 80.0724 105.621C79.5761 105.73 79.2372 105.906 78.8983 106.225C78.5594 106.544 78.172 106.768 77.6092 106.972C77.3853 107.06 77.1069 107.196 76.9858 107.291C76.653 107.542 76.4774 107.63 76.0235 107.752C75.4849 107.902 75.2549 108.038 74.7768 108.506C74.5287 108.75 74.1595 109.008 73.754 109.225C73.409 109.409 72.9975 109.694 72.8341 109.85C72.6707 110.013 72.2591 110.311 71.9142 110.508C71.4966 110.759 71.1577 111.031 70.8551 111.343C70.5343 111.682 70.2801 111.879 69.8988 112.076C69.5055 112.28 69.2694 112.463 68.8881 112.87C68.6097 113.155 68.1195 113.583 67.7867 113.814C67.3691 114.106 67.0725 114.37 66.8304 114.676C66.6368 114.927 66.31 115.253 66.1042 115.409C65.4869 115.87 65.2327 116.135 64.8877 116.644C64.7122 116.909 64.3914 117.309 64.1796 117.54C63.9678 117.764 63.6531 118.124 63.4836 118.327C63.0721 118.83 62.7816 118.993 62.3035 118.993C61.7891 118.993 61.4501 118.775 60.966 118.131C60.3789 117.357 60.2155 117.065 60.0642 116.569C59.8705 115.897 59.7374 115.64 59.3743 115.192C59.1927 114.968 58.9325 114.54 58.7933 114.235C58.6238 113.848 58.412 113.515 58.1033 113.155C57.8612 112.87 57.4618 112.287 57.2137 111.859C56.8687 111.275 56.669 111.004 56.3785 110.746C56.1667 110.556 55.7128 110.019 55.3738 109.551C54.8594 108.845 54.6173 108.581 54.0182 108.065C53.5643 107.678 53.1709 107.277 52.9893 107.019C52.6141 106.483 51.8697 105.757 51.3311 105.404C50.7561 105.024 49.8362 104.603 49.4791 104.556C48.9284 104.481 48.8921 104.678 49.1765 106.117C49.2794 106.619 49.3581 107.087 49.3581 107.148C49.3581 107.216 49.4912 107.719 49.6546 108.262C49.8786 109.008 49.9572 109.402 49.9875 109.857C50.0117 110.182 50.0843 110.644 50.1509 110.875C50.2114 111.099 50.3204 111.608 50.3809 112.001C50.4475 112.395 50.5564 112.884 50.629 113.081C50.7016 113.298 50.7864 113.793 50.8348 114.33C50.8832 114.825 50.9498 115.314 50.9861 115.416C51.0224 115.517 51.095 115.986 51.1434 116.447C51.1979 116.902 51.2766 117.431 51.325 117.615C51.3734 117.791 51.4581 118.355 51.5066 118.857C51.555 119.359 51.6155 119.821 51.6337 119.875C51.67 119.984 51.7486 121.64 51.8334 123.961C51.8878 125.393 51.8576 126.92 51.7184 129.635C51.6881 130.321 51.6458 130.905 51.6337 130.932C51.6155 130.959 51.561 131.42 51.5126 131.963C51.4581 132.5 51.3734 133.09 51.325 133.267C51.2766 133.45 51.1979 133.959 51.1495 134.4C51.1011 134.835 51.0163 135.364 50.9679 135.561C50.9195 135.764 50.8469 136.253 50.8166 136.654C50.7803 137.054 50.6956 137.536 50.629 137.74C50.5624 137.936 50.4535 138.445 50.3809 138.86C50.3143 139.28 50.2114 139.789 50.1448 139.993C50.0843 140.197 50.0117 140.617 49.9935 140.93C49.9391 141.656 49.8725 142.002 49.6849 142.538C49.6002 142.776 49.4489 143.353 49.3581 143.828C49.2612 144.296 49.0978 144.955 48.995 145.287C48.7771 146.014 48.765 146.292 48.9405 146.489C49.0434 146.604 49.116 146.624 49.3218 146.59C49.5881 146.543 50.7924 145.905 51.3976 145.484C51.8576 145.165 52.5959 144.446 52.8743 144.045C53.2556 143.482 53.7398 142.939 54.2361 142.504C54.5326 142.246 54.9139 141.819 55.156 141.473C55.5675 140.896 55.9669 140.448 56.5056 139.959C56.669 139.81 56.9111 139.457 57.135 139.043C57.371 138.608 57.6797 138.16 58.0126 137.78C58.3212 137.434 58.648 136.973 58.8235 136.64C58.9869 136.335 59.2714 135.893 59.465 135.669C59.8645 135.181 59.9432 135.025 60.1308 134.332C60.2821 133.749 60.3608 133.613 60.9418 132.887C61.4441 132.255 61.7588 132.031 62.2006 131.977C62.8966 131.896 63.2355 132.126 64.5004 133.545C65.1177 134.23 65.614 134.719 65.9831 134.997C66.2918 135.228 66.7336 135.629 66.9636 135.887C67.242 136.206 67.5264 136.443 67.8169 136.606C68.1074 136.769 68.4342 137.04 68.7792 137.407C69.106 137.753 69.5236 138.106 69.8746 138.337C70.2256 138.568 70.6251 138.9 70.8974 139.199C71.2 139.531 71.5147 139.789 71.8718 140C72.1623 140.176 72.5678 140.489 72.7857 140.713C73.0641 141.004 73.3001 141.174 73.6269 141.323C74.2321 141.602 74.4016 141.71 74.686 141.995C75.152 142.464 75.3881 142.633 76.0054 142.918C76.3504 143.075 76.7558 143.292 76.9011 143.407C77.0524 143.523 77.4276 143.719 77.7423 143.842C78.1599 144.004 78.4323 144.167 78.7772 144.459C79.2977 144.9 79.4672 144.995 80.0421 145.152C80.26 145.213 80.611 145.355 80.8289 145.464C81.0468 145.572 81.4946 145.728 81.8275 145.803C82.2209 145.891 82.5779 146.02 82.8382 146.176C83.1347 146.346 83.4131 146.448 83.8368 146.523C84.1636 146.584 84.6478 146.733 84.914 146.855C85.1803 146.977 85.604 147.113 85.8521 147.161C86.1003 147.208 86.5602 147.317 86.8749 147.405C87.2078 147.5 87.6193 147.568 87.8735 147.568C88.1095 147.568 88.4787 147.602 88.6966 147.636C90.0281 147.86 93.8711 147.839 94.7789 147.602C94.9787 147.554 95.3963 147.48 95.6989 147.439C96.3041 147.357 96.4069 147.324 96.9577 147.018C97.1574 146.909 97.5266 146.774 97.7747 146.719C98.1984 146.618 98.4404 146.509 99.1062 146.115C99.2575 146.027 99.6327 145.905 99.9474 145.844C100.256 145.783 100.674 145.654 100.873 145.559C101.067 145.471 101.43 145.348 101.678 145.294C102.229 145.179 102.441 145.07 102.828 144.704C102.998 144.554 103.324 144.323 103.554 144.208C104.317 143.808 104.759 143.563 105.055 143.366C105.219 143.258 105.503 143.136 105.691 143.088C106.151 142.973 106.411 142.817 106.835 142.403C107.065 142.172 107.422 141.927 107.87 141.69C108.263 141.479 108.687 141.194 108.862 141.025C109.032 140.862 109.455 140.55 109.806 140.332C110.212 140.081 110.581 139.783 110.817 139.531C111.162 139.151 111.44 138.975 112.07 138.717C112.263 138.636 112.469 138.466 112.705 138.194C112.899 137.97 113.359 137.563 113.734 137.285C114.182 136.945 114.533 136.62 114.793 136.301C115.017 136.016 115.368 135.676 115.653 135.473C116.24 135.052 116.512 134.78 116.911 134.217C117.087 133.966 117.462 133.572 117.777 133.307C118.085 133.049 118.43 132.703 118.539 132.534C119.054 131.746 119.211 131.543 119.514 131.271C120.083 130.742 120.446 130.294 120.7 129.805C120.839 129.54 121.136 129.113 121.36 128.855C121.711 128.461 121.808 128.291 122.001 127.762C122.165 127.328 122.34 127.002 122.594 126.662C123.024 126.079 123.115 125.895 123.478 124.782C123.756 123.927 123.762 123.9 123.762 123.099C123.762 122.379 123.738 122.189 123.563 121.504C123.339 120.594 123.224 120.357 122.685 119.685C122.473 119.413 122.183 118.945 122.044 118.64C121.862 118.253 121.65 117.94 121.299 117.54C121.027 117.235 120.646 116.78 120.452 116.529C120.258 116.278 119.919 115.931 119.695 115.755C119.471 115.572 119.072 115.185 118.806 114.886C118.479 114.52 118.17 114.248 117.849 114.051C117.583 113.888 117.16 113.535 116.881 113.244C116.482 112.83 116.258 112.66 115.719 112.375C115.277 112.137 114.92 111.886 114.666 111.635C114.454 111.431 114.043 111.119 113.746 110.949C113.456 110.78 113.068 110.495 112.893 110.311C112.481 109.897 112.421 109.857 111.785 109.694C111.253 109.558 111.035 109.429 110.696 109.069C110.593 108.967 110.2 108.723 109.818 108.54C109.437 108.35 109.032 108.112 108.911 108.004C108.578 107.705 108.366 107.603 107.73 107.461C107.295 107.359 107.059 107.264 106.829 107.094C106.478 106.836 106.363 106.782 105.63 106.537C105.285 106.429 105.007 106.28 104.819 106.123C104.462 105.818 104.25 105.716 103.688 105.587C103.452 105.526 103.064 105.411 102.828 105.316C102.598 105.221 102.132 105.099 101.799 105.044C101.412 104.976 101.055 104.861 100.807 104.732C100.589 104.623 100.171 104.481 99.8687 104.427C99.5661 104.366 99.2212 104.277 99.1062 104.23C98.9912 104.182 98.7431 104.08 98.5615 104.006C98.3739 103.931 97.9744 103.816 97.6718 103.761C97.3692 103.7 97 103.605 96.8548 103.544C96.7096 103.483 96.2435 103.415 95.7775 103.381C95.3297 103.347 94.7305 103.293 94.4461 103.252C92.9936 103.056 91.3232 103.008 89.6649 103.117ZM93.1872 112.069C93.8772 112.103 94.5732 112.171 94.7305 112.205C94.8879 112.246 95.3236 112.32 95.6989 112.375C96.1286 112.436 96.5219 112.538 96.758 112.646C96.9698 112.741 97.4358 112.877 97.7989 112.952C98.2891 113.047 98.5675 113.142 98.8701 113.318C99.0941 113.447 99.554 113.637 99.899 113.732C100.238 113.827 100.668 113.977 100.849 114.072C101.037 114.167 101.43 114.289 101.733 114.336C102.356 114.445 102.568 114.526 102.828 114.744C103.101 114.981 103.446 115.158 103.918 115.321C104.347 115.463 104.456 115.531 104.91 115.918C105.189 116.149 105.443 116.271 106.078 116.447C106.393 116.535 106.574 116.644 106.865 116.909C107.077 117.092 107.519 117.397 107.851 117.574C108.19 117.757 108.614 118.056 108.808 118.246C109.056 118.483 109.262 118.612 109.504 118.694C110.321 118.945 110.424 119.006 110.835 119.427C111.065 119.665 111.513 120.024 111.828 120.235C112.148 120.445 112.536 120.764 112.693 120.941C112.856 121.117 113.22 121.463 113.504 121.708C113.789 121.952 114.085 122.251 114.158 122.379C114.485 122.929 114.575 123.846 114.351 124.416C114.261 124.667 114.018 124.966 113.341 125.685C112.85 126.208 112.33 126.737 112.179 126.866C111.44 127.497 111.138 127.796 110.865 128.176C110.635 128.495 110.424 128.685 110 128.97C109.637 129.208 109.213 129.574 108.82 129.988C108.481 130.341 108.021 130.755 107.791 130.905C107.555 131.047 107.149 131.407 106.883 131.692C106.508 132.099 106.278 132.276 105.872 132.493C105.54 132.669 105.213 132.914 104.995 133.138C104.493 133.654 104.166 133.905 103.809 134.034C103.373 134.19 103.07 134.373 102.743 134.658C102.586 134.801 102.187 135.045 101.848 135.201C101.43 135.405 101.122 135.602 100.892 135.832C100.456 136.26 100.395 136.294 99.7295 136.477C99.4269 136.565 99.0033 136.728 98.7915 136.85C98.5857 136.966 98.1681 137.142 97.8655 137.231C97.5266 137.332 97.1574 137.502 96.873 137.692C96.5582 137.902 96.2678 138.031 95.8744 138.133C95.5718 138.208 95.0936 138.364 94.8092 138.466C94.3734 138.636 94.1193 138.676 93.1449 138.744C91.886 138.839 89.3079 138.805 88.9084 138.69C88.7753 138.649 88.3516 138.574 87.9643 138.513C87.4559 138.445 87.1594 138.357 86.8689 138.208C86.6449 138.099 86.2152 137.957 85.9126 137.896C85.259 137.767 85.1501 137.726 84.7083 137.421C84.4965 137.278 84.1515 137.122 83.7944 137.027C83.4797 136.939 83.0561 136.769 82.8563 136.66C82.6566 136.545 82.2814 136.389 82.0212 136.307C81.4402 136.131 81.2828 136.043 80.9136 135.683C80.5081 135.289 80.2661 135.133 79.6851 134.882C79.334 134.74 79.0435 134.549 78.7772 134.305C78.5594 134.101 78.1176 133.776 77.8029 133.579C77.4458 133.348 77.0827 133.049 76.8285 132.764C76.4774 132.384 76.3443 132.282 75.8964 132.092C75.4668 131.916 75.2973 131.794 74.9644 131.454C74.5287 130.993 74.2321 130.755 73.6269 130.382C73.3848 130.226 73.0701 129.948 72.8099 129.629C72.5739 129.35 72.1502 128.957 71.8718 128.753C71.5874 128.543 71.194 128.183 70.9943 127.952C70.7945 127.721 70.4254 127.375 70.1772 127.185C69.3844 126.581 69.1968 126.242 69.1968 125.373C69.1968 124.511 69.4086 124.097 70.1591 123.499C70.3648 123.33 70.6796 123.011 70.8551 122.78C71.0548 122.522 71.3998 122.196 71.781 121.918C72.1321 121.66 72.586 121.239 72.8704 120.92C73.2033 120.54 73.518 120.262 73.869 120.038C74.1898 119.827 74.5529 119.522 74.8313 119.203C75.1823 118.816 75.3881 118.653 75.7694 118.45C76.1083 118.28 76.423 118.042 76.7922 117.683C77.3732 117.112 77.47 117.045 78.0812 116.787C78.3052 116.692 78.6441 116.488 78.8257 116.332C79.0133 116.176 79.4309 115.918 79.7637 115.755C80.4597 115.416 80.6836 115.266 80.8894 115.022C81.1073 114.764 81.4159 114.601 81.9909 114.452C82.2693 114.377 82.6687 114.228 82.8866 114.119C83.1045 114.011 83.4979 113.868 83.7642 113.807C84.1999 113.705 84.3815 113.624 85.0654 113.216C85.1803 113.149 85.5374 113.033 85.8521 112.958C86.1668 112.884 86.6328 112.734 86.881 112.626C87.1957 112.483 87.4922 112.409 87.8493 112.375C88.1338 112.354 88.5695 112.287 88.8176 112.232C89.2292 112.144 90.5848 112.035 91.5713 112.015C91.7711 112.008 92.4973 112.035 93.1872 112.069Z" fill="black"/>
<path d="M95.102 116.583C94.7146 116.705 93.48 117.492 93.1532 117.825C92.9111 118.069 92.2514 119.243 91.973 119.922C91.8278 120.262 91.8096 120.404 91.8096 120.961C91.8036 121.544 91.8217 121.646 91.9973 122.06C92.2756 122.732 92.8869 123.811 93.1169 124.056C93.3166 124.266 94.3031 124.959 94.7812 125.23C95.3138 125.529 96.2337 125.542 96.8087 125.257C97.1415 125.087 98.3519 124.253 98.5396 124.056C98.6848 123.906 99.405 122.644 99.635 122.135C99.9013 121.531 99.9134 120.513 99.6531 119.848C99.4716 119.393 98.7998 118.178 98.588 117.92C98.3943 117.689 97.547 117.119 96.8268 116.746C96.3366 116.481 95.6285 116.42 95.102 116.583Z" fill="black"/>
</svg>
