<svg width="184" height="230" viewBox="0 0 184 230" fill="none" xmlns="http://www.w3.org/2000/svg">
<path d="M38.1241 49.0688C37.051 49.1193 35.5993 49.2329 34.905 49.3086C34.2233 49.3844 33.0114 49.5106 32.2161 49.5737C30.2846 49.7504 25.6896 50.4953 23.1648 51.0381C17.7996 52.2121 17.4588 52.3257 16.6382 53.0831C15.7672 53.9037 15.6157 54.4844 15.54 57.2743L15.4642 59.7359L9.34166 59.8117C5.78173 59.8495 2.99185 59.9379 2.67626 60.0136C2.14606 60.1399 1.21189 60.6953 0.921542 61.0614C0.833175 61.1624 0.593321 61.579 0.378716 61.983L0 62.7278V120.229V177.731L0.32822 178.388C0.504954 178.741 0.782679 179.208 0.959413 179.435C1.38862 180.003 2.47428 180.496 3.45894 180.572C4.25424 180.647 4.31736 180.622 6.02158 179.814C6.98099 179.372 7.96566 178.905 8.20551 178.804C8.44536 178.691 9.31641 178.324 10.1243 177.971C10.9323 177.618 12.1568 177.125 12.8385 176.873C16.3605 175.61 19.6553 174.487 21.145 174.058C21.6373 173.919 22.5083 173.654 23.1017 173.49C26.7878 172.404 33.6173 170.965 38.1872 170.308C46.3169 169.147 53.9544 168.718 61.8569 168.983C66.4899 169.134 72.4483 169.627 75.3013 170.081C75.9325 170.182 76.8036 170.321 77.258 170.397C77.7125 170.472 78.4825 170.573 78.9622 170.637C80.414 170.813 82.1308 171.129 84.2011 171.583C85.2742 171.811 87.2056 172.24 88.4806 172.517C91.4599 173.174 92.1289 173.187 94.8431 172.581C95.9666 172.341 97.5193 172 98.2767 171.836C99.0468 171.672 100.044 171.457 100.499 171.343C101.332 171.154 103.213 170.839 105.851 170.447C106.621 170.334 107.694 170.157 108.25 170.068C108.805 169.967 110.08 169.803 111.09 169.69C125.279 168.187 138.307 168.68 151.36 171.217C153.809 171.697 159.124 172.947 160.954 173.49C161.548 173.654 162.431 173.919 162.911 174.058C165.158 174.701 171.773 177.075 173.136 177.706C173.414 177.832 174.121 178.148 174.714 178.413C175.308 178.665 176.57 179.271 177.542 179.738C179.17 180.559 179.347 180.609 180.13 180.609C181.518 180.597 182.579 179.94 183.298 178.627L183.677 177.908V120.318C183.677 86.8393 183.627 62.6899 183.564 62.652C183.5 62.6142 183.412 62.4248 183.362 62.2354C183.147 61.3013 181.986 60.2283 180.976 60.0389C180.685 59.9758 177.807 59.9253 174.55 59.9253C171.306 59.9253 168.516 59.9 168.339 59.8495L168.024 59.7738V57.7035C168.024 54.7621 167.771 53.8153 166.761 52.9443C166.042 52.3257 165.41 52.1364 161.459 51.2779C160.942 51.1643 160.197 51.0002 159.818 50.8992C158.783 50.6341 153.014 49.7252 151.423 49.5737C150.666 49.5106 149.1 49.3591 147.952 49.2329C146.361 49.0814 144.493 49.0309 140.125 49.0183C135.037 49.0056 134.053 49.0435 131.477 49.296C129.887 49.4601 128.12 49.6621 127.564 49.7631C127.009 49.8641 126.011 50.0282 125.355 50.1418C122.906 50.5457 121.946 50.7477 119.295 51.4294C110.976 53.5376 104.93 56.3275 98.0748 61.2382C97.0144 61.9956 94.7547 63.8892 93.4166 65.1389C92.697 65.8206 92.0153 66.4266 91.9017 66.4897C91.7376 66.5781 91.4094 66.3256 90.4373 65.3914C85.413 60.5565 79.3662 56.6936 72.5872 53.9921C70.5169 53.1715 68.4844 52.4646 67.0579 52.0859C61.4277 50.571 57.224 49.7883 52.1997 49.3086C49.0942 49.0183 41.6587 48.892 38.1241 49.0688ZM50.243 56.4537C53.1843 56.7062 54.9264 56.9208 57.5017 57.3879C60.4557 57.9307 61.92 58.2842 65.4547 59.3193C71.8171 61.1877 78.5835 64.8612 83.6962 69.2417C84.8323 70.2137 88.1145 73.5338 88.1019 73.7105C88.1019 73.7989 88.1272 77.7123 88.165 82.3957C88.2282 89.4525 88.3039 161.244 88.2534 161.951C88.2534 162.078 88.1903 162.179 88.1272 162.179C88.064 162.179 87.395 161.8 86.6375 161.345C85.0974 160.411 81.2598 158.455 79.7323 157.823C79.1642 157.596 78.2806 157.23 77.763 157.003C76.1724 156.334 71.754 154.907 69.5575 154.352C68.4087 154.061 67.1589 153.746 66.7802 153.645C65.947 153.43 64.1418 153.064 62.425 152.774C61.7307 152.66 60.7965 152.483 60.342 152.395C59.4331 152.206 57.6027 151.978 53.1464 151.524C50.2177 151.221 44.8652 150.994 41.5956 151.019C38.1114 151.07 31.6733 151.335 29.9817 151.511C29.0096 151.612 27.5579 151.751 26.7626 151.827C25.9673 151.89 24.7806 152.016 24.1368 152.092C23.4804 152.168 22.8744 152.193 22.7734 152.155C22.622 152.092 22.5967 145.629 22.5967 105.396C22.5967 68.1813 22.6346 58.6629 22.7608 58.5619C22.8366 58.4862 23.1395 58.3978 23.4173 58.3473C23.695 58.2968 24.7806 58.0948 25.8158 57.8928C30.3351 57.0218 34.6904 56.5421 41.0275 56.2139C42.5803 56.1255 48.0338 56.277 50.243 56.4537ZM146.058 56.4032C149.744 56.6557 152.749 57.0344 156.41 57.6782C160.134 58.3347 160.424 58.3852 160.702 58.5367L160.954 58.6755L160.929 105.409L160.891 152.143L160.26 152.13C159.679 152.13 158.101 151.978 153.582 151.511C151.764 151.309 151.398 151.297 145.452 151.057C141.223 150.88 134.709 151.07 130.846 151.461C129.533 151.6 127.854 151.764 127.122 151.84C125.86 151.953 124.749 152.117 122.515 152.521C121.959 152.61 120.823 152.812 119.99 152.963C118.525 153.216 116.947 153.594 113.362 154.528C111.443 155.021 106.899 156.548 105.636 157.116C105.169 157.318 104.273 157.697 103.642 157.962C102.43 158.442 99.5896 159.856 97.9612 160.777C96.9386 161.345 96.7493 161.459 96.0802 161.888C95.752 162.103 95.6005 162.141 95.4742 162.027C95.3354 161.913 95.3101 154.087 95.3101 117.869V73.8368L95.651 73.4076C96.5725 72.2967 100.132 68.9008 101.067 68.257C101.218 68.156 101.875 67.6637 102.518 67.184C105.548 64.9117 109.373 62.7404 113.299 61.0867C118.702 58.8144 125.658 57.1733 132.803 56.5042C136.615 56.1381 141.892 56.1002 146.058 56.4032ZM15.6536 111.999C15.7041 144.202 15.7672 157.066 15.8682 157.407C16.0828 158.126 16.6635 158.846 17.4209 159.3C18.09 159.704 18.1405 159.717 19.4407 159.704C20.1729 159.704 21.4227 159.603 22.218 159.49C23.5435 159.288 25.942 159.01 29.4136 158.644C30.8148 158.492 32.7463 158.379 37.9978 158.139C42.7949 157.924 49.1826 158.101 53.1464 158.581C57.2366 159.06 58.1329 159.199 60.5062 159.654C64.7856 160.487 65.0003 160.537 67.6639 161.295C69.0904 161.699 70.4664 162.065 70.7315 162.115C70.984 162.166 71.1986 162.254 71.1986 162.305C71.1986 162.494 70.5548 162.557 69.7216 162.444C67.828 162.179 63.7 161.926 59.5467 161.8C57.123 161.724 55.1031 161.699 55.0527 161.737C55.0022 161.762 53.1717 161.85 50.9878 161.913C48.8038 161.989 46.5694 162.103 46.014 162.166C45.1429 162.28 43.7417 162.418 40.207 162.772C39.7904 162.81 37.9473 163.087 36.1042 163.403C34.2612 163.706 32.3928 164.022 31.951 164.085C31.5092 164.148 30.5497 164.35 29.8049 164.527C24.0863 165.877 22.0918 166.382 20.8294 166.761C20.0341 167.001 18.5823 167.443 17.6103 167.733C15.7041 168.288 13.5202 169.033 11.2984 169.879C10.5409 170.169 9.32903 170.637 8.60947 170.902C7.88991 171.179 7.2461 171.369 7.18298 171.331C7.05674 171.242 7.01887 67.2092 7.15773 67.083C7.20822 67.0325 9.11443 67.0073 11.412 67.0199L15.5905 67.0578L15.6536 111.999ZM176.608 67.1461C176.646 82.0675 176.583 171.066 176.532 171.205C176.482 171.331 176.355 171.381 176.242 171.356C175.762 171.192 170.826 169.349 170.485 169.185C169.942 168.945 168.099 168.339 166.067 167.733C165.095 167.443 163.529 166.976 162.595 166.698C161.661 166.42 160.727 166.142 160.512 166.092C159.755 165.903 155.059 164.804 154.2 164.615C153.721 164.514 153.153 164.375 152.938 164.312C152.736 164.249 152.193 164.148 151.739 164.085C151.284 164.022 149.391 163.706 147.51 163.39C145.641 163.075 143.483 162.759 142.713 162.683C139.797 162.393 137.625 162.179 136.527 162.052C135.908 161.989 134.57 161.926 133.56 161.926C132.551 161.913 130.96 161.863 130.026 161.8C127.072 161.585 117.856 161.951 113.791 162.444C113.16 162.519 112.655 162.519 112.466 162.444C112.125 162.317 112.201 162.267 113.047 162.065C113.476 161.964 115.698 161.345 117.844 160.727C118.197 160.626 119.384 160.361 120.495 160.146C121.606 159.931 123.196 159.629 124.029 159.464C129.546 158.366 138.799 157.811 146.058 158.139C151.322 158.379 153.241 158.492 154.642 158.644C158.089 159.01 160.512 159.288 161.838 159.49C162.633 159.603 163.807 159.704 164.426 159.704C165.423 159.717 165.638 159.679 166.218 159.376C167.026 158.947 167.594 158.278 167.91 157.381C168.15 156.712 168.15 155.728 168.15 111.847V66.9946H172.379C175.674 66.9946 176.608 67.0325 176.608 67.1461Z" fill="black"/>
</svg>
