<svg width="146" height="184" viewBox="0 0 146 184" fill="none" xmlns="http://www.w3.org/2000/svg">
<path d="M20.326 0.0190311C11.9559 0.436466 4.75864 5.58035 1.53322 13.4712C0.93345 14.9255 0.586916 16.2317 0.26704 18.1842C0.000475839 19.7731 0.00047585 20.7292 0.00047585 91.8278C0.00047585 169.269 -0.0395088 164.717 0.613573 167.384C2.50618 175.086 8.53052 181.145 16.1942 183.044C18.8599 183.704 15.941 183.677 72.7058 183.677C116.915 183.677 126.072 183.65 127.018 183.488C132.003 182.694 135.975 180.661 139.32 177.24C142.532 173.928 144.465 169.982 145.198 165.216C145.384 163.99 145.411 156.678 145.411 91.8278C145.411 20.7292 145.411 19.7731 145.145 18.1842C144.705 15.4776 144.105 13.6597 142.865 11.2763C141.279 8.26001 138.52 5.24371 135.642 3.39892C133.869 2.25434 131.456 1.20401 129.417 0.678846C126.618 -0.0348334 130.737 0.019038 73.7054 0.00557237C44.7832 -0.00789327 20.7658 0.00556548 20.326 0.0190311ZM126.672 6.34789C129.964 6.92691 132.776 8.4216 135.055 10.7916C137.161 12.9999 138.614 15.8681 139.16 18.9248C139.44 20.433 139.44 163.25 139.16 164.758C137.987 171.262 133.083 176.204 126.672 177.335C125.619 177.523 119.808 177.55 72.7058 177.55C14.5149 177.55 18.9265 177.617 16.3408 176.715C15.2479 176.352 14.7148 176.096 13.3153 175.288C11.2228 174.103 8.8504 171.464 7.6242 168.999C7.09108 167.922 6.47798 166.01 6.2514 164.758C5.97151 163.25 5.97151 20.433 6.2514 18.9248C6.65124 16.6626 7.82413 13.9425 9.10363 12.2324C10.1566 10.8454 12.0625 9.10835 13.3153 8.39467C14.7148 7.58673 15.2479 7.33088 16.3408 6.96731C18.8199 6.10551 14.5948 6.15937 72.5725 6.1459C119.848 6.13244 125.605 6.15937 126.672 6.34789Z" fill="black"/>
<path d="M20.3936 12.2751C19.0341 12.4906 18.3011 12.706 17.1949 13.2447C16.1153 13.7698 15.7554 14.0391 14.7691 15.0356C13.8361 15.9917 13.5029 16.436 13.0764 17.3382C12.0768 19.4523 12.1168 18.806 12.1568 34.1433L12.1968 47.811L12.5033 48.6862C12.9965 50.0463 13.5296 50.9754 14.3959 51.9449C15.7288 53.4262 17.2082 54.3553 18.9942 54.84C19.8871 55.069 21.8997 55.0824 72.7068 55.0824C123.58 55.0824 125.526 55.069 126.419 54.84C128.112 54.3822 129.218 53.7359 130.551 52.3893C131.804 51.1235 132.337 50.2887 132.91 48.6862L133.217 47.811L133.257 34.0895C133.283 20.7046 133.283 20.3411 133.017 19.2773C132.59 17.5402 131.924 16.3552 130.618 15.0087C129.685 14.0526 129.285 13.7564 128.312 13.2851C127.672 12.9619 126.806 12.6118 126.379 12.4906C125.686 12.2886 121.021 12.2751 73.1733 12.2482C44.3311 12.2347 20.5802 12.2482 20.3936 12.2751ZM125.526 18.7386C125.913 18.9272 126.379 19.2907 126.553 19.5197C127.312 20.5296 127.286 20.0313 127.286 33.7259C127.272 43.9059 127.246 46.424 127.099 46.8415C126.819 47.609 126.273 48.2553 125.553 48.6189L124.9 48.9556H72.7068H20.5136L19.8605 48.6189C19.1408 48.2553 18.5943 47.609 18.3144 46.8415C18.1678 46.424 18.1412 43.9059 18.1278 33.7259C18.1278 20.0313 18.1012 20.5296 18.8609 19.5197C19.0341 19.2907 19.5006 18.9272 19.8871 18.7386L20.5802 18.3885H72.7068H124.833L125.526 18.7386Z" fill="black"/>
<path d="M112.963 21.7012C110.564 22.2802 108.111 24.2731 107.045 26.4815C106.165 28.3397 106.099 28.7841 106.099 33.726C106.099 38.641 106.139 38.9372 107.058 40.8763C107.498 41.7919 107.818 42.2363 108.751 43.1789C109.684 44.1215 110.124 44.4447 111.03 44.889C112.736 45.7104 113.602 45.8989 115.495 45.8316C116.721 45.7777 117.308 45.697 118.014 45.4546C119.907 44.7948 121.559 43.5021 122.666 41.7785C124.065 39.6239 124.225 38.8025 124.225 33.6991C124.225 29.2285 124.132 28.4879 123.359 26.8047C121.826 23.4517 118.747 21.4723 115.095 21.4992C114.362 21.4992 113.402 21.5934 112.963 21.7012ZM116.068 27.7338C116.881 28.03 117.361 28.434 117.787 29.215L118.161 29.9018L118.201 32.9181C118.267 36.7558 118.201 37.4156 117.654 38.3312C116.881 39.6239 115.308 40.1356 113.962 39.5162C113.163 39.1527 112.789 38.7891 112.416 37.9811C112.11 37.3213 112.096 37.2136 112.096 33.6991C112.096 29.821 112.123 29.6055 112.829 28.6764C113.243 28.1378 114.389 27.5453 115.042 27.5453C115.308 27.5453 115.775 27.6261 116.068 27.7338Z" fill="black"/>
<path d="M18.9291 67.656C17.7296 67.9927 17.2497 68.2216 16.1568 68.9487C14.5041 70.0394 13.2779 71.6688 12.5582 73.7156L12.1984 74.739L12.1584 82.2797C12.1051 90.7496 12.1184 90.79 13.0647 92.7829C13.9444 94.6277 15.4638 96.1493 17.2631 97.0246C19.209 97.9672 19.1823 97.9672 30.3514 97.9672C39.8677 97.9672 40.3742 97.9537 41.4404 97.6979C44.186 97.0246 46.3585 95.2471 47.5714 92.6483C48.4377 90.8035 48.4511 90.6553 48.4511 82.549C48.4511 74.4023 48.4511 74.4158 47.4781 72.3825C46.745 70.8608 44.9724 69.1103 43.453 68.3697C41.4138 67.3732 41.8269 67.4002 30.1914 67.4136C20.6351 67.4136 19.7288 67.4406 18.9291 67.656ZM40.5874 73.7829C41.3605 74.1465 41.8403 74.6447 42.1601 75.4122C42.3734 75.897 42.3867 76.5837 42.3601 82.8318L42.3201 89.7128L41.9202 90.3591C41.6403 90.8035 41.2938 91.1266 40.7873 91.4229L40.0543 91.8403H30.2581C20.955 91.8403 20.4352 91.8269 19.9954 91.5845C19.3423 91.2344 18.8225 90.7227 18.4893 90.0898C18.196 89.5646 18.196 89.4165 18.1561 82.8991C18.1161 75.4122 18.1161 75.3584 19.0624 74.4023C20.0087 73.4462 19.6355 73.4866 30.3247 73.4732L39.921 73.4597L40.5874 73.7829Z" fill="black"/>
<path d="M61.3175 67.6692C58.6252 68.4502 56.4261 70.3354 55.3065 72.84C54.5468 74.5098 54.5068 75.0619 54.5068 82.7103C54.5068 89.2277 54.5202 89.7529 54.7734 90.8167C55.1999 92.6211 55.853 93.7926 57.1725 95.1391C58.3853 96.3914 59.2517 96.9435 60.9044 97.536L61.904 97.8996H72.5665C84.4819 97.8996 83.8555 97.94 85.9347 96.9301C87.3608 96.2298 89.1468 94.4255 89.8532 92.9712C90.8528 90.9109 90.8928 90.5743 90.8928 82.7103C90.8928 75.0619 90.8528 74.5098 90.0931 72.84C89.5866 71.7089 89.0002 70.874 88.0539 69.9314C87.1209 69.0023 86.108 68.3694 84.6819 67.8577L83.6289 67.4672L72.8997 67.4403C62.8103 67.4134 62.1172 67.4268 61.3175 67.6692ZM82.7759 73.6614C83.4823 73.9038 84.1354 74.4963 84.4953 75.2234C84.7618 75.7351 84.7618 75.964 84.7352 82.7911L84.6952 89.8337L84.322 90.3992C83.8289 91.1533 83.0958 91.6246 82.1495 91.7727C81.1099 91.9478 64.2897 91.9478 63.2501 91.7727C62.3038 91.6246 61.5708 91.1533 61.0776 90.3992L60.7044 89.8337L60.6645 82.7911C60.6378 75.9102 60.6378 75.7351 60.9044 75.21C61.2509 74.5232 61.824 73.9981 62.5437 73.7018C63.0502 73.4998 63.9965 73.4729 72.6465 73.4729C80.8167 73.4594 82.2695 73.4864 82.7759 73.6614Z" fill="black"/>
<path d="M103.896 67.6156C103.457 67.7234 102.59 68.06 101.964 68.3562C101.018 68.8275 100.631 69.1103 99.6315 70.1472C98.2986 71.5207 97.6456 72.6518 97.2057 74.335C96.9925 75.1968 96.9658 75.9105 96.9658 82.549C96.9658 90.4668 96.9925 90.7631 97.7255 92.4328C98.9117 95.1259 101.151 97.0111 103.976 97.6979C105.043 97.9537 105.536 97.9672 115.066 97.9672C123.636 97.9672 125.182 97.9403 126.048 97.7517C129.54 97.0246 132.232 94.3449 133.072 90.7631C133.272 89.9282 133.298 88.9587 133.258 82.2797L133.219 74.739L132.859 73.7156C132.339 72.2478 131.632 71.1032 130.553 70.026C129.473 68.9487 128.527 68.3428 127.128 67.8311L126.155 67.4675L115.425 67.4406C106.402 67.4271 104.563 67.454 103.896 67.6156ZM125.222 73.6752C126.048 73.9714 126.794 74.7255 127.074 75.5738C127.274 76.1798 127.287 77.0012 127.261 82.8991C127.221 89.4165 127.221 89.5646 126.928 90.0898C126.594 90.7227 126.075 91.2344 125.422 91.5845C124.982 91.8269 124.462 91.8403 115.159 91.8403H105.363L104.63 91.4229C104.123 91.1266 103.777 90.8035 103.497 90.3591L103.097 89.7128L103.057 82.8183C103.03 76.2202 103.03 75.9105 103.283 75.3314C103.617 74.5908 104.203 73.9983 104.936 73.7021C105.443 73.5001 106.362 73.4732 115.039 73.4732C123.542 73.4597 124.648 73.4866 125.222 73.6752Z" fill="black"/>
<path d="M20.5283 104.11C19.3021 104.244 18.3558 104.514 17.1963 105.079C16.1167 105.604 15.7568 105.874 14.7972 106.857C13.5044 108.176 12.8379 109.361 12.3848 111.139C12.1316 112.176 12.1182 112.539 12.1582 119.811C12.1982 127.338 12.2115 127.392 12.5181 128.267C13.0912 129.896 13.5977 130.704 14.8638 131.97C15.7835 132.886 16.3166 133.303 17.063 133.68C19.1289 134.704 18.4891 134.65 29.7914 134.69C38.8146 134.73 40.0408 134.717 41.0537 134.515C43.013 134.125 44.4524 133.33 45.9052 131.835C47.3047 130.408 48.1177 128.671 48.3976 126.543C48.4909 125.87 48.5175 123.042 48.4775 118.626C48.4242 112.27 48.4109 111.704 48.1577 110.883C47.1847 107.611 44.8256 105.268 41.5869 104.352C40.7872 104.123 39.9475 104.11 30.8577 104.083C25.4331 104.069 20.7816 104.083 20.5283 104.11ZM40.4673 110.438C41.1737 110.721 41.8268 111.381 42.1333 112.081C42.3732 112.633 42.3866 113.091 42.3866 119.42V126.18L42.0134 126.92C41.7201 127.513 41.4936 127.755 40.9204 128.092L40.2007 128.536H30.3779C21.7012 128.536 20.5017 128.509 20.0485 128.321C19.3954 128.052 18.849 127.54 18.4891 126.853C18.1959 126.328 18.1959 126.18 18.1559 119.716C18.1292 114.909 18.1559 112.957 18.2759 112.539C18.5158 111.677 19.0755 110.977 19.8752 110.573L20.5816 110.223H30.2712C38.8146 110.223 40.0141 110.25 40.4673 110.438Z" fill="black"/>
<path d="M62.6237 104.15C59.9714 104.447 57.5457 105.955 56.0663 108.244C54.5602 110.573 54.5069 110.883 54.5069 119.447C54.5069 127.836 54.4802 127.634 55.9197 130.435C56.0263 130.624 56.4661 131.189 56.9059 131.674C58.1321 133.021 59.6516 133.963 61.3709 134.421C62.2372 134.65 63.0236 134.663 72.6999 134.663C82.3761 134.663 83.1625 134.65 84.0288 134.421C85.6815 133.977 86.8277 133.303 88.0939 132.038C88.7337 131.405 89.3334 130.705 89.4534 130.489C89.56 130.26 89.8133 129.775 89.9998 129.398C90.1998 129.021 90.4797 128.2 90.6263 127.581C90.8795 126.517 90.8928 125.992 90.8928 119.474C90.8928 111.61 90.8529 111.22 89.9599 109.348C89.0136 107.369 87.6274 105.955 85.7615 105.039C83.7756 104.083 84.322 104.123 73.3663 104.083C67.9417 104.07 63.1036 104.096 62.6237 104.15ZM83.1625 110.6C83.7489 110.897 83.9888 111.126 84.3354 111.705L84.7619 112.432V119.38V126.315L84.362 127.015C84.0688 127.54 83.7756 127.836 83.2558 128.133L82.5627 128.537H72.6999H62.8237L62.1039 128.092C61.5575 127.769 61.2776 127.486 61.011 126.988L60.6378 126.315V119.38V112.432L61.0777 111.705C61.4109 111.126 61.6508 110.897 62.2372 110.6L62.9703 110.223H72.6999H82.4294L83.1625 110.6Z" fill="black"/>
<path d="M105.296 104.118C103.177 104.293 101.324 105.168 99.7114 106.757C98.4186 108.023 97.6855 109.302 97.2191 111.093C96.9791 111.995 96.9658 113.126 96.9658 137.755C96.9658 162.384 96.9791 163.515 97.2191 164.417C98.112 167.81 100.538 170.261 103.896 171.163C104.763 171.406 105.523 171.419 115.026 171.419C126.474 171.419 126.115 171.446 128.22 170.436C129.3 169.925 129.633 169.669 130.62 168.672C131.912 167.326 132.579 166.154 133.019 164.431C133.285 163.38 133.285 162.976 133.285 137.755C133.285 112.736 133.285 112.117 133.019 111.107C132.579 109.37 131.899 108.158 130.62 106.838C129.687 105.882 129.287 105.586 128.314 105.114C126.195 104.078 126.781 104.118 115.759 104.091C110.334 104.078 105.629 104.091 105.296 104.118ZM125.528 110.568C125.915 110.757 126.381 111.12 126.554 111.349C127.327 112.386 127.287 110.716 127.287 137.755C127.287 164.794 127.327 163.124 126.554 164.161C126.381 164.39 125.915 164.754 125.528 164.942L124.835 165.292H115.145C105.936 165.292 105.429 165.279 104.869 165.037C104.176 164.727 103.523 164.067 103.243 163.353C103.057 162.882 103.03 160.377 103.03 137.755C103.03 113.45 103.043 112.642 103.283 112.076C103.417 111.753 103.737 111.295 103.99 111.066C104.869 110.218 104.536 110.231 115.172 110.231L124.835 110.218L125.528 110.568Z" fill="black"/>
<path d="M19.4538 141C17.4946 141.418 16.255 142.118 14.7889 143.599C13.5761 144.838 13.0163 145.74 12.4965 147.316L12.1899 148.258V156.136V164.013L12.5098 164.956C13.0429 166.572 13.5894 167.433 14.7889 168.672C15.7486 169.642 16.1218 169.911 17.188 170.436C19.2805 171.446 18.9207 171.419 30.3829 171.419C39.8593 171.419 40.6456 171.406 41.4986 171.177C44.8973 170.261 47.2964 167.837 48.1894 164.417C48.416 163.555 48.4426 162.855 48.4426 156.068C48.4426 149.309 48.416 148.582 48.2027 147.787C47.443 145.067 45.6704 142.913 43.2446 141.741C41.2721 140.785 41.1921 140.785 30.143 140.798C22.2794 140.798 20.1469 140.839 19.4538 141ZM40.6456 147.248C41.352 147.612 41.8185 148.11 42.1251 148.824C42.365 149.389 42.3783 149.834 42.3783 156.136C42.3783 162.424 42.365 162.882 42.1251 163.434C41.9918 163.757 41.6719 164.202 41.432 164.444C40.4857 165.333 40.9389 165.306 30.103 165.265L20.2935 165.225L19.6404 164.821C19.2406 164.565 18.8407 164.161 18.5875 163.757L18.1876 163.098V156.149C18.1876 149.295 18.1876 149.187 18.4808 148.662C18.8274 148.003 19.2939 147.545 19.9469 147.235C20.4134 147.02 21.1998 147.006 30.2896 146.993C39.8593 146.979 40.1392 146.993 40.6456 147.248Z" fill="black"/>
<path d="M62.5704 140.869C62.4238 140.896 61.9706 140.99 61.5708 141.071C61.1709 141.152 60.2646 141.502 59.5715 141.839C58.532 142.35 58.1188 142.647 57.2258 143.549C56.6393 144.141 56.0662 144.801 55.9463 145.03C55.8397 145.246 55.5864 145.744 55.3998 146.121C55.1999 146.498 54.92 147.319 54.7734 147.939C54.5202 149.002 54.5068 149.514 54.5068 156.072C54.5068 164.636 54.5601 164.946 56.0662 167.275C57.5323 169.538 59.7581 170.951 62.4504 171.355C63.6766 171.53 81.723 171.53 82.9492 171.355C85.6415 170.951 87.8673 169.538 89.3334 167.275C90.8395 164.946 90.8928 164.636 90.8928 156.072C90.8928 149.514 90.8795 149.002 90.6262 147.939C89.9865 145.272 88.2405 143.024 85.9081 141.852C83.8155 140.815 84.5486 140.883 73.0997 140.842C67.4618 140.829 62.717 140.842 62.5704 140.869ZM83.2557 147.387C83.7755 147.683 84.0688 147.979 84.362 148.504L84.7618 149.204V156.139V163.088L84.3353 163.815C83.9888 164.38 83.7356 164.636 83.1758 164.919L82.4694 165.296H72.6998H62.9303L62.2239 164.919C61.6641 164.636 61.4108 164.38 61.0776 163.815L60.6378 163.088V156.139V149.204L61.011 148.531C61.2776 148.033 61.5574 147.75 62.1039 147.427L62.8236 146.983H72.6998H82.5627L83.2557 147.387Z" fill="black"/>
</svg>
