<svg width="184" height="131" viewBox="0 0 184 131" fill="none" xmlns="http://www.w3.org/2000/svg">
<path d="M87.9262 0.162937C79.76 1.02122 72.4016 5.48933 67.921 12.2798C65.6617 15.7256 64.3238 19.2344 63.6801 23.5006C63.4277 25.2298 63.4908 30.0134 63.7937 31.5912C64.4122 34.7719 65.3336 37.4098 66.6336 39.7953C69.4482 44.9198 73.5881 48.9082 78.7124 51.4074C83.1805 53.5909 88.0271 54.5376 92.8107 54.1463C100.485 53.5026 107.149 50.0947 111.907 44.3392C115.05 40.54 116.905 36.5137 117.801 31.5912C118.18 29.5464 118.205 24.8385 117.852 22.8821C116.817 17.0887 114.444 12.4061 110.405 8.19039C108.575 6.29712 105.735 4.22715 103.35 3.05332C102.58 2.67467 101.835 2.29602 101.709 2.23291C101.255 1.98047 98.6924 1.12219 97.6826 0.869757C95.8904 0.440616 95.2972 0.339642 93.5428 0.150315C91.5107 -0.0516331 89.9835 -0.0516331 87.9262 0.162937ZM94.1738 6.20877C101.179 7.39522 106.846 11.5099 109.989 17.7072C112.563 22.7812 112.942 28.8144 111.011 34.1534C109.673 37.8642 107.591 40.7924 104.448 43.4051C99.8914 47.1917 93.6185 48.9587 87.8631 48.0752C84.5941 47.583 82.3096 46.7625 79.659 45.1722C78.094 44.2256 76.8949 43.2916 75.6328 42.0041C74.5725 40.9439 72.8434 38.8613 72.8434 38.6467C72.8434 38.6089 72.6793 38.3438 72.4774 38.0535C71.7327 36.968 70.6599 34.532 70.155 32.7902C69.4987 30.5309 69.221 27.7541 69.4356 25.5075C69.7763 21.7714 70.887 18.5529 72.8434 15.612C76.5289 10.071 82.4232 6.58742 89.1252 5.98158C90.1223 5.89322 93.0631 6.03206 94.1738 6.20877Z" fill="black"/>
<path d="M145.858 18.6024C145.657 18.6276 145 18.716 144.407 18.7917C141.731 19.1451 138.45 20.2937 136.392 21.619C136.001 21.8588 135.673 22.0608 135.635 22.0608C135.42 22.0608 133.275 23.853 132.215 24.9007C129.488 27.6143 127.772 30.6057 126.737 34.4301C126.245 36.2603 126.068 37.5982 126.068 39.6681C126.08 41.7507 126.245 43.0886 126.737 44.9062C127.494 47.7335 128.542 49.917 130.246 52.2268C131.129 53.4259 133.338 55.6221 134.562 56.5308C137.541 58.7523 141.113 60.1533 144.899 60.6329C146.755 60.8601 147.891 60.8601 149.809 60.6203C158.581 59.5348 165.75 53.3501 167.946 44.9693C169.423 39.3273 168.464 33.3068 165.27 28.3464C162.065 23.3356 156.625 19.8015 150.655 18.8296C149.506 18.6529 146.553 18.5014 145.858 18.6024ZM148.61 24.5851C152.447 24.9007 155.514 26.3395 158.291 29.1163C162.052 32.8902 163.516 38.1283 162.254 43.2653C161.572 45.9916 160.335 48.1626 158.228 50.2831C155.943 52.5802 153.507 53.8929 150.276 54.5745C148.875 54.8648 145.833 54.8648 144.432 54.5745C138.273 53.287 133.704 48.882 132.341 42.8993C132.101 41.8265 132.038 41.1954 132.038 39.7691C132.025 37.1564 132.442 35.301 133.54 33.0417C135.799 28.3716 140.658 25.0395 145.858 24.5977C146.49 24.5346 147.02 24.4841 147.058 24.4841C147.095 24.4715 147.79 24.522 148.61 24.5851Z" fill="black"/>
<path d="M33.4646 20.227C24.9576 21.4008 17.8896 27.636 15.7439 35.8528C15.2012 37.8975 15.1002 38.8063 15.1128 41.1791C15.1128 43.5016 15.2643 44.688 15.7818 46.6065C17.5614 53.2456 22.7867 58.7992 29.3626 61.0206C32.051 61.9294 33.6792 62.207 36.3044 62.207C39.2453 62.207 41.7948 61.7022 44.4454 60.6167C46.0483 59.973 46.6541 59.6322 48.2571 58.572C51.7532 56.2496 54.795 52.4883 56.1456 48.8153C56.3096 48.3609 56.4863 47.8813 56.5494 47.7425C56.966 46.758 57.4203 44.5365 57.5718 42.7064C57.9126 38.4781 56.764 33.7575 54.5174 30.1603C52.0562 26.235 48.358 23.1552 44.1298 21.5144C43.5114 21.2746 42.8803 21.0474 42.7414 21.0095C42.6026 20.9843 42.0599 20.8328 41.5424 20.694C39.2705 20.0755 35.9889 19.8862 33.4646 20.227ZM40.2045 26.4748C44.3822 27.5476 47.8532 30.2613 49.9357 34.0731C52.094 38.0237 52.2455 43.3122 50.327 47.3764C48.1182 52.0465 43.9784 55.2146 38.9676 56.0728C37.554 56.3127 35.0801 56.3127 33.7044 56.0728C32.0762 55.7952 30.3092 55.1767 28.9713 54.432C25.6897 52.5892 23.2032 49.7493 21.9411 46.4046C19.8459 40.851 21.2469 34.6032 25.5256 30.4254C27.6587 28.3302 30.1325 26.9796 32.9597 26.3486C34.4617 26.0204 34.8025 25.9951 36.8724 26.033C38.4249 26.0709 38.9297 26.134 40.2045 26.4748Z" fill="black"/>
<path d="M88.8717 57.7913C81.791 58.2583 75.4676 59.9622 69.3083 63.0672C64.8024 65.3265 60.5868 68.3052 57.2168 71.5869C56.5731 72.218 55.9673 72.7733 55.8916 72.8238C55.7906 72.8743 55.3993 72.7102 54.9702 72.4325C51.8527 70.4762 47.1953 68.7217 43.0554 67.9518C37.5903 66.9421 31.2543 67.2576 26.0794 68.8101C24.8804 69.1761 23.9716 69.4791 23.5551 69.6558C23.4163 69.7062 22.7978 69.9587 22.1667 70.2111C18.7968 71.5743 14.6822 74.1744 12.0064 76.6482C7.84126 80.4726 4.92568 84.5495 2.85574 89.3962C1.75767 91.9584 0.785805 95.3285 0.520752 97.4868C0.445023 98.1052 0.293564 99.0393 0.192592 99.5567C-0.0724614 100.958 -0.0598398 114.236 0.205213 114.703C0.306186 114.88 0.381915 115.119 0.394537 115.246C0.394537 115.687 1.15183 117.088 1.79553 117.858C2.5402 118.767 3.31012 119.348 4.42082 119.89C6.14997 120.736 4.86257 120.686 24.2367 120.723C33.9174 120.749 41.869 120.787 41.8943 120.824C41.9321 120.85 41.97 121.064 41.9952 121.291C42.1215 122.541 42.2098 123.033 42.4749 123.778C43.6739 127.186 46.5642 129.597 50.1109 130.177C51.7643 130.442 132.113 130.442 133.64 130.177C136.569 129.66 139.219 127.766 140.57 125.229C141.352 123.765 141.617 122.642 141.718 120.357L141.794 118.502L159.477 118.464C179.141 118.414 177.639 118.489 179.482 117.568C180.681 116.975 182.208 115.422 182.814 114.185C183.067 113.668 183.281 113.125 183.281 112.986C183.281 112.847 183.369 112.62 183.47 112.481C183.735 112.128 183.748 98.7111 183.483 97.2848C183.382 96.7673 183.205 95.7071 183.092 94.9498C181.994 87.6923 177.904 80.1697 172.174 74.8812C171.732 74.4647 171.278 74.0481 171.164 73.9472C170.42 73.253 168.337 71.7005 166.961 70.8296C162.367 67.9013 157.533 66.1721 151.601 65.3391C150.011 65.1119 144.886 65.1119 143.145 65.3391C137.275 66.0838 131.684 68.1159 127.33 71.0568C126.926 71.3345 126.547 71.5364 126.484 71.5112C126.421 71.4859 126.131 71.2461 125.828 70.9684C123.96 69.2266 121.789 67.5479 119.315 65.9323C116.652 64.1905 114.746 63.1429 111.717 61.7798C108.132 60.1768 102.97 58.7379 98.6535 58.1699C95.599 57.766 91.6106 57.602 88.8717 57.7913ZM96.6971 63.9128C98.6408 64.1148 99.7137 64.2915 101.935 64.809C110.429 66.7527 118.305 71.3345 124.225 77.7716C127.216 81.0406 129.236 83.9436 131.154 87.7554C133.88 93.1323 135.294 98.3451 135.698 104.479C135.9 107.508 135.849 120.837 135.635 121.657C135.319 122.831 134.549 123.664 133.3 124.182C132.631 124.447 51.0449 124.447 50.376 124.182C49.139 123.677 48.3565 122.831 48.0536 121.67C47.839 120.862 47.7759 107.307 47.9779 104.378C48.5711 95.745 51.575 87.7175 56.7372 80.9396C58.8072 78.2259 62.0004 75.0074 64.6131 72.9753C65.85 72.016 66.0898 71.8646 68.0462 70.6024C73.0695 67.3712 78.0803 65.4148 84.2018 64.2915C87.9125 63.6099 92.4563 63.4711 96.6971 63.9128ZM150.616 71.2209C156.385 71.8267 161.787 74.0481 166.431 77.6958C167.567 78.592 170.294 81.3183 171.19 82.4542C174.345 86.4806 176.428 91.0875 177.286 95.9469C177.652 98.0169 177.74 100.137 177.702 105.741C177.665 111.32 177.665 111.358 177.387 111.749C176.768 112.62 178.094 112.557 159.022 112.532L141.819 112.494L141.744 108.266C141.643 102.977 141.352 100.125 140.595 96.7168C140.456 96.0858 140.305 95.3789 140.242 95.1391C139.913 93.574 138.765 90.1788 137.806 87.9447C136.19 84.1203 133.489 79.5765 131.116 76.6861C130.851 76.3579 130.662 76.0298 130.7 75.9666C130.813 75.7899 132.378 74.8938 133.918 74.1365C139.017 71.6248 144.848 70.6024 150.616 71.2209ZM39.4962 73.4297C41.9952 73.6947 44.6963 74.3384 47.0691 75.2093C48.9119 75.8909 51.7643 77.3172 51.7643 77.557C51.7643 77.658 51.6003 77.9609 51.3983 78.2133C50.9313 78.8065 49.0002 81.76 48.5458 82.5805C46.0089 87.1369 44.5953 90.6584 43.3079 95.644C42.9797 96.8936 42.5127 99.6072 42.2855 101.513C42.071 103.23 42.0079 104.757 41.9574 109.175L41.8816 114.703H24.527H7.1597L6.74319 114.425C5.89754 113.845 5.92278 114.021 5.98589 106.713C6.03638 100.731 6.06162 99.9859 6.30143 98.6732C7.05873 94.4828 7.99272 91.8953 10.1131 88.134C10.517 87.402 11.9559 85.3572 12.6753 84.4737C13.6598 83.262 15.8812 81.0532 17.1307 80.0435C20.7026 77.1657 25.0697 75.0453 29.4242 74.0608C30.7116 73.7705 32.6805 73.4423 33.4631 73.3918C34.8514 73.2908 38.3728 73.3161 39.4962 73.4297Z" fill="black"/>
</svg>
