<svg width="184" height="138" viewBox="0 0 184 138" fill="none" xmlns="http://www.w3.org/2000/svg">
<path d="M48.1029 0.278047C47.3707 0.644123 46.7017 1.32578 46.323 2.0958C46.0832 2.60073 46.02 2.89107 46.0327 3.72421C46.0453 4.62046 46.121 4.93605 46.7143 6.50134C47.8378 9.54355 48.1786 10.4651 49.1127 13.0655C49.6051 14.454 50.1731 16.0193 50.3751 16.5369C52.2812 21.5862 54.7301 28.9077 55.8157 32.8209C56.6867 35.9263 56.6489 35.6485 56.207 35.9641C55.9924 36.103 55.7905 36.2292 55.7526 36.2292C55.5759 36.2292 49.3652 39.2841 47.7873 40.1424C47.3707 40.3697 46.4871 40.8367 45.8307 41.1902C43.8614 42.2127 40.4658 44.245 38.3829 45.6336C37.31 46.3531 36.3253 46.9843 36.2117 47.0221C36.0729 47.0853 35.934 46.9969 35.7825 46.7444C33.4094 42.9574 29.3825 39.0695 25.3178 36.6458C20.5588 33.7929 15.9892 32.1898 9.28622 31.0032C7.74618 30.7255 4.14854 30.4856 3.27753 30.5992C2.00258 30.7633 0.576143 31.9373 0.311054 33.0481C0.260561 33.2375 0.172198 33.4521 0.109081 33.5278C0.0459645 33.6162 0.0207179 34.9164 0.0459645 36.4312C0.0838344 39.0442 0.273184 41.43 0.702376 44.4344C0.803363 45.1665 0.980089 46.4415 1.08108 47.2746C1.19469 48.1077 1.39666 49.2438 1.52289 49.7993C1.66175 50.3547 2.00258 51.7685 2.28029 52.9551C2.57063 54.1291 2.99982 55.606 3.22704 56.2372C3.45426 56.8557 3.84558 57.9413 4.08542 58.6356C4.32526 59.3299 4.9943 60.8573 5.56235 62.0439C7.39273 65.8435 9.63967 69.1508 12.0886 71.7007C12.4547 72.0794 12.7576 72.4707 12.7576 72.5591C12.7576 72.6601 12.4547 73.0514 12.076 73.4427C11.6973 73.8467 11.0535 74.5662 10.6495 75.0585C9.24835 76.7879 8.59194 77.621 8.59194 77.6715C8.59194 77.7094 8.12488 78.492 7.54421 79.4262C6.97616 80.3603 6.40811 81.307 6.2945 81.5469C3.84558 86.6214 2.89883 89.3481 1.54814 95.2432C1.39666 95.8617 1.19469 97.0609 1.08108 97.894C0.980089 98.7272 0.828609 99.7749 0.752869 100.217C0.210067 103.575 -0.206502 110.959 0.109081 111.653C0.172198 111.792 0.298431 112.07 0.37417 112.285C0.841233 113.433 1.8511 114.254 3.08818 114.481C3.84558 114.62 7.15288 114.468 8.46571 114.241C8.84441 114.178 9.72804 114.027 10.4223 113.926C11.1166 113.812 12.1138 113.61 12.6314 113.471C13.149 113.332 14.2346 113.055 15.0298 112.853C19.4227 111.729 24.308 109.407 27.9561 106.705C30.9604 104.471 33.3462 101.984 35.4796 98.8408C35.7573 98.4242 36.0476 98.0834 36.1107 98.0834C36.237 98.0834 36.8934 98.4873 39.1403 99.9516C41.5009 101.492 41.7912 101.668 43.306 102.502C44.1013 102.943 44.9344 103.398 45.1364 103.511C46.5628 104.307 46.9794 104.547 47.5979 104.9C47.9766 105.115 48.6962 105.481 49.2011 105.72C49.6934 105.96 51.5743 106.869 53.3668 107.74C55.1593 108.624 58.0122 109.937 59.7163 110.656C61.4205 111.388 63.2508 112.171 63.781 112.411C64.3238 112.651 64.8161 112.853 64.8792 112.853C65.1822 112.853 65.1317 113.168 64.7025 113.964C63.5538 116.059 62.4303 119.884 62.0642 122.951C61.938 123.885 61.7865 124.971 61.7234 125.35C61.5972 126.031 61.3447 130.702 61.3195 132.987C61.3069 133.605 61.3573 134.375 61.4078 134.691C61.6098 135.713 62.5061 136.761 63.6169 137.254C64.1092 137.468 64.4374 137.493 66.1416 137.481C68.7294 137.468 69.0702 137.443 73.4126 136.9C75.243 136.673 79.6611 135.827 81.744 135.31C85.0639 134.476 88.9393 133.151 91.3503 132.027C91.9689 131.75 92.7641 131.371 93.1049 131.22C93.4584 131.055 94.3673 130.576 95.1247 130.159C95.8695 129.73 96.5132 129.389 96.5385 129.389C96.5764 129.389 97.3085 128.897 98.1921 128.291C100.351 126.801 101.765 125.64 103.671 123.734L105.274 122.143L107.647 122.042C112.646 121.866 118.97 121.033 123.527 119.96C124.297 119.783 125.118 119.594 125.357 119.543C129.422 118.659 137.324 115.908 141.238 114.039C142.046 113.648 143.283 113.055 143.977 112.726C144.671 112.398 145.605 111.906 146.06 111.653C146.514 111.388 147.133 111.035 147.448 110.858C149.304 109.823 150.756 108.952 151.715 108.321C152.321 107.917 153.331 107.261 153.949 106.857C155.262 105.998 159.478 102.83 160.337 102.072C160.652 101.782 161.637 100.936 162.546 100.166C164.591 98.4242 168.075 95.0286 169.577 93.2865C170.221 92.5544 170.991 91.6708 171.319 91.3299C172.266 90.3074 172.733 89.752 173.591 88.6412C174.033 88.0605 174.677 87.2274 175.005 86.8108C176.848 84.4629 179.297 80.9031 180.963 78.1386C182.895 74.9449 183.147 74.5031 183.311 74.0486C183.399 73.7962 183.526 73.5942 183.576 73.5942C183.627 73.5942 183.677 73.1776 183.677 72.6601C183.677 71.8017 183.627 71.6376 183.109 70.6403C182.806 70.047 182.44 69.4033 182.314 69.2139C182.175 69.0119 181.708 68.2293 181.266 67.4719C180.256 65.7173 177.151 61.0971 175.699 59.2036C175.081 58.4084 174.374 57.4742 174.109 57.1334C173.856 56.7926 173.276 56.0857 172.821 55.5555C172.367 55.0253 171.874 54.4573 171.736 54.2805C171.584 54.1038 171.218 53.6746 170.928 53.3338C169.792 52.0083 166.396 48.4612 165.235 47.4135C164.856 47.0726 163.96 46.2395 163.227 45.5705C162.028 44.4596 160.501 43.172 159.314 42.2758C159.074 42.0864 158.746 41.8213 158.607 41.6825C158.102 41.2028 153.444 37.9207 151.866 36.9361C150.995 36.3933 150.011 35.7622 149.657 35.5349C148.66 34.8785 144.886 32.8462 143.093 32.0004C139.836 30.4477 139.395 30.2584 137.097 29.3495C133.184 27.7968 129.258 26.5598 125.231 25.5878C121.886 24.7799 119.298 24.2876 116.016 23.8584L113.302 23.4923L112.734 22.8233C110.197 19.8063 105.274 16.0572 100.729 13.6714C99.9342 13.2548 98.9243 12.712 98.4699 12.4722C98.0154 12.2197 96.8288 11.6769 95.819 11.2351C94.8091 10.8059 93.7614 10.3514 93.4836 10.2252C90.8832 9.06387 84.054 6.71593 80.4185 5.71869C79.5475 5.49147 78.4114 5.17589 77.8939 5.03703C77.3763 4.89818 76.6063 4.6962 76.1897 4.60784C75.7732 4.50685 74.5487 4.22914 73.4757 3.97667C65.8512 2.22204 60.6378 1.25004 55.1719 0.568383C54.2378 0.454773 52.9628 0.278047 52.3443 0.177061C51.7258 0.0760742 50.6402 0.000334346 49.9459 0.000334346C48.8855 0.000334346 48.5699 0.0508276 48.1029 0.278047ZM56.9266 8.47057C57.2169 8.53369 57.7849 8.63467 58.1889 8.69779C60.0445 8.9755 66.394 10.1495 67.8583 10.4777C71.9357 11.3992 73.5388 11.7779 75.3061 12.2449C76.3538 12.5227 77.4521 12.813 77.7676 12.8887C78.3736 13.0402 81.845 14.1006 84.0793 14.8327C84.8114 15.0726 86.1748 15.5522 87.1089 15.9057C88.043 16.2591 89.3306 16.7388 89.9491 16.9787C90.5803 17.2059 92.0825 17.8623 93.2943 18.4304C94.5061 18.9984 95.7054 19.5538 95.9452 19.6548C96.3618 19.8442 99.2273 21.5104 100.262 22.1669C100.527 22.331 100.793 22.4698 100.868 22.4698C100.931 22.4698 100.995 22.5708 100.995 22.697C100.995 22.9116 100.793 22.9495 99.1641 23.0757C93.9255 23.5049 87.6264 24.7546 80.6962 26.7491C77.2122 27.7464 72.4532 29.3369 70.6355 30.0943C70.3578 30.2205 69.3605 30.5992 68.4264 30.94C67.4923 31.2935 66.1037 31.8111 65.3463 32.0888C64.3743 32.4675 63.9325 32.5811 63.7936 32.4927C63.68 32.4296 63.4654 31.8868 63.3013 31.3061C63.1372 30.7128 62.8216 29.602 62.6071 28.8446C61.8244 26.0422 60.1708 21.1065 57.7597 14.3909C55.9419 9.29109 55.6769 8.54631 55.6769 8.4327C55.6769 8.29384 56.2449 8.30647 56.9266 8.47057ZM109.515 30.6876C110.008 30.7507 111.144 30.8643 112.04 30.94C112.949 31.0032 114.198 31.142 114.817 31.2304C117.279 31.5965 120.144 32.0761 120.561 32.1898C120.8 32.2655 121.772 32.4927 122.707 32.6947C129.763 34.2978 137.451 37.3148 144.229 41.1523C145.264 41.733 149.556 44.4722 150.289 45.015C150.705 45.318 151.185 45.6714 151.361 45.7851C154.644 48.032 160.703 53.3843 163.227 56.2372C163.53 56.578 164.212 57.3228 164.742 57.8782C165.26 58.4336 166.257 59.595 166.951 60.466C167.646 61.337 168.34 62.1827 168.504 62.3595C168.668 62.5362 169.021 62.9906 169.287 63.3693C169.564 63.748 170.246 64.72 170.827 65.5153C172.67 68.0778 175.346 72.2435 175.346 72.5465C175.346 72.8116 172.001 78.0502 170.801 79.6534C170.675 79.8301 170.17 80.5244 169.678 81.1934C169.186 81.8751 168.693 82.5315 168.605 82.6451C168.504 82.7713 167.81 83.6045 167.065 84.5134C163.947 88.313 159.958 92.4029 156.726 95.1043C156.171 95.5714 155.287 96.3035 154.77 96.7453C154.252 97.1745 153.167 98.0203 152.371 98.601C147.436 102.224 142.424 105.216 137.993 107.172C137.4 107.437 136.403 107.879 135.797 108.169C135.178 108.46 134.648 108.687 134.598 108.687C134.547 108.687 133.903 108.914 133.184 109.192C130.634 110.177 129.46 110.568 126.052 111.578C124.726 111.969 120.308 112.992 118.92 113.231C118.465 113.307 117.645 113.446 117.089 113.547C115.486 113.825 113.353 114.09 110.904 114.33C107.647 114.645 100.086 114.645 97.7756 114.33C94.6576 113.9 93.4836 113.724 92.6631 113.547C92.2087 113.446 91.3629 113.282 90.7696 113.168C85.5436 112.171 77.3763 109.659 70.6355 106.983C68.7672 106.238 66.7349 105.443 66.1416 105.216C64.9929 104.774 64.7656 104.673 62.3041 103.549C55.1341 100.267 55.7147 100.545 52.3948 98.7777C51.1072 98.096 49.5167 97.2629 48.8603 96.9094C48.2039 96.556 47.2319 96.0132 46.7143 95.685C46.1968 95.3568 44.9471 94.5867 43.9372 93.9808C41.4125 92.4408 39.6958 91.2289 38.3198 89.9919C36.6788 88.5276 35.3786 88.0226 34.0658 88.3508C32.6141 88.7169 32.0082 89.3228 30.9226 91.494C29.5592 94.208 27.3249 97.2629 25.8101 98.4873C25.4945 98.7524 24.8003 99.3457 24.2827 99.8128C23.7652 100.292 23.235 100.722 23.1214 100.785C23.0078 100.848 22.3513 101.277 21.6571 101.719C20.6219 102.401 17.605 103.953 16.6077 104.332C13.3257 105.556 8.40259 106.819 7.94815 106.528C7.82192 106.453 7.83454 105.935 7.99865 103.865C8.33947 99.8128 8.78129 97.1493 9.74066 93.539C10.3718 91.1153 11.6973 87.5177 12.4294 86.2175C14.7774 82.0266 15.8756 80.4234 17.6555 78.6056C18.5896 77.6463 20.0413 76.4597 20.9628 75.9043C22.1999 75.1469 22.8563 73.9855 22.8563 72.5717C22.8563 71.0822 22.3261 70.1733 20.8618 69.176C18.1099 67.2952 15.5221 64.4423 13.8685 61.4758C13.5781 60.9583 13.1742 60.2387 12.9722 59.8979C12.6693 59.3677 12.0507 58.0802 11.6215 57.1208C10.7758 55.2147 9.72804 51.819 9.1095 48.9788C8.45308 45.9113 8.3016 44.9393 8.02389 41.5941C7.92291 40.4075 7.82192 39.3093 7.78405 39.1326C7.67044 38.514 7.8093 38.4635 9.04638 38.6781C15.1687 39.8016 20.7482 42.3137 24.775 45.7851C27.7415 48.3223 29.2689 50.3042 31.0993 53.9776C32.1723 56.1109 33.119 56.8052 34.9873 56.8052C36.1107 56.8052 36.6914 56.5401 37.9411 55.4545C39.7084 53.9397 41.2863 52.7405 42.3593 52.1093C42.7758 51.8695 44.0508 51.0868 45.1869 50.3799C46.3104 49.673 48.1029 48.6253 49.1632 48.0699C50.211 47.5018 51.6879 46.7192 52.4327 46.3026C53.5814 45.6841 56.6741 44.1567 58.1384 43.475C64.0966 40.7357 64.9676 40.357 68.8682 38.8422C69.8402 38.4635 71.5696 37.7819 72.7183 37.3274C82.211 33.6162 93.7235 30.8643 100.931 30.5614C103.62 30.4604 108.417 30.5235 109.515 30.6876ZM75.3187 116.703C77.6793 117.473 81.845 118.735 83.2588 119.114C85.531 119.707 88.9014 120.502 90.1385 120.73C90.7318 120.843 91.4639 120.982 91.7795 121.058C92.0951 121.121 92.7389 121.235 93.2186 121.298C94.6197 121.5 94.6197 121.512 92.4738 122.825C91.4765 123.444 91.1862 123.595 89.5073 124.416C86.4398 125.918 83.1452 127.092 79.2193 128.051C76.0256 128.834 71.8852 129.515 69.9412 129.553L68.9944 129.579L69.0323 128.758C69.0954 127.597 69.5246 123.772 69.6887 122.951C70.1937 120.477 70.5471 119.354 71.2919 117.851C71.8852 116.678 72.428 115.882 72.6678 115.882C72.7309 115.882 73.9302 116.248 75.3187 116.703Z" fill="black"/>
<path d="M101.677 38.5756C100.844 38.9796 100.402 39.4592 99.6067 40.7721C97.6375 44.0163 95.1633 50.3027 94.1156 54.7208C93.6737 56.5764 93.3203 58.1291 93.1688 58.8234C92.8911 60.0731 92.159 65.8167 92.0327 67.6345C91.7676 71.636 91.9065 77.4554 92.3483 80.6617C93.0047 85.4333 93.4592 87.9201 93.9893 89.7505C94.0903 90.0661 94.2544 90.7477 94.368 91.2653C94.6457 92.5402 96.0343 96.769 96.3625 97.3245C96.7412 97.9682 97.3345 98.5742 97.8647 98.8519C100.074 99.988 102.712 98.7888 103.318 96.3777C103.558 95.4057 103.419 94.6231 102.46 91.7702C102.068 90.6341 101.753 89.599 101.753 89.4854C101.753 89.3718 101.677 88.9931 101.576 88.6649C101.222 87.4909 100.73 85.3828 100.617 84.5749C100.541 84.1205 100.402 83.1611 100.288 82.429C99.8087 79.1848 99.7329 78.4148 99.6067 75.827C99.3416 70.2096 99.8465 63.8601 100.945 59.0759C101.046 58.6214 101.21 57.8893 101.298 57.4348C101.639 55.8569 102.838 51.9942 103.457 50.492C103.697 49.8987 103.899 49.3812 103.899 49.3307C103.899 49.1918 105.098 46.6545 105.615 45.6952C106.726 43.6376 106.979 43.0064 107.029 42.0975C107.067 41.3527 107.029 41.1003 106.739 40.4565C106.31 39.4845 105.906 39.0553 104.972 38.6135C103.949 38.1212 102.636 38.1085 101.677 38.5756Z" fill="black"/>
<path d="M117.09 38.5552C116.193 38.9717 115.486 39.7417 114.679 41.1808C113.063 44.0589 111.51 47.7449 110.349 51.4436C109.781 53.2739 109.591 53.9682 108.998 56.5181C108.897 56.9599 108.733 57.6668 108.632 58.096C108.443 58.8913 107.786 63.2716 107.559 65.203C107.168 68.6239 107.054 73.6479 107.319 77.1951C107.496 79.6693 108.215 85.0342 108.632 86.9781C109.402 90.5758 109.654 91.4847 110.702 94.7415C112.002 98.7936 114.376 103.944 115.726 105.61C116.332 106.355 117.367 106.847 118.503 106.898C119.273 106.948 119.513 106.898 120.132 106.62C121.571 105.964 122.328 104.752 122.328 103.136C122.328 102.265 122.278 102.101 121.748 101.053C120.296 98.2381 119.501 96.5971 119.299 96.0164C119.172 95.663 118.92 95.0444 118.743 94.6531C118.339 93.7316 117.077 89.7679 116.774 88.4298C116.648 87.8744 116.408 86.7762 116.219 85.9935C116.042 85.1983 115.777 83.7466 115.638 82.7746C115.499 81.79 115.31 80.3888 115.196 79.6566C114.767 76.627 114.767 68.6365 115.196 65.5185C115.297 64.7864 115.474 63.5367 115.587 62.7414C116.395 56.8968 118.68 49.7142 121.116 45.3212C122.126 43.4909 122.328 42.9354 122.328 41.9887C122.328 39.767 120.801 38.2522 118.566 38.2522C117.948 38.2522 117.557 38.3279 117.09 38.5552Z" fill="black"/>
<path d="M136.909 53.5374C132.074 54.0803 129.019 58.9024 130.572 63.5225C131.367 65.8452 133.21 67.6503 135.558 68.3825C136.643 68.7107 139.042 68.6854 140.102 68.3193C141.289 67.9154 142.248 67.3221 143.107 66.4763C145.884 63.6866 146.124 59.3947 143.675 56.302C143.056 55.5319 142.728 55.2542 141.705 54.6104C140.292 53.7142 138.625 53.3481 136.909 53.5374Z" fill="black"/>
</svg>
