<svg width="184" height="161" viewBox="0 0 184 161" fill="none" xmlns="http://www.w3.org/2000/svg">
<path d="M38.699 0.515753C34.6422 1.7487 29.9093 5.8055 28.1593 9.50433C26.807 12.368 26.4093 14.3168 25.415 22.9872C24.9775 27.0042 24.4605 31.061 24.3014 31.936L24.0627 33.5269L18.4548 33.7258C13.0855 33.9246 12.8071 33.9644 10.1821 35.2769C7.23898 36.7882 3.739 40.2087 2.30719 42.9928C1.82993 43.9075 1.15379 45.8961 0.756069 47.4473C0.0401642 50.0723 0.000391726 53.0552 0.000391726 98.1572C0.000391726 149.623 -0.0791532 147.396 2.02879 151.492C4.09696 155.589 7.51739 158.492 11.8526 159.805C14.3583 160.6 15.7105 160.6 78.5112 160.6C148.471 160.6 144.176 160.719 148.749 158.412C152.408 156.543 156.107 152.407 157.499 148.668C157.778 147.913 158.096 145.606 158.255 143.538L158.494 139.839L160.681 139.163C165.374 137.691 167.96 135.822 170.306 132.202C172.931 128.106 172.891 128.384 175.795 102.731C179.414 70.6744 180.925 57.1915 182.198 46.453C182.874 40.6462 183.511 34.6405 183.63 33.1292C184.187 25.811 179.772 18.4134 173.13 15.3907C170.346 14.1179 167.363 13.6804 144.176 11.0555C136.301 10.1805 121.187 8.47026 110.568 7.27708C99.9486 6.08391 85.0339 4.37369 77.3578 3.49869C69.7215 2.66347 59.5796 1.4703 54.8864 0.913487C45.4603 -0.160367 41.2047 -0.279686 38.699 0.515753ZM57.8693 10.0611C64.4318 10.8168 77.676 12.3282 87.301 13.4418C96.9259 14.5554 110.886 16.1861 118.323 17.0213C125.761 17.8566 134.909 18.9304 138.607 19.3679C142.346 19.8054 150.181 20.7202 156.068 21.3963C167.96 22.7486 169.073 22.9474 170.942 24.2997C173.488 26.2088 174.602 28.3963 174.602 31.5383C174.602 33.4871 173.011 48.4416 171.022 64.7483C170.187 71.788 168.874 83.2027 166.05 108.1C165.056 116.731 164.102 124.487 163.863 125.282C163.187 127.629 160.403 130.373 158.693 130.373C158.414 130.373 158.295 118.004 158.295 90.2822C158.295 46.1746 158.374 47.8052 155.869 43.3507C153.443 39.1746 149.505 36.0326 144.693 34.5212C142.267 33.7655 140.835 33.7258 87.6191 33.7258C35.8752 33.7258 33.0115 33.686 33.0115 33.0099C33.0115 32.6519 33.5286 28.3565 34.1649 23.5043C35.1593 15.4702 35.3581 14.4759 36.432 12.7657C37.9433 10.2998 40.9263 8.66912 43.9092 8.66912C45.0228 8.66912 51.3069 9.30547 57.8693 10.0611ZM142.863 43.2712C145.568 44.3052 147.755 46.4927 148.749 49.1177C149.505 51.1461 149.545 52.2597 149.545 70.4358V89.6061L137.931 96.3674C131.528 100.066 120.392 106.589 113.153 110.805C105.676 115.18 99.1134 118.72 97.8804 119.078C95.1759 119.873 92.7498 119.595 89.9657 118.163C88.7725 117.487 82.7271 112.475 75.5283 106.112C62.2443 94.3788 59.8977 92.5493 56.7159 91.555C51.7046 89.9641 45.1819 90.5209 40.8069 92.9072C39.0172 93.8618 17.6991 109.174 11.4549 113.947C10.2219 114.862 9.10829 115.657 8.9492 115.657C8.82988 115.657 8.79011 100.862 8.82988 82.7255C8.9492 52.1802 8.98897 49.7143 9.6651 48.2825C10.7787 45.8166 12.131 44.2257 14.0003 43.3109L15.7105 42.4757H78.2328C139.522 42.4757 140.835 42.4757 142.863 43.2712ZM54.8466 100.305C55.8409 100.862 62.125 106.231 77.5965 119.873C80.3408 122.299 83.443 124.805 84.5169 125.401C88.9714 128.026 94.5793 128.941 99.5906 127.827C102.772 127.112 104.682 126.038 137.613 106.947L149.346 100.146L149.465 122.538L149.545 144.89L148.63 146.68C147.636 148.668 144.891 150.776 142.465 151.452C141.471 151.691 119.716 151.85 78.1533 151.85C17.898 151.85 15.2332 151.81 13.6821 151.094C11.6537 150.18 9.74465 147.873 9.18783 145.646C8.9492 144.691 8.75033 140.236 8.75033 135.424V126.952L11.256 125.123C12.6083 124.168 17.5798 120.509 22.273 117.049C40.6081 103.526 44.2274 100.941 45.4206 100.305C48.0058 98.9526 52.2216 98.9526 54.8466 100.305Z" fill="black"/>
<path d="M87.5014 57.5553C82.7287 59.0667 78.9105 62.2883 76.6435 66.703C74.7742 70.2428 74.2174 72.9075 74.4958 76.7654C75.0526 85.1972 81.8934 92.4756 90.4047 93.7881C99.8308 95.2596 109.336 88.5779 111.325 79.1518C113.274 69.9246 107.865 60.6974 98.757 57.5553C95.8536 56.561 90.5638 56.561 87.5014 57.5553ZM96.8877 66.3053C102.018 68.6519 104.285 74.737 101.819 79.6291C97.6831 87.8222 85.3934 86.3108 83.5241 77.362C81.9332 69.6859 89.8479 63.1235 96.8877 66.3053Z" fill="black"/>
</svg>
