<svg width="125" height="230" viewBox="0 0 125 230" fill="none" xmlns="http://www.w3.org/2000/svg">
<path d="M60.6844 27.2389C60.2085 27.5562 59.6973 27.9616 59.5563 28.1731C59.4153 28.367 58.9393 28.9487 58.4986 29.4599C57.6173 30.4823 56.5596 31.7691 55.4844 33.1264C55.1142 33.6023 54.5325 34.3251 54.1976 34.7129C53.8803 35.1007 53.5101 35.6119 53.3867 35.8586C53.2633 36.1054 52.8755 36.6342 52.523 37.0573C51.3772 38.4499 50.4782 39.5428 49.8965 40.3007C49.5792 40.7238 49.0504 41.4113 48.7155 41.852C48.3805 42.2926 47.9927 42.892 47.8517 43.174C47.7107 43.4737 47.4287 43.8615 47.2171 44.0554C47.0056 44.2493 46.7236 44.6195 46.5825 44.8839C46.4592 45.1306 46.0361 45.7123 45.6835 46.153C44.3086 47.81 43.3215 49.132 42.6869 50.2073C42.5106 50.4717 42.1404 51.0006 41.8408 51.3707C41.5587 51.7233 40.9242 52.6046 40.4306 53.2921C39.9547 53.9972 39.3377 54.8257 39.0909 55.1254C38.8265 55.4426 38.5621 55.8833 38.4916 56.1301C38.4211 56.3769 38.1919 56.7647 37.9628 57.0115C37.7512 57.2583 37.3811 57.7342 37.1519 58.0867C35.7417 60.202 35.3892 60.6956 35.2305 60.8014C35.1248 60.8719 34.9309 61.2068 34.7898 61.5593C34.6312 61.9119 34.402 62.2997 34.2786 62.3878C34.1376 62.4936 33.8027 62.9343 33.5207 63.3926C32.7274 64.6794 32.0223 65.6841 31.4935 66.3187C31.2291 66.636 31 67.0062 31 67.1296C31 67.2706 30.7355 67.6937 30.4359 68.0815C30.1186 68.4869 29.5369 69.3154 29.1491 69.9676C28.7613 70.6022 28.2325 71.413 27.968 71.7656C27.686 72.1005 27.4745 72.5059 27.4745 72.6293C27.4745 72.7527 27.2806 73.07 27.0514 73.352C26.8223 73.6341 26.2229 74.5331 25.7117 75.3439C25.2182 76.1724 24.6717 77.0009 24.4955 77.1948C24.3192 77.3887 24.09 77.8118 23.9843 78.1291C23.8785 78.4464 23.6141 78.9223 23.4202 79.1867C22.8032 79.9623 21.8337 81.5664 21.8337 81.7955C21.8337 81.9189 21.6398 82.2362 21.4283 82.5183C21.1991 82.7827 20.6351 83.6993 20.1767 84.5454C19.7184 85.3915 19.2778 86.1319 19.1896 86.1848C19.1191 86.2376 18.6432 87.0661 18.1496 88.0533C17.656 89.0228 17.092 90.0275 16.8981 90.2743C16.7042 90.5211 16.5455 90.856 16.5455 91.0147C16.5455 91.1733 16.3164 91.6316 16.0519 92.037C15.0824 93.5354 14.6418 94.311 14.5184 94.7164C14.4479 94.9279 14.2011 95.4039 13.9719 95.7388C13.7428 96.0913 13.5489 96.4439 13.5489 96.532C13.5489 96.6378 13.3902 96.9198 13.2139 97.1842C13.0377 97.431 12.7909 97.9775 12.6851 98.3829C12.5794 98.7883 12.4031 99.1761 12.3326 99.229C12.2444 99.2819 11.8743 99.9341 11.5217 100.692C10.041 103.795 9.75897 104.359 9.45931 104.764C9.28303 104.993 9.14201 105.381 9.14201 105.61C9.14201 105.857 9.03625 106.262 8.89523 106.509C8.15488 107.902 7.16775 110.264 6.93859 111.127C6.86809 111.374 6.69181 111.762 6.53316 112.009C6.09248 112.679 5.47552 114.248 5.35213 115.023C5.28162 115.393 5.17586 115.746 5.08772 115.799C4.99958 115.852 4.89382 116.204 4.82331 116.592C4.7528 116.98 4.62941 117.332 4.5589 117.385C4.47076 117.438 4.18873 118.178 3.94194 119.025C3.69516 119.871 3.28973 121.157 3.04295 121.88C2.39073 123.819 2.1087 124.947 1.82666 126.692C1.57987 128.173 1.38597 129.072 1.03343 130.253C0.94529 130.535 0.698506 131.699 0.486978 132.809C-0.165235 136.352 -0.165235 145.765 0.504605 148.938C0.592742 149.414 0.804271 150.489 0.94529 151.318C1.08631 152.146 1.28021 153.169 1.38597 153.609C1.47411 154.05 1.65038 154.79 1.73852 155.284C2.12632 157.258 2.56701 158.739 3.06057 159.867C3.20159 160.149 3.43075 160.872 3.58939 161.454C3.74804 162.035 4.06533 162.899 4.27686 163.393C5.15823 165.261 5.44027 165.966 5.44027 166.195C5.44027 166.319 5.63417 166.707 5.86333 167.059C6.09248 167.394 6.33926 167.87 6.40977 168.082C6.48028 168.311 6.69181 168.716 6.86809 168.963C7.04436 169.21 7.23826 169.633 7.30877 169.932C7.37928 170.214 7.59081 170.637 7.76708 170.884C8.38404 171.713 9.24778 173.105 9.47694 173.669C9.60033 173.969 9.82948 174.322 9.9705 174.427C10.1115 174.551 10.3936 174.974 10.5875 175.362C10.7814 175.767 11.2044 176.384 11.5041 176.737C11.8037 177.089 12.3678 177.794 12.7556 178.288C15.5407 181.884 18.4493 185.021 20.9347 187.101C21.4459 187.542 22.292 188.247 22.8032 188.688C23.3144 189.129 24.1429 189.798 24.6365 190.186C25.13 190.574 25.9056 191.191 26.3463 191.544C26.787 191.914 27.2629 192.213 27.3863 192.213C27.5274 192.213 27.8975 192.443 28.2148 192.725C28.5321 193.007 29.0786 193.359 29.4135 193.518C29.7484 193.659 30.5064 194.117 31.0881 194.505C31.6698 194.893 32.4278 195.333 32.7627 195.474C34.0319 196.056 35.6007 196.867 35.6888 196.99C35.7241 197.061 36.059 197.22 36.4292 197.325C37.1872 197.572 38.3858 198.083 39.2848 198.542C39.6197 198.718 40.3777 199 40.9594 199.159C41.5411 199.335 42.4225 199.617 42.8984 199.793C44.8022 200.481 45.948 200.816 46.9527 201.027C48.2219 201.274 49.3677 201.521 50.2138 201.732C50.5487 201.803 51.4301 201.961 52.1528 202.085C52.8755 202.19 53.7921 202.367 54.1799 202.455C55.784 202.843 62.0946 203.037 66.0255 202.825C68.1408 202.719 70.1856 202.561 70.5734 202.455C70.9612 202.367 71.8426 202.208 72.5124 202.085C73.1999 201.979 74.0989 201.803 74.5395 201.715C75.6324 201.468 76.5491 201.274 77.8006 201.027C78.8054 200.816 79.9512 200.481 81.8549 199.793C82.3485 199.617 83.2122 199.335 83.7939 199.159C84.3756 199 85.1336 198.718 85.4685 198.542C86.5438 197.995 87.6543 197.537 88.236 197.413C88.5533 197.343 88.853 197.237 88.9059 197.149C89.0469 196.92 91.5852 195.563 91.8672 195.563C92.0083 195.563 92.3432 195.386 92.6076 195.157C93.2246 194.681 94.4761 193.941 95.428 193.483C95.8158 193.289 96.2565 193.007 96.3799 192.848C96.5209 192.672 96.9263 192.407 97.2965 192.231C97.649 192.055 98.2836 191.649 98.689 191.314C99.0945 190.979 99.7819 190.433 100.205 190.098C102.549 188.23 103.131 187.754 104.876 186.167C105.934 185.198 107.185 183.981 107.644 183.453C108.102 182.906 108.666 182.254 108.913 181.99C109.16 181.707 109.794 180.967 110.323 180.333C110.852 179.68 111.628 178.764 112.051 178.27C112.456 177.794 112.791 177.336 112.791 177.265C112.791 177.195 113.073 176.825 113.408 176.455C113.743 176.067 114.025 175.661 114.025 175.538C114.025 175.397 114.254 175.044 114.536 174.727C114.818 174.41 115.188 173.863 115.365 173.511C116.158 171.995 116.563 171.29 116.951 170.831C117.18 170.549 117.374 170.232 117.374 170.126C117.374 169.88 118.344 167.94 118.925 167.006C119.137 166.671 119.313 166.284 119.313 166.142C119.313 165.878 119.789 164.768 120.353 163.657C120.529 163.322 120.847 162.441 121.058 161.718C121.27 160.995 121.516 160.22 121.605 160.008C122.045 158.933 122.662 156.923 122.839 155.989C123.068 154.79 123.297 153.768 123.544 152.675C123.72 151.9 124.125 149.661 124.46 147.528C124.584 146.841 124.672 143.914 124.672 140.918C124.689 135.154 124.601 134.219 123.72 130.429C123.438 129.266 123.121 127.75 123.015 127.08C122.768 125.511 122.239 123.467 121.763 122.233C121.569 121.704 121.199 120.523 120.97 119.624C120.741 118.725 120.441 117.808 120.3 117.597C120.177 117.385 119.877 116.61 119.666 115.887C119.119 114.071 118.837 113.296 118.326 112.309C118.097 111.85 117.744 110.986 117.533 110.37C117.321 109.77 116.81 108.554 116.387 107.655C115.964 106.756 115.611 105.91 115.611 105.769C115.611 105.451 114.624 103.477 114.166 102.86C113.99 102.631 113.849 102.314 113.849 102.138C113.849 101.855 112.985 100.075 112.386 99.1233C112.244 98.8941 112.068 98.471 112.015 98.189C111.945 97.907 111.733 97.4663 111.539 97.2371C111.363 96.9903 111.204 96.7083 111.204 96.6025C111.204 96.4968 110.958 96.0561 110.676 95.633C110.376 95.21 110.147 94.734 110.147 94.5754C110.147 94.4167 109.918 93.9584 109.653 93.553C108.56 91.8432 108.208 91.2438 108.208 90.997C108.208 90.856 108.014 90.4682 107.767 90.1509C107.52 89.816 107.027 88.9523 106.674 88.2119C106.322 87.4892 105.846 86.6431 105.634 86.361C105.44 86.0614 104.929 85.2153 104.524 84.4573C104.101 83.7169 103.589 82.8708 103.343 82.5888C103.114 82.3067 102.92 81.9895 102.92 81.8661C102.92 81.6369 101.774 79.6803 101.316 79.1338C101.157 78.9399 100.857 78.4287 100.646 77.988C100.434 77.5474 100.099 76.948 99.8701 76.6307C99.1826 75.626 97.7372 73.4049 97.2789 72.6117C97.0321 72.1886 96.6795 71.6246 96.5033 71.3601C96.3093 71.0781 95.8863 70.3906 95.5337 69.8266C95.1812 69.2625 94.6876 68.5398 94.4409 68.2401C94.1764 67.9228 93.8415 67.394 93.6829 67.0591C93.5242 66.7242 93.0307 65.9662 92.6076 65.3845C92.1669 64.8028 91.6734 64.0977 91.4971 63.8156C91.3384 63.5336 90.9859 63.04 90.7038 62.7404C90.4394 62.4231 90.1045 61.8766 89.9635 61.5417C89.8225 61.1892 89.6286 60.8719 89.5228 60.8014C89.3465 60.6956 88.4123 59.3383 87.6543 58.1396C87.4604 57.8047 87.1255 57.364 86.9316 57.1525C86.7377 56.9234 86.3851 56.4298 86.1912 56.042C85.9797 55.6542 85.4861 54.8962 85.0983 54.3674C84.7105 53.8386 84.1817 53.063 83.8997 52.6751C83.6353 52.2697 83.1946 51.6704 82.9302 51.3531C82.3837 50.6833 81.7491 49.7666 81.2908 49.0087C81.1146 48.7266 80.6739 48.1449 80.3213 47.7219C79.9512 47.2988 79.6515 46.8757 79.6515 46.8052C79.6515 46.7347 79.44 46.4351 79.1755 46.1354C78.5938 45.4832 77.5891 44.1259 77.0955 43.3503C76.9016 43.033 76.4786 42.4865 76.1789 42.134C75.8616 41.7814 75.5972 41.4113 75.5972 41.3231C75.5972 41.235 75.2975 40.8119 74.945 40.3712C74.5748 39.9306 73.9226 39.1197 73.4819 38.5733C73.0412 38.0268 72.4419 37.3041 72.1599 36.9515C71.8602 36.5814 71.4019 35.982 71.1375 35.5942C69.9388 33.8668 69.5157 33.3027 69.3218 33.1793C69.2161 33.1088 68.8635 32.6505 68.5462 32.1569C68.2289 31.681 67.9117 31.2755 67.8235 31.2755C67.753 31.2755 67.4533 30.923 67.1537 30.5176C66.8716 30.0945 66.3604 29.4775 66.0432 29.1426C65.7082 28.8077 65.3204 28.3846 65.1794 28.1731C65.056 27.9616 64.5272 27.5562 64.0336 27.2389C62.8173 26.4985 61.8831 26.4985 60.6844 27.2389ZM63.6635 37.8682C63.9279 38.1678 64.4743 38.8729 64.8445 39.4194C65.2323 39.9658 65.6201 40.477 65.7259 40.5299C65.8316 40.5828 66.1842 41.0587 66.5191 41.5523C67.4005 42.8567 67.9822 43.6323 68.4405 44.1435C68.652 44.3903 69.0222 44.8839 69.269 45.2364C69.4981 45.6066 69.7449 45.9062 69.8154 45.9062C69.8683 45.9062 70.2208 46.3117 70.6086 46.8052C70.9788 47.2988 71.6134 48.1625 72.0188 48.709C72.4419 49.2554 72.9178 49.9253 73.0765 50.2073C73.2528 50.4717 73.6582 51.0182 73.9755 51.406C74.2751 51.7938 74.5395 52.1816 74.5395 52.2697C74.5395 52.3579 74.804 52.728 75.1389 53.0806C75.4562 53.4508 75.9321 54.0677 76.1965 54.4555C76.884 55.4779 77.4657 56.3064 77.9769 57.0115C78.5057 57.7166 79.0522 58.4922 79.8983 59.7437C80.2332 60.2373 80.621 60.7485 80.7796 60.8719C80.9383 60.9953 81.0617 61.2068 81.0617 61.3126C81.0617 61.4183 81.379 61.9295 81.7668 62.4583C82.1546 62.9695 82.4719 63.4807 82.4719 63.5689C82.4719 63.6746 82.6834 64.0095 82.9654 64.3445C83.6176 65.1377 85.4156 67.7642 86.015 68.8218C86.156 69.0862 86.4909 69.5622 86.7553 69.8794C87.0197 70.1791 87.2313 70.4964 87.2313 70.5669C87.2313 70.655 87.5133 71.0605 87.8482 71.4835C88.1831 71.9066 88.4652 72.3297 88.4652 72.4354C88.4652 72.5236 88.7472 72.9642 89.0821 73.3697C89.417 73.7927 89.7343 74.3216 89.8048 74.5154C89.8754 74.727 90.0693 75.0972 90.2632 75.3439C90.8977 76.1724 91.9906 77.9528 91.9906 78.1291C91.9906 78.2348 92.2374 78.605 92.5195 78.9399C92.8191 79.2572 93.1717 79.8037 93.3127 80.1209C93.4713 80.4559 93.771 80.9671 93.9825 81.2667C94.1941 81.584 94.5114 82.06 94.67 82.3244C94.8463 82.6064 95.0578 82.959 95.1459 83.1C95.2517 83.241 95.428 83.5583 95.5514 83.8227C95.8334 84.3515 96.3446 85.2153 96.9087 86.079C97.1378 86.4316 97.4022 86.9427 97.508 87.2424C97.5961 87.5244 97.8606 87.9651 98.0545 88.2119C98.266 88.4587 98.7948 89.3224 99.2002 90.1509C99.6233 90.9794 100.117 91.8079 100.293 92.0194C100.487 92.2133 100.628 92.4425 100.628 92.5482C100.628 92.795 101.809 95.1042 102.109 95.4215C102.267 95.5978 102.497 96.0561 102.655 96.4791C102.796 96.8846 103.078 97.431 103.272 97.6778C103.466 97.9246 103.625 98.2243 103.625 98.33C103.625 98.4534 103.819 98.806 104.048 99.1233C104.295 99.4582 104.541 99.9694 104.612 100.269C104.682 100.569 104.876 101.009 105.053 101.239C105.246 101.468 105.387 101.75 105.387 101.873C105.387 101.997 105.581 102.384 105.828 102.737C106.075 103.089 106.269 103.477 106.269 103.583C106.269 103.865 107.644 106.668 107.838 106.791C107.926 106.862 108.067 107.161 108.12 107.461C108.243 108.025 108.525 108.66 109.336 110.246C109.565 110.687 109.882 111.48 110.059 112.009C110.235 112.538 110.711 113.683 111.116 114.565C111.539 115.429 111.927 116.416 111.998 116.733C112.068 117.05 112.315 117.808 112.562 118.408C113.355 120.347 113.849 121.792 113.849 122.145C113.849 122.48 114.413 124.084 114.765 124.771C114.994 125.229 115.558 127.433 115.699 128.49C115.752 128.966 115.999 130.095 116.228 130.976C117.286 134.977 117.286 134.977 117.286 140.918C117.268 144.619 117.198 146.858 117.057 147.616C116.933 148.251 116.757 149.203 116.669 149.731C116.563 150.26 116.422 151.018 116.334 151.406C116.246 151.794 115.964 152.975 115.735 154.05C115.153 156.571 114.8 157.805 114.589 158.069C114.377 158.316 113.672 160.361 113.672 160.713C113.672 160.837 113.285 161.736 112.791 162.688C112.315 163.639 111.91 164.538 111.91 164.662C111.91 164.803 111.716 165.208 111.469 165.561C111.222 165.913 111.028 166.284 111.028 166.372C111.028 166.46 110.834 166.777 110.605 167.077C110.376 167.376 110.129 167.817 110.059 168.064C109.988 168.311 109.794 168.663 109.618 168.857C109.442 169.051 109.142 169.527 108.931 169.915C108.719 170.303 108.19 171.096 107.767 171.677C107.326 172.259 106.815 172.964 106.639 173.264C105.141 175.626 99.9758 181.108 97.4551 183.012C97.1202 183.259 96.5385 183.735 96.1683 184.052C95.8158 184.369 95.428 184.634 95.3222 184.634C95.1988 184.634 94.811 184.898 94.4409 185.198C94.0883 185.515 93.3656 186.061 92.872 186.396C92.3608 186.731 91.6028 187.278 91.1798 187.577C90.7567 187.895 90.1926 188.212 89.9282 188.265C89.6462 188.335 89.2055 188.565 88.9059 188.776C88.6238 188.988 88.1302 189.27 87.813 189.375C87.4957 189.499 87.1431 189.71 87.0374 189.851C86.9316 189.992 86.7024 190.098 86.5438 190.098C86.3675 190.098 85.4509 190.504 84.499 190.979C83.5471 191.473 82.6481 191.861 82.5248 191.861C82.2251 191.861 80.1451 192.548 79.9159 192.725C79.6339 192.954 77.3776 193.588 75.8792 193.888C75.1036 194.047 74.4338 194.205 74.3633 194.241C74.2928 194.293 73.6053 194.434 72.8473 194.575C72.0717 194.716 70.7497 194.981 69.8683 195.157C67.5239 195.615 57.2295 195.615 54.885 195.157C54.0213 194.981 52.6816 194.716 51.906 194.575C51.148 194.434 50.4606 194.293 50.3901 194.241C50.3195 194.205 49.6497 194.047 48.8741 193.888C47.3758 193.588 45.1195 192.954 44.8374 192.725C44.6083 192.548 42.5282 191.861 42.2286 191.861C42.1052 191.861 41.2062 191.473 40.2543 190.979C39.3024 190.504 38.3682 190.098 38.2095 190.098C38.0333 190.098 37.8394 190.01 37.7689 189.904C37.716 189.798 37.24 189.516 36.7465 189.305C36.2353 189.076 35.7241 188.776 35.6007 188.635C35.4773 188.476 35.16 188.3 34.878 188.247C34.6136 188.194 34.2434 187.983 34.0671 187.771C33.8732 187.577 33.4502 187.278 33.0976 187.101C32.7627 186.925 32.0047 186.449 31.423 186.044C30.8589 185.656 30.101 185.127 29.766 184.898C25.8528 182.183 20.829 177.16 18.0438 173.176C17.7971 172.841 17.3035 172.136 16.9509 171.607C16.5808 171.096 16.1225 170.408 15.9286 170.091C15.717 169.756 15.435 169.351 15.2763 169.174C15.1177 168.998 14.818 168.505 14.6065 168.064C14.2187 167.218 13.8838 166.601 13.2492 165.561C13.02 165.191 12.8438 164.803 12.8438 164.679C12.8438 164.556 12.456 163.657 11.98 162.688C11.5041 161.718 10.9753 160.414 10.8166 159.779C10.6403 159.144 10.3936 158.457 10.2525 158.228C9.88236 157.628 9.52982 156.447 9.03625 154.226C8.80709 153.151 8.52506 151.935 8.41929 151.494C8.31353 151.053 8.17251 150.296 8.08437 149.82C7.99624 149.326 7.85522 148.427 7.74945 147.792C7.43216 145.906 7.23826 140.671 7.39691 137.833C7.5203 135.506 7.78471 133.902 8.45455 131.223C8.54268 130.888 8.71896 130.006 8.8776 129.284C9.47694 126.287 9.72372 125.423 10.2878 123.96C10.6227 123.096 10.9048 122.268 10.9048 122.109C10.9048 121.933 11.1163 121.228 11.3631 120.558C11.6098 119.871 11.9271 119.007 12.0682 118.619C12.2092 118.231 12.4031 117.755 12.4912 117.561C12.5794 117.368 12.7027 117.015 12.7556 116.768C12.9495 116.01 13.6017 114.406 13.919 113.948C14.0777 113.701 14.4126 112.837 14.677 112.009C14.9414 111.198 15.2587 110.405 15.3821 110.246C15.5231 110.105 15.8404 109.418 16.0872 108.748C16.6336 107.355 16.8452 106.879 17.6913 105.399C18.0086 104.817 18.2906 104.218 18.2906 104.077C18.3082 103.936 18.4493 103.565 18.6079 103.283C19.454 101.732 20.2473 100.093 20.2473 99.8636C20.2473 99.7226 20.353 99.4758 20.494 99.3348C20.8113 98.9822 21.5517 97.6778 21.9219 96.8493C22.2039 96.2147 22.2568 96.0913 23.2968 94.2934C23.6317 93.694 23.9666 93.0242 24.0371 92.795C24.1076 92.5482 24.3016 92.1957 24.4778 92.0018C24.6541 91.8079 24.9714 91.2967 25.1829 90.856C25.8704 89.3753 26.2758 88.6526 26.5931 88.3C26.7694 88.1062 27.0867 87.595 27.2982 87.1543C27.7389 86.1848 28.3558 85.18 28.7613 84.7393C28.9199 84.5454 29.1667 84.0695 29.3253 83.6464C29.4664 83.2234 29.766 82.6769 29.9776 82.3949C30.2067 82.1305 30.6298 81.4959 30.9118 80.9847C31.2115 80.4911 31.6169 79.8213 31.8284 79.5216C32.04 79.2043 32.3925 78.6403 32.604 78.2701C32.7979 77.8823 33.4502 76.8951 34.0142 76.049C34.5783 75.2029 35.0542 74.4273 35.0542 74.3216C35.0542 74.2158 35.2481 73.9161 35.4773 73.6341C35.7065 73.3697 36.0414 72.8937 36.2177 72.5941C36.7994 71.6422 37.6631 70.3378 37.998 69.8971C38.1743 69.6679 38.474 69.2272 38.6679 68.91C39.7079 67.253 40.1309 66.6184 40.6597 65.9662C40.9594 65.5784 41.2238 65.1906 41.2238 65.1024C41.2238 65.0319 41.453 64.697 41.735 64.3797C41.9994 64.0624 42.2815 63.6217 42.352 63.4102C42.4225 63.2163 42.7398 62.6875 43.0747 62.2644C43.4096 61.859 43.6917 61.4183 43.6917 61.3126C43.6917 61.2068 43.815 60.9953 43.9737 60.8719C44.1323 60.7485 44.5201 60.2373 44.8551 59.7437C45.7012 58.4922 46.2476 57.7166 46.7764 57.0115C47.3053 56.3064 47.8517 55.5308 48.6978 54.2792C49.0327 53.7857 49.4205 53.2745 49.5792 53.1511C49.7202 53.0277 50.0551 52.5694 50.3019 52.1463C50.5487 51.7233 50.8131 51.3707 50.8836 51.3707C50.9718 51.3707 51.2009 51.0358 51.4124 50.6127C51.8355 49.8019 52.664 48.7266 54.7264 46.2764C55.0261 45.9239 55.5196 45.2893 55.8193 44.8486C56.1366 44.4079 56.6654 43.7028 57.0003 43.2621C57.3352 42.8215 57.8993 42.0635 58.2342 41.5875C58.5868 41.094 59.1861 40.3007 59.5739 39.8248C59.9617 39.3312 60.5258 38.6261 60.8078 38.2383C61.7421 36.9868 62.7645 36.8458 63.6635 37.8682Z" fill="black"/>
<path d="M20.3002 137.392C19.6303 137.78 19.2602 138.15 18.8547 138.855C18.2202 139.966 18.1849 140.495 18.4846 144.443C18.6608 146.858 18.7842 147.669 19.2778 149.731C19.4364 150.366 19.7008 151.547 19.8771 152.375C20.2649 154.156 20.7232 155.619 21.1463 156.342C21.3049 156.624 21.6575 157.523 21.9219 158.316C22.1863 159.109 22.5036 159.849 22.627 159.955C22.7504 160.061 23.1911 160.837 23.6141 161.683C24.0372 162.529 24.6013 163.481 24.8657 163.798C25.1301 164.115 25.3592 164.485 25.3592 164.609C25.3592 164.732 25.5355 164.979 25.7294 165.173C25.9409 165.349 26.3111 165.825 26.5579 166.213C26.8047 166.601 27.2101 167.129 27.4569 167.394C27.7037 167.658 28.3911 168.399 28.9728 169.051C30.3654 170.602 32.4631 172.612 33.221 173.123C33.556 173.352 33.8204 173.616 33.8204 173.705C33.8204 173.793 34.3139 174.216 34.9133 174.621C35.5126 175.044 36.394 175.679 36.8875 176.031C37.3811 176.401 38.0509 176.825 38.3859 176.983C38.7208 177.142 39.2496 177.459 39.5493 177.688C39.8666 177.917 40.2015 178.111 40.3072 178.111C40.413 178.111 40.7127 178.305 40.9947 178.534C41.2767 178.764 41.8232 179.046 42.2286 179.151C42.634 179.257 43.0219 179.433 43.0747 179.522C43.2158 179.751 45.7188 180.932 46.0538 180.932C46.3182 180.932 46.8117 181.126 48.5392 181.901C49.3501 182.254 49.9318 182.448 52.3291 183.135C54.1623 183.646 55.2729 183.999 55.8722 184.21C56.2071 184.334 57.1237 184.475 57.8993 184.545C59.2567 184.651 59.3095 184.651 60.2614 184.069C61.4601 183.347 62.2357 182.236 62.3238 181.126C62.3943 180.438 62.3062 180.156 61.8126 179.363C61.1604 178.288 59.6621 177.23 58.816 177.23C58.199 177.23 56.8241 176.913 56.0661 176.595C55.7488 176.454 55.361 176.349 55.1847 176.349C55.0261 176.349 54.4973 176.19 54.0037 176.014C53.5278 175.82 52.6464 175.538 52.0647 175.379C51.0776 175.097 49.6674 174.515 48.5921 173.951C48.3453 173.81 48.0104 173.705 47.8694 173.705C47.5873 173.705 45.8246 172.823 44.7493 172.153C44.4144 171.942 44.0442 171.765 43.9385 171.765C43.8327 171.765 43.1276 171.342 42.3696 170.831C41.6293 170.338 40.7479 169.756 40.413 169.544C40.0781 169.351 39.5845 168.98 39.3201 168.734C39.0557 168.504 38.6503 168.187 38.4035 168.028C37.6455 167.553 36.7818 166.795 35.0367 165.032C33.2915 163.287 32.9919 162.899 31.2468 160.308C29.5545 157.787 29.2373 157.258 29.2373 157.011C29.2373 156.87 29.0786 156.465 28.9023 156.112C28.303 154.967 27.686 153.539 27.5979 153.08C27.545 152.834 27.3688 152.164 27.2101 151.582C26.0996 147.457 25.8881 146.206 25.747 142.98C25.6236 139.825 25.606 139.754 25.0772 138.89C24.7599 138.362 24.1958 137.78 23.667 137.427C22.5212 136.669 21.5694 136.669 20.3002 137.392Z" fill="black"/>
</svg>
