<svg width="72" height="59" viewBox="0 0 72 59" fill="none" xmlns="http://www.w3.org/2000/svg">
<path d="M21.8813 4.44941C21.21 4.53602 19.705 5.06647 19.705 5.20721C19.705 5.26134 19.6292 5.30464 19.5426 5.30464C19.3802 5.30464 18.4058 5.97583 18.0485 6.33308C17.9402 6.43051 17.8644 6.57125 17.8644 6.6362C17.8644 6.78776 17.7562 6.66868 23.0831 11.9841C25.3026 14.2034 27.3814 16.2819 27.7062 16.6175C28.4749 17.3969 28.4641 17.3969 29.1679 16.5201C30.099 15.3617 30.5971 14.0085 30.7919 12.0923C30.9327 10.75 30.1965 8.58482 29.1679 7.27491C28.1934 6.04079 26.4936 4.89326 25.1402 4.54684C24.5556 4.39528 22.65 4.34115 21.8813 4.44941Z" fill="url(#paint0_linear_24_92)"/>
<path d="M47.6279 4.91497C47.5954 4.94744 43.99 4.97992 39.6158 4.99075C35.2417 4.99075 31.6146 5.02323 31.5605 5.06653C31.4955 5.10983 31.4631 9.24524 31.4847 16.4227L31.5064 27.7139H31.8637C32.9247 27.7139 36.0321 27.3458 36.4327 27.1726C36.5518 27.1293 36.9416 27.0102 37.2988 26.9236C38.3816 26.6638 40.0056 26.1225 40.4495 25.8952C40.5578 25.8302 41.2291 25.5054 41.9437 25.1482C43.6327 24.3146 45.2134 23.3078 46.5127 22.2469C47.0865 21.7706 47.6062 21.3917 47.6603 21.4133C47.7145 21.4241 47.7361 21.3917 47.7037 21.3375C47.6712 21.2834 47.931 20.937 48.2883 20.5689C48.6456 20.2008 49.2303 19.508 49.5984 19.0208C49.9665 18.5337 50.313 18.144 50.3671 18.1656C50.4213 18.1764 50.4429 18.144 50.3996 18.079C50.3671 18.0249 50.5187 17.6893 50.7352 17.3537C52.5867 14.4632 53.9617 10.0463 54.1025 6.53882C54.1458 5.57533 54.1241 5.099 54.0483 5.04488C53.8967 4.94744 47.7145 4.81754 47.6279 4.91497ZM44.5855 9.33185C45.5816 10.0247 45.5816 11.3996 44.5855 12.0491C44.3364 12.2115 44.0225 12.3414 43.8925 12.3414C43.6219 12.3414 43.0697 12.1574 42.9831 12.0383C42.9506 11.995 42.799 11.8759 42.6366 11.7785C42.4092 11.6269 42.3334 11.4753 42.2793 11.0207C42.2035 10.3711 42.3009 10.0139 42.7016 9.59167C43.1563 9.09368 44.0766 8.9746 44.5855 9.33185Z" fill="url(#paint1_linear_24_92)"/>
<path d="M21.7081 15.4374C19.4236 15.9895 18.4816 16.4767 17.2581 17.7216C17.0741 17.9165 16.8792 18.0789 16.8251 18.0789C16.7709 18.0789 16.6626 18.2413 16.576 18.4253C16.4894 18.6202 16.327 18.9016 16.2079 19.0532C15.4284 20.0708 14.9195 22.4092 15.1577 23.9139C15.3851 25.3104 15.6774 26.0466 16.5436 27.4431C16.8251 27.887 17.269 28.3633 17.4097 28.3633C17.5288 28.3633 19.0554 26.8369 19.0554 26.7286C19.0554 26.6745 19.0879 26.6312 19.142 26.6312C19.2287 26.6312 27.9661 17.9165 28.0202 17.7758C28.0636 17.6459 27.349 16.953 26.786 16.5958C26.2446 16.2493 24.7938 15.6972 24.4148 15.6972C24.2957 15.6972 24.1333 15.6431 24.0684 15.5781C23.9493 15.4591 22.087 15.34 21.7081 15.4374Z" fill="url(#paint2_linear_24_92)"/>
<path d="M30.1532 33.1918C28.1177 33.6573 26.9268 34.6424 26.3637 36.3204C26.2122 36.7318 26.1905 37.1215 26.223 37.9984C26.2663 38.9835 26.3096 39.2325 26.5803 39.7846C27.0892 40.8347 28.2693 41.8307 29.3845 42.1338C30.0666 42.3178 31.4958 42.3611 31.9938 42.2204C32.232 42.1446 32.6543 41.9931 32.9358 41.8631L33.4555 41.6466L33.8994 42.0039C34.4299 42.4261 34.5274 42.3828 35.2961 41.5384L35.7833 41.0079L35.3069 40.5965L34.8305 40.1852L35.112 39.698C35.7075 38.6154 35.7183 36.8833 35.1337 35.725C34.5815 34.6316 33.4663 33.7006 32.3619 33.3866C31.669 33.1918 30.5646 33.0943 30.1532 33.1918ZM31.8964 35.4002C32.7301 35.8116 33.1198 36.3529 33.2822 37.338C33.358 37.8252 33.2714 38.7562 33.1415 38.7562C33.109 38.7562 32.8167 38.5072 32.5027 38.2149C32.1887 37.9118 31.8964 37.6736 31.8531 37.6736C31.734 37.6736 31.2359 38.1499 30.9219 38.5721C30.6513 38.9186 30.5538 39.2975 30.7271 39.2975C30.7704 39.2975 31.0194 39.5031 31.2901 39.7521L31.7665 40.196L31.5066 40.2934C31.1385 40.4342 29.9258 40.2934 29.7634 40.0986C29.6985 40.012 29.5794 39.947 29.5144 39.947C29.3737 39.947 28.7998 39.2542 28.7998 39.0918C28.7998 39.0268 28.7565 38.9727 28.7024 38.9727C28.6591 38.9727 28.5508 38.6804 28.4858 38.334C28.2368 37.0565 28.7565 35.909 29.8284 35.3569C30.3048 35.1079 31.3334 35.1296 31.8964 35.4002Z" fill="url(#paint3_linear_24_92)"/>
<path d="M20.593 33.3648C20.5389 33.4406 20.3548 33.8195 20.2032 34.2092C20.0408 34.5989 19.8459 35.0319 19.7702 35.1835C19.6944 35.3351 19.5644 35.649 19.4887 35.8872C19.4129 36.1253 19.2829 36.4176 19.2071 36.5367C19.1314 36.6558 18.8607 37.2404 18.6225 37.8358C18.3735 38.4312 18.0811 39.1132 17.9729 39.3514C17.4965 40.369 16.8902 41.9387 16.9226 42.047C16.9443 42.1228 17.3232 42.1552 17.9837 42.1336C19.153 42.0903 19.1314 42.1119 19.5536 41.0077L19.8351 40.2716L21.6324 40.2932L23.4405 40.3257L23.8195 41.2134L24.1984 42.0903L25.1512 42.1336C25.6817 42.1552 26.2014 42.1336 26.3205 42.0903C26.5587 42.0037 26.5587 42.0037 25.79 40.3798C25.5302 39.8169 25.2487 39.1998 25.162 39.0266C25.0862 38.8426 24.9238 38.4745 24.8047 38.2039C24.6748 37.9332 24.5774 37.6842 24.5774 37.6409C24.5774 37.5976 24.4691 37.327 24.35 37.0455C24.2201 36.7641 24.0252 36.3419 23.9278 36.1037C23.8195 35.8655 23.6138 35.4 23.4622 35.0752C23.3106 34.7505 23.0832 34.2417 22.9641 33.9385C22.8342 33.6463 22.6718 33.3648 22.596 33.3215C22.3687 33.1808 20.7229 33.2241 20.593 33.3648ZM22.033 36.9697C22.1846 37.3811 22.3687 37.8358 22.4336 37.9657C22.6177 38.3446 22.4553 38.4312 21.535 38.4312C20.6363 38.4312 20.5389 38.3663 20.7771 37.9116C20.8962 37.7059 21.3834 36.5367 21.4808 36.2228C21.5783 35.9305 21.6974 36.082 22.033 36.9697Z" fill="url(#paint4_linear_24_92)"/>
<path d="M47.8771 33.3648C47.758 33.5164 47.4765 34.1334 47.0434 35.1835C46.8918 35.5732 46.6428 36.147 46.4912 36.4609C46.3505 36.7749 46.2314 37.0455 46.2314 37.078C46.2314 37.0997 46.0906 37.4244 45.9174 37.8033C45.7442 38.1822 45.4194 38.9184 45.2028 39.4488C44.9863 39.9793 44.7697 40.4881 44.7156 40.5855C44.5315 40.9536 44.1526 42.0145 44.1851 42.047C44.2067 42.0686 44.6831 42.1119 45.2353 42.1228C46.4154 42.1769 46.383 42.1986 46.8377 41.0186L47.1192 40.2716H48.8948H50.6705L50.8004 40.5639C50.9303 40.8886 51.45 42.0362 51.4933 42.0903C51.5042 42.1119 51.9914 42.1336 52.576 42.1336C53.832 42.1444 53.8645 42.1119 53.453 41.2242C52.6302 39.4597 52.4028 38.9617 52.4028 38.9184C52.4028 38.8859 52.2621 38.5611 52.0997 38.193C51.9264 37.8141 51.6774 37.2404 51.5475 36.9156C51.4067 36.5908 51.2551 36.2444 51.201 36.1578C51.1469 36.0712 51.0711 35.9197 51.0386 35.833C51.0061 35.7464 50.7679 35.1943 50.5081 34.6097C50.2482 34.036 50.0533 33.5597 50.0858 33.5597C50.1183 33.5597 50.075 33.4839 49.9775 33.3973C49.7718 33.1916 48.0503 33.1699 47.8771 33.3648ZM49.0464 36.2769C49.0464 36.3419 49.2197 36.8074 49.447 37.3162C49.7718 38.074 49.8151 38.2472 49.6852 38.3338C49.5336 38.4312 47.9637 38.4745 47.9637 38.3771C47.9637 38.2797 48.321 37.2837 48.5051 36.8615C48.6133 36.6233 48.7324 36.3419 48.7649 36.2336C48.8299 36.0387 49.0464 36.0712 49.0464 36.2769Z" fill="url(#paint5_linear_24_92)"/>
<path d="M36.3894 33.4946C36.227 33.6895 36.227 38.4528 36.3894 39.3729C36.6492 40.8669 37.4937 41.7329 39.1395 42.2201C39.6375 42.3608 40.9476 42.3175 41.6838 42.1227C42.9614 41.7979 43.9034 40.5205 44.0766 38.8966C44.1199 38.4311 44.1632 37.0238 44.1632 35.768C44.174 33.7761 44.1524 33.4621 44.0008 33.408C43.7843 33.3214 42.2901 33.3214 42.0736 33.408C41.922 33.4621 41.9004 33.8194 41.9004 36.2552C41.9004 38.7559 41.8787 39.0698 41.6838 39.4812C41.5322 39.8168 41.4131 39.9467 41.2507 39.9467C41.1208 39.9467 41.045 39.99 41.0883 40.0441C41.1749 40.1957 40.731 40.304 40.0706 40.2931C39.5834 40.2823 39.421 40.2282 39.1611 39.9792C38.5656 39.4163 38.5115 39.1673 38.4682 36.266C38.4465 34.8045 38.4357 33.5487 38.4357 33.4729C38.4357 33.2673 36.5518 33.2889 36.3894 33.4946Z" fill="url(#paint6_linear_24_92)"/>
<path d="M20.5713 43.6819C19.5644 43.9634 19.5103 43.9959 18.5792 44.8403C17.5289 45.7929 17.0742 47.2003 17.3124 48.7808C17.3774 49.2463 17.5506 49.8742 17.6913 50.1774C17.9837 50.8161 18.8607 51.7254 19.5644 52.126C20.8095 52.8188 22.6285 52.873 24.0468 52.2559C24.4691 52.0718 25.5518 51.1408 25.5518 50.9676C25.5518 50.8052 24.3392 49.701 24.1659 49.6902C24.0793 49.6902 23.8195 49.8634 23.5704 50.0691C22.8342 50.697 21.8381 50.8377 20.907 50.448C19.9759 50.0474 19.3479 48.7592 19.532 47.6225C19.6186 47.0596 19.9542 46.4208 20.3223 46.0744C20.658 45.7605 21.4267 45.4682 21.9247 45.4682C22.3578 45.4682 23.2456 45.7713 23.5055 45.9986C23.8736 46.3342 24.0252 46.4425 24.1226 46.4425C24.2634 46.4425 25.4435 45.1434 25.4435 44.981C25.4435 44.9052 25.2811 44.7104 25.0971 44.5588C24.9022 44.3964 24.6748 44.2232 24.599 44.1583C24.5232 44.0933 24.1118 43.9309 23.6787 43.7794C22.7909 43.4871 21.405 43.4438 20.5713 43.6819Z" fill="url(#paint7_linear_24_92)"/>
<path d="M28.7998 43.7468C28.41 43.8767 28.0202 44.0391 27.9228 44.1257C27.8362 44.2123 27.7063 44.2772 27.6413 44.2772C27.4356 44.2772 26.5478 45.3165 26.2446 45.9119C25.3676 47.644 25.4975 49.3328 26.6127 50.8376C28.0527 52.7537 30.7703 53.2625 32.9032 52.0176C33.7694 51.498 34.1484 51.0866 34.6464 50.1014C35.0578 49.2679 35.0795 49.1921 35.0795 48.1853C35.0795 46.6372 34.733 45.7495 33.7369 44.7644C32.9141 43.9524 32.0046 43.606 30.5863 43.5519C29.7093 43.5302 29.3628 43.5627 28.7998 43.7468ZM31.355 45.6846C31.6148 45.8036 31.8314 45.9552 31.8314 46.0093C31.8314 46.0743 31.8963 46.1176 31.9721 46.1176C32.0371 46.1176 32.2536 46.3449 32.4269 46.6264C32.73 47.1136 32.7517 47.211 32.7517 48.2178C32.7517 48.9864 32.7084 49.3112 32.6217 49.3436C32.546 49.3653 32.481 49.4302 32.481 49.4952C32.481 49.6792 31.7881 50.2855 31.3333 50.502C30.2614 51.0108 28.8431 50.4803 28.226 49.322C27.9011 48.7049 27.9011 47.4491 28.226 46.8213C28.8539 45.6196 30.164 45.1433 31.355 45.6846Z" fill="url(#paint8_linear_24_92)"/>
<path d="M36.0216 43.6928C35.9783 43.7361 35.9458 45.7388 35.9458 48.1421V52.5049H37.0177H38.0896L38.1545 52.2126C38.187 52.0394 38.1978 51.4115 38.1653 50.7944L38.122 49.6902H38.8258C39.3888 49.6902 39.5404 49.7227 39.5945 49.8742C39.6378 49.9825 39.8544 50.3397 40.0817 50.6862C40.3091 51.0218 40.4932 51.3574 40.4932 51.4223C40.4932 51.4764 40.5257 51.5306 40.5798 51.5306C40.6231 51.5306 40.7963 51.7471 40.9587 52.0177L41.2727 52.5049H42.507C43.3732 52.5049 43.7413 52.4724 43.7413 52.375C43.7413 52.31 43.5572 52.0069 43.3299 51.7038C42.8643 51.0759 41.9115 49.6361 41.8357 49.4412C41.8141 49.3654 41.9873 49.1922 42.2255 49.0407C42.7777 48.6942 43.1891 48.1097 43.384 47.3952C43.5681 46.659 43.5572 46.41 43.3299 45.6847C43.0159 44.6671 42.6044 44.2557 41.4676 43.8335C41.0454 43.6819 36.1623 43.552 36.0216 43.6928ZM40.6447 45.6847C40.7963 45.7388 40.9912 45.9337 41.0887 46.1069C41.3377 46.6049 41.2944 47.0271 40.9371 47.406L40.6231 47.7416H39.3672H38.1004L38.122 46.659L38.1329 45.5764H39.2589C39.8652 45.5764 40.4932 45.6197 40.6447 45.6847Z" fill="url(#paint9_linear_24_92)"/>
<path d="M44.4663 43.7033C44.3472 43.8224 44.3797 52.4829 44.4988 52.5262C44.5529 52.5371 46.1337 52.5371 47.9851 52.5046L51.374 52.4505L51.4065 51.6494C51.4281 51.2055 51.3956 50.805 51.3415 50.7508C51.2874 50.6967 50.2047 50.6426 48.9271 50.6317L46.6101 50.6101V49.7982V48.9862L48.6997 48.9538L50.7893 48.9321L50.7569 48.0336L50.7244 47.1459L48.6672 47.0917L46.6101 47.0376L46.5776 46.3123L46.5451 45.5761L48.9054 45.5545L51.2657 45.522V44.6018V43.6817L47.8985 43.6492C46.0471 43.6384 44.5096 43.66 44.4663 43.7033Z" fill="url(#paint10_linear_24_92)"/>
<defs>
<linearGradient id="paint0_linear_24_92" x1="19.9876" y1="15.1513" x2="24.3855" y2="4.53651" gradientUnits="userSpaceOnUse">
<stop offset="0.0769611" stop-color="#185FB9"/>
<stop offset="0.557762" stop-color="#D688B7"/>
<stop offset="0.937595" stop-color="#F2D0E5"/>
</linearGradient>
<linearGradient id="paint1_linear_24_92" x1="35.1927" y1="24.0757" x2="43.1483" y2="5.24778" gradientUnits="userSpaceOnUse">
<stop offset="0.0769611" stop-color="#185FB9"/>
<stop offset="0.557762" stop-color="#D688B7"/>
<stop offset="0.937595" stop-color="#F2D0E5"/>
</linearGradient>
<linearGradient id="paint2_linear_24_92" x1="17.2184" y1="26.298" x2="21.718" y2="15.5931" gradientUnits="userSpaceOnUse">
<stop offset="0.0769611" stop-color="#185FB9"/>
<stop offset="0.557762" stop-color="#D688B7"/>
<stop offset="0.937595" stop-color="#F2D0E5"/>
</linearGradient>
<linearGradient id="paint3_linear_24_92" x1="27.7803" y1="40.8458" x2="30.8496" y2="33.1831" gradientUnits="userSpaceOnUse">
<stop offset="0.0769611" stop-color="#185FB9"/>
<stop offset="0.557762" stop-color="#D688B7"/>
<stop offset="0.937595" stop-color="#F2D0E5"/>
</linearGradient>
<linearGradient id="paint4_linear_24_92" x1="18.4861" y1="40.7229" x2="21.4234" y2="33.2165" gradientUnits="userSpaceOnUse">
<stop offset="0.0769611" stop-color="#185FB9"/>
<stop offset="0.557762" stop-color="#D688B7"/>
<stop offset="0.937595" stop-color="#F2D0E5"/>
</linearGradient>
<linearGradient id="paint5_linear_24_92" x1="45.7423" y1="40.7221" x2="48.6901" y2="33.2197" gradientUnits="userSpaceOnUse">
<stop offset="0.0769611" stop-color="#185FB9"/>
<stop offset="0.557762" stop-color="#D688B7"/>
<stop offset="0.937595" stop-color="#F2D0E5"/>
</linearGradient>
<linearGradient id="paint6_linear_24_92" x1="37.5631" y1="40.8729" x2="40.948" y2="33.7641" gradientUnits="userSpaceOnUse">
<stop offset="0.0769611" stop-color="#185FB9"/>
<stop offset="0.557762" stop-color="#D688B7"/>
<stop offset="0.937595" stop-color="#F2D0E5"/>
</linearGradient>
<linearGradient id="paint7_linear_24_92" x1="18.6121" y1="51.2256" x2="22.0012" y2="43.8941" gradientUnits="userSpaceOnUse">
<stop offset="0.0769611" stop-color="#185FB9"/>
<stop offset="0.557762" stop-color="#D688B7"/>
<stop offset="0.937595" stop-color="#F2D0E5"/>
</linearGradient>
<linearGradient id="paint8_linear_24_92" x1="27.2134" y1="51.2387" x2="30.3214" y2="43.6127" gradientUnits="userSpaceOnUse">
<stop offset="0.0769611" stop-color="#185FB9"/>
<stop offset="0.557762" stop-color="#D688B7"/>
<stop offset="0.937595" stop-color="#F2D0E5"/>
</linearGradient>
<linearGradient id="paint9_linear_24_92" x1="37.2245" y1="51.0912" x2="40.5749" y2="44.067" gradientUnits="userSpaceOnUse">
<stop offset="0.0769611" stop-color="#185FB9"/>
<stop offset="0.557762" stop-color="#D688B7"/>
<stop offset="0.937595" stop-color="#F2D0E5"/>
</linearGradient>
<linearGradient id="paint10_linear_24_92" x1="45.5433" y1="51.1168" x2="49.118" y2="44.377" gradientUnits="userSpaceOnUse">
<stop offset="0.0769611" stop-color="#185FB9"/>
<stop offset="0.557762" stop-color="#D688B7"/>
<stop offset="0.937595" stop-color="#F2D0E5"/>
</linearGradient>
</defs>
</svg>
