<svg width="30" height="31" viewBox="0 0 30 31" fill="none" xmlns="http://www.w3.org/2000/svg">
<path d="M1.49904 0.11602C0.821618 0.36059 0.340292 0.843764 0.114484 1.52379C-0.00436163 1.87573 -0.0103039 1.98907 0.00752297 5.13268L0.0253499 8.3777L0.185792 8.71771C0.393773 9.17106 0.750311 9.5409 1.19598 9.78547L1.57035 9.98828H6.859H12.1476L12.4982 9.81529C12.9499 9.59458 13.3005 9.24264 13.5203 8.78929L13.6926 8.43735L13.7105 5.09092C13.7224 1.81608 13.7224 1.73257 13.6035 1.40448C13.4252 0.939206 12.9855 0.467962 12.4864 0.223392L12.0882 0.0265436L6.94813 0.0146132C2.0695 0.00268364 1.79021 0.00864887 1.49904 0.11602ZM11.8208 2.01889C11.8565 2.09644 11.8802 3.15226 11.8802 5.03127C11.8802 7.85277 11.8743 7.93628 11.7614 8.04962C11.6425 8.16892 11.5653 8.16892 6.86494 8.16892C2.59837 8.16892 2.07544 8.15699 1.99225 8.07348C1.90906 7.98997 1.89717 7.63206 1.89717 5.01338C1.89717 2.78839 1.915 2.03082 1.96848 1.97714C2.02196 1.92345 3.19854 1.90555 6.90059 1.90555C11.6425 1.90555 11.7614 1.90555 11.8208 2.01889Z" fill="black"/>
<path d="M17.8411 0.0866356C17.2112 0.283484 16.617 0.826309 16.3971 1.40493C16.2783 1.73301 16.2783 1.78073 16.2902 8.87325L16.308 16.0135L16.51 16.3893C16.8606 17.0335 17.4133 17.4213 18.162 17.5346C18.4294 17.5763 20.2062 17.5942 23.4091 17.5823L28.252 17.5644L28.5967 17.4272C29.078 17.2304 29.5831 16.7472 29.803 16.27L29.9753 15.8942L29.9931 8.89114C30.005 1.97161 30.005 1.87617 29.8862 1.52423C29.6544 0.832275 29.1731 0.355066 28.4778 0.110497C28.157 0.00312424 27.943 -0.00284195 23.1179 0.00312424C19.1365 0.00312424 18.0372 0.021019 17.8411 0.0866356ZM28.0322 1.97758C28.0856 2.03126 28.1035 3.62991 28.1035 8.80763C28.1035 15.4229 28.1035 15.5661 27.9906 15.6258C27.9133 15.6675 26.2792 15.6854 23.106 15.6854C18.7503 15.6854 18.3284 15.6794 18.2274 15.584C18.1264 15.4945 18.1204 15.2022 18.1204 8.81359C18.1204 4.32186 18.1382 2.09688 18.1798 2.01933C18.2393 1.90599 18.3581 1.90599 23.1001 1.90599C26.8021 1.90599 27.9787 1.92389 28.0322 1.97758Z" fill="black"/>
<path d="M1.83126 12.5827C1.14196 12.702 0.494246 13.203 0.197131 13.8532L0.0248047 14.2231L0.00697775 21.2261C-0.00490685 28.1456 -0.00490685 28.2411 0.113939 28.593C0.345689 29.285 0.832958 29.7681 1.52821 30.0067C1.86098 30.1201 2.05707 30.1201 6.9773 30.1082L12.0877 30.0903L12.4264 29.9292C12.878 29.7204 13.3237 29.2909 13.5257 28.8734L13.6921 28.5393V21.3215V14.1038L13.4901 13.728C13.1573 13.1076 12.6165 12.7198 11.9094 12.5886C11.5053 12.5111 2.27694 12.5111 1.83126 12.5827ZM11.7727 14.5332C11.8738 14.6227 11.8797 14.915 11.8797 21.3275C11.8797 27.3344 11.8678 28.0323 11.7846 28.1158C11.7014 28.1993 11.1726 28.2112 6.86439 28.2112C3.19205 28.2112 2.02142 28.1934 1.96794 28.1397C1.91446 28.086 1.89663 26.4873 1.89663 21.3096C1.89663 14.9389 1.90257 14.5511 2.00359 14.4975C2.06896 14.4557 3.75063 14.4378 6.88222 14.4318C11.2498 14.4318 11.6717 14.4378 11.7727 14.5332Z" fill="black"/>
<path d="M17.6916 20.2121C17.0736 20.4567 16.6279 20.91 16.3962 21.5244C16.2833 21.8167 16.2773 22.0016 16.2773 25.1095C16.2773 28.2769 16.2833 28.3963 16.4021 28.7184C16.5745 29.1777 17.0201 29.6489 17.5133 29.8935L17.9115 30.0903L23.0159 30.1082C28.0253 30.1202 28.1322 30.1202 28.4828 30.0009C29.1721 29.7682 29.6535 29.2791 29.8912 28.5752C30.0041 28.2471 30.01 28.0741 29.9922 24.9842L29.9743 21.7392L29.8139 21.3992C29.6059 20.9458 29.2494 20.576 28.8037 20.3314L28.4293 20.1286L23.2001 20.1167C18.2324 20.1047 17.959 20.1107 17.6916 20.2121ZM28.0074 22.0434C28.0906 22.1269 28.1025 22.4848 28.1025 25.1035C28.1025 27.3285 28.0847 28.0861 28.0312 28.1398C27.9777 28.1934 26.8012 28.2113 23.0991 28.2113C18.3571 28.2113 18.2383 28.2113 18.1789 28.098C18.1432 28.0204 18.1195 26.9646 18.1195 25.0856C18.1195 22.2641 18.1254 22.1806 18.2383 22.0673C18.3571 21.948 18.4344 21.948 23.1348 21.948C27.4013 21.948 27.9243 21.9599 28.0074 22.0434Z" fill="black"/>
</svg>
