<svg width="168" height="153" viewBox="0 0 168 153" fill="none" xmlns="http://www.w3.org/2000/svg">
<path d="M12.067 0.128408C8.90963 0.484334 5.44222 2.41322 3.27222 5.031C1.74519 6.87952 0.907037 8.6247 0.31 11.2425L0.0688889 12.3332L0.0344444 81.3254L0 150.329L0.355926 151.041C0.780741 151.879 1.10222 152.212 1.87148 152.614C3.01963 153.222 4.34 153.119 5.49963 152.338C5.87852 152.086 13.1463 144.91 22.963 135.082L39.7833 118.25H89.4752C124.402 118.25 139.592 118.215 140.568 118.124C141.854 118.009 142.393 117.882 144.311 117.262C145.218 116.964 147.101 115.839 148.065 115.012C149.087 114.151 150.534 112.521 150.947 111.763C152.095 109.731 152.761 107.917 152.956 106.252C153.048 105.54 153.106 96.2054 153.151 75.8717L153.22 46.5136L158.146 41.5995C160.856 38.8899 163.462 36.2032 163.944 35.6177C165.345 33.9414 166.344 31.7829 166.791 29.521C167.033 28.281 167.113 26.3636 166.941 25.5943C166.424 23.2521 166.057 22.058 165.586 21.2314C165.356 20.818 165.115 20.3703 165.046 20.2325C164.989 20.0947 164.599 19.5666 164.197 19.0499C162.957 17.4884 161.59 16.3517 159.822 15.4103C159.225 15.0888 158.582 14.7903 158.387 14.7558C158.203 14.7099 157.641 14.5491 157.159 14.3999C156.527 14.1932 155.838 14.0899 154.77 14.021C153.714 13.9521 153.232 13.8717 153.163 13.7684C153.117 13.688 153.037 13.1484 152.991 12.5743C152.945 12.0003 152.876 11.3458 152.819 11.1277C152.049 7.84396 150.453 5.2147 148.019 3.19396C146.033 1.55211 143.3 0.381001 140.855 0.105445C139.408 -0.0438142 13.4793 -0.0323327 12.067 0.128408ZM140.763 7.09767C141.624 7.30433 142.634 7.75211 143.174 8.16545C144.345 9.04952 145.482 10.5766 145.826 11.7362C146.044 12.4366 146.274 14.1817 146.274 15.1347V16.0991L145.746 16.6043C145.459 16.8684 145.16 17.098 145.091 17.098C145.023 17.098 136.297 25.7666 125.699 36.3525L106.433 55.6184L71.9544 55.6758L37.487 55.7332L36.8556 56.0547C36.5111 56.2269 36.1207 56.4566 35.9944 56.5714C35.5926 56.9043 35.0185 57.8229 35.0185 58.1214C35.0185 58.2706 34.9611 58.5462 34.9037 58.7414C34.7315 59.2121 35.0185 60.3488 35.4548 61.0262C35.8796 61.6577 36.6489 62.1858 37.4526 62.404C37.9693 62.5417 42.9063 62.5647 69.3826 62.5647C96.5478 62.5647 100.704 62.5877 100.761 62.7254C100.819 62.8747 100.578 64.1836 99.4756 69.6258C99.3722 70.131 99.223 70.8773 99.1426 71.2906C99.0622 71.704 98.913 72.4503 98.8096 72.9554C98.7063 73.4606 98.4996 74.494 98.3504 75.2517C98.1896 76.0095 97.983 77.0658 97.8796 77.6054C97.7763 78.1451 97.6385 78.7995 97.5811 79.0636C97.4204 79.7984 97.4548 80.3725 97.7074 81.0958C98.0059 81.9569 98.247 82.2899 98.9933 82.7951C99.7856 83.3347 100.865 83.5643 101.749 83.3691C103.333 83.0247 109.625 81.7617 110.222 81.6584C110.521 81.6125 111.52 81.4058 113.001 81.1073C113.46 81.0154 115.01 80.7054 116.434 80.4184C119.074 79.8903 119.798 79.6951 120.246 79.3851C120.383 79.2932 126.239 73.4721 133.277 66.4454C143.209 56.5254 146.079 53.7125 146.159 53.8388C146.32 54.0914 146.309 103.588 146.148 104.828C145.941 106.458 145.551 107.446 144.632 108.663C143.817 109.742 142.577 110.592 141.119 111.062L140.361 111.304L88.9241 111.361C59.0952 111.395 37.3607 111.464 37.2 111.522C37.0393 111.579 36.6259 111.82 36.2815 112.061C35.937 112.302 29.2433 118.904 21.413 126.735C13.5826 134.577 7.13 140.983 7.06111 140.983C6.98074 140.983 6.95778 119.662 6.96926 77.0084C6.99222 17.9936 7.01519 12.9647 7.18741 12.2184C7.79593 9.61211 9.97741 7.57989 12.8019 6.99433C13.0544 6.94841 41.7581 6.90248 76.5815 6.891C137.743 6.87952 139.936 6.891 140.763 7.09767ZM155.586 21.1051C157.675 21.8399 159.191 23.4129 159.868 25.5254C160.132 26.3406 160.109 27.994 159.822 28.8895C159.317 30.5199 159.064 30.8529 156.022 33.9184L153.174 36.7888L148.662 32.2766L144.15 27.7643L147.02 24.9284C149.983 21.9891 150.465 21.6103 151.785 21.1625C152.796 20.818 154.679 20.7836 155.586 21.1051ZM143.714 37.2136C146.136 39.6362 148.111 41.6569 148.111 41.7258C148.111 41.7832 141.039 48.9132 132.404 57.5473C116.836 73.1162 116.698 73.254 116.078 73.4147C115.733 73.5066 115.159 73.6329 114.815 73.6903C114.229 73.7936 113.345 73.9773 111.887 74.2758C108.661 74.9532 105.561 75.5158 105.492 75.4469C105.434 75.3895 105.894 72.8751 106.491 69.8554L107.593 64.3443L123.346 48.5803C132.014 39.9232 139.144 32.8277 139.213 32.8277C139.27 32.8277 141.303 34.8025 143.714 37.2136Z" fill="black"/>
<path d="M37.6371 34.8943C35.823 35.2043 34.5371 37.1446 34.9619 38.9357C35.2604 40.1987 36.2593 41.232 37.4649 41.5306C38.2571 41.7372 115.011 41.7143 115.746 41.5191C117.479 41.0598 118.524 39.3491 118.18 37.535C117.939 36.1917 116.836 35.1124 115.505 34.9057C114.62 34.7565 38.4982 34.7565 37.6371 34.8943Z" fill="black"/>
<path d="M37.4053 76.6997C36.3375 76.9523 35.0171 78.2497 35.0171 79.0305C35.0171 79.1912 34.9712 79.4438 34.9023 79.616C34.822 79.8112 34.8449 80.1327 34.9483 80.6494C35.2468 82.1075 36.2916 83.0949 37.7612 83.3475C38.7831 83.5197 80.3116 83.4508 81.0234 83.2786C82.1831 82.9801 83.2509 81.7516 83.4116 80.5345C83.6412 78.6745 82.562 77.0671 80.8512 76.6997C80.1049 76.539 38.0712 76.539 37.4053 76.6997Z" fill="black"/>
</svg>
