<svg width="42" height="28" viewBox="0 0 42 28" fill="none" xmlns="http://www.w3.org/2000/svg">
<path d="M7.29952 0.0663626C6.57709 0.167526 4.95745 0.787149 4.95745 0.951539C4.95745 1.01477 4.87588 1.06535 4.78266 1.06535C4.60788 1.06535 3.55919 1.84936 3.17467 2.26666C3.05815 2.38047 2.97659 2.54486 2.97659 2.62073C2.97659 2.79776 2.86007 2.65867 8.59291 8.86755C10.9816 11.4598 13.2188 13.8878 13.5684 14.2798C14.3957 15.1902 14.384 15.1902 15.1414 14.166C16.1435 12.8129 16.6795 11.2322 16.8892 8.994C17.0407 7.42597 16.2484 4.8969 15.1414 3.36681C14.0927 1.92523 12.2633 0.584823 10.8068 0.180171C10.1776 0.00313543 8.12682 -0.0600912 7.29952 0.0663626Z" fill="url(#paint0_linear_168_5044)"/>
<path d="M35.0083 0.610113C34.9733 0.64805 31.0932 0.685986 26.3857 0.698631C21.6782 0.698631 17.7748 0.736568 17.7165 0.787149C17.6466 0.837731 17.6117 5.66826 17.635 14.0521L17.6583 27.2413H18.0428C19.1847 27.2413 22.5288 26.8113 22.96 26.609C23.0882 26.5584 23.5076 26.4193 23.8921 26.3182C25.0574 26.0147 26.8052 25.3824 27.2829 25.1169C27.3994 25.041 28.1219 24.6616 28.8909 24.2443C30.7086 23.2706 32.4099 22.0946 33.8081 20.8554C34.4257 20.299 34.985 19.8564 35.0432 19.8817C35.1015 19.8943 35.1248 19.8564 35.0898 19.7931C35.0549 19.7299 35.3345 19.3253 35.7191 18.8953C36.1036 18.4654 36.7328 17.6561 37.129 17.087C37.5251 16.518 37.898 16.0628 37.9563 16.0881C38.0145 16.1007 38.0378 16.0628 37.9912 15.9869C37.9563 15.9237 38.1194 15.5317 38.3524 15.1396C40.3449 11.7633 41.8248 6.60402 41.9762 2.50692C42.0229 1.38148 41.9995 0.825085 41.918 0.761858C41.7549 0.64805 35.1015 0.496305 35.0083 0.610113ZM31.734 5.76943C32.806 6.57873 32.806 8.18469 31.734 8.94342C31.466 9.1331 31.1281 9.28484 30.9883 9.28484C30.697 9.28484 30.1027 9.06987 30.0095 8.93077C29.9746 8.88019 29.8114 8.74109 29.6366 8.62728C29.392 8.45025 29.3104 8.27321 29.2521 7.74211C29.1706 6.98338 29.2754 6.56609 29.7066 6.07292C30.1959 5.49123 31.1864 5.35213 31.734 5.76943Z" fill="url(#paint1_linear_168_5044)"/>
<path d="M7.11309 12.9014C4.65449 13.5463 3.64076 14.1154 2.32407 15.5696C2.12598 15.7972 1.91624 15.9869 1.85798 15.9869C1.79972 15.9869 1.6832 16.1766 1.58998 16.3915C1.49677 16.6192 1.32198 16.9479 1.19381 17.125C0.354857 18.3136 -0.192792 21.045 0.0635542 22.8028C0.308249 24.434 0.622856 25.2939 1.55503 26.9251C1.85798 27.4436 2.33572 28 2.4872 28C2.61537 28 4.25832 26.217 4.25832 26.0905C4.25832 26.0273 4.29327 25.9767 4.35154 25.9767C4.44475 25.9767 13.848 15.7972 13.9063 15.6328C13.9529 15.4811 13.1838 14.6718 12.5779 14.2545C11.9953 13.8498 10.4339 13.2049 10.0261 13.2049C9.89795 13.2049 9.72316 13.1417 9.65325 13.0658C9.52508 12.9267 7.52091 12.7876 7.11309 12.9014Z" fill="url(#paint2_linear_168_5044)"/>
<defs>
<linearGradient id="paint0_linear_168_5044" x1="7.42728" y1="48.0172" x2="34.4769" y2="3.063" gradientUnits="userSpaceOnUse">
<stop offset="0.0769611" stop-color="#185FB9"/>
<stop offset="0.696621" stop-color="#D688B7"/>
<stop offset="0.999874" stop-color="#F2D0E5"/>
</linearGradient>
<linearGradient id="paint1_linear_168_5044" x1="7.42728" y1="48.0172" x2="34.4769" y2="3.063" gradientUnits="userSpaceOnUse">
<stop offset="0.0769611" stop-color="#185FB9"/>
<stop offset="0.696621" stop-color="#D688B7"/>
<stop offset="0.999874" stop-color="#F2D0E5"/>
</linearGradient>
<linearGradient id="paint2_linear_168_5044" x1="7.42728" y1="48.0172" x2="34.4769" y2="3.063" gradientUnits="userSpaceOnUse">
<stop offset="0.0769611" stop-color="#185FB9"/>
<stop offset="0.696621" stop-color="#D688B7"/>
<stop offset="0.999874" stop-color="#F2D0E5"/>
</linearGradient>
</defs>
</svg>
