<svg width="184" height="184" viewBox="0 0 184 184" fill="none" xmlns="http://www.w3.org/2000/svg">
<path d="M24.8007 0.251452C22.5887 0.862366 20.8219 1.92031 19.1385 3.66367C17.5525 5.30273 16.5787 7.07589 15.7996 9.7878C15.5213 10.7116 15.5074 11.2779 15.4379 21.8572L15.3544 32.9581L11.2503 33.0475C8.80179 33.0922 6.868 33.2114 6.45064 33.3158C6.07501 33.4201 5.22637 33.7628 4.58641 34.0906C2.59698 35.1187 1.08056 37.026 0.315392 39.4399C-0.0602355 40.6021 -0.0602355 43.4928 0.315392 44.6551C0.76058 46.0706 1.41445 47.218 2.34656 48.2312C3.36215 49.3338 4.15514 49.8852 5.53244 50.4514C6.43673 50.8239 6.53411 50.8239 10.6243 50.8686C12.9198 50.8984 14.937 50.958 15.1179 50.9878L15.424 51.0623L15.3961 55.9497L15.3544 60.8222L10.9721 60.9116C7.4384 60.9712 6.46455 61.0457 5.92198 61.2394C3.16738 62.2377 1.2475 64.2791 0.30148 67.1847C-0.0602355 68.3171 -0.0324113 71.5208 0.343216 72.6085C1.31706 75.3502 3.34823 77.481 5.82459 78.3601C6.65932 78.6581 7.0906 78.6879 11.0834 78.7475L15.424 78.8071L15.3961 83.6647L15.3544 88.5372L11.1112 88.6266C6.36717 88.7458 6.14457 88.7756 4.30817 89.7739C3.32041 90.2954 1.84573 91.7855 1.2475 92.8434C0.315392 94.5123 0.0649736 95.4808 0.0649736 97.552C0.0510615 99.1315 0.10671 99.5636 0.37104 100.413C1.06665 102.544 2.69436 104.57 4.48903 105.509C6.18631 106.388 6.81235 106.492 11.1808 106.492C13.3232 106.492 15.1596 106.552 15.257 106.612C15.3822 106.716 15.424 107.804 15.3961 111.573L15.3544 116.401L10.9721 116.476C6.84018 116.55 6.53411 116.58 5.68547 116.908C3.23694 117.832 1.20577 119.977 0.398865 122.481C0.0232372 123.658 -0.115884 125.818 0.10671 127.085C0.204095 127.606 0.537986 128.59 0.844052 129.29C1.74834 131.302 3.6543 133.12 5.61591 133.835C6.56193 134.192 7.28537 134.252 11.1112 134.341L15.3544 134.431L15.424 145.532L15.5074 156.633L15.8831 157.944C17.3299 162.921 20.9888 166.452 25.5798 167.287C26.1502 167.391 27.4997 167.525 28.5709 167.57L30.5186 167.659L30.6021 170.118C30.6856 172.695 30.8664 173.798 31.4925 175.467C32.7167 178.834 35.4574 181.68 38.7268 183.007C38.8798 183.066 39.478 183.245 40.0484 183.394C41.064 183.662 42.6082 183.677 91.1059 183.677C135.305 183.677 141.231 183.647 142.024 183.454C144.459 182.843 146.24 181.74 148.146 179.654C149.912 177.747 150.928 175.631 151.415 172.919C151.596 171.861 151.624 166.795 151.624 130.616V89.5057L166.83 73.2194C177.89 61.3586 182.147 56.6947 182.495 56.0838C182.745 55.607 183.121 54.7725 183.315 54.2212C183.635 53.3272 183.677 53.0143 183.677 51.2113C183.677 49.4828 183.635 49.0656 183.357 48.2461C182.703 46.3388 182.202 45.6385 178.585 41.7495C174.857 37.7263 174.008 37.0111 172.241 36.3555C171.337 36.0128 170.934 35.9532 169.57 35.9532C168.249 35.9382 167.803 35.9978 166.997 36.281C164.826 37.0558 164.812 37.0856 158.051 44.2826C154.587 47.963 151.665 51.0027 151.554 51.0325C151.359 51.0772 151.345 50.1534 151.443 43.1352C151.651 27.7281 151.638 27.3108 150.928 24.9864C149.787 21.3357 146.699 18.1619 143.04 16.8953C141.426 16.3291 140.619 16.1801 138.616 16.0907C137.628 16.046 136.724 15.9417 136.64 15.8523C136.515 15.7629 136.459 15.1669 136.459 13.9003C136.459 12.1123 136.237 10.3391 135.847 9.04276C134.623 4.87061 131.562 1.7117 127.347 0.281245C126.721 0.0577451 121.893 0.0428412 76.2199 0.0130334C27.5275 -0.0167598 25.7607 -0.0167598 24.8007 0.251452ZM125.858 6.92689C127.333 7.43351 128.78 8.72986 129.489 10.205C130.074 11.412 130.06 10.3689 130.06 43.0905V74.2327L114.631 90.7723C106.145 99.8616 99.1471 107.446 99.0636 107.61C98.9245 107.893 98.7297 108.713 97.8672 112.631C97.0603 116.252 96.796 117.4 96.3925 119.232C96.156 120.29 95.836 121.736 95.683 122.436C95.53 123.136 95.2239 124.522 94.9874 125.52C94.3335 128.456 94.4726 129.499 95.6691 130.661C96.0447 131.034 96.4621 131.257 96.9629 131.376C97.7976 131.57 97.8811 131.555 101.749 130.572C112.767 127.77 116.148 126.891 116.662 126.668C116.913 126.548 119.793 123.583 123.521 119.59C127.055 115.82 129.976 112.751 130.004 112.795C130.046 112.825 130.06 122.406 130.06 134.073C130.06 157.05 130.088 156.096 129.309 157.512C128.822 158.406 127.639 159.613 126.874 160C125.33 160.775 128.585 160.73 76.0252 160.73C32.6472 160.73 26.9849 160.701 26.2615 160.507C24.2721 159.955 22.7974 158.48 22.1018 156.364C21.8374 155.575 21.8235 155.038 21.8235 144.995C21.8096 139.214 21.8374 134.431 21.8792 134.401C21.9209 134.356 23.4095 134.327 25.1903 134.341C28.7239 134.356 30.4212 134.222 31.5342 133.835C33.4402 133.164 35.4157 131.302 36.2921 129.365C36.8486 128.113 37.266 126.444 37.266 125.416C37.266 124.343 36.8486 122.54 36.32 121.393C35.6522 119.903 33.9827 118.1 32.6611 117.414C30.9777 116.55 30.463 116.476 26.1224 116.476C23.9521 116.476 22.0879 116.416 21.9905 116.342C21.8514 116.252 21.8096 115.209 21.8096 111.499C21.8096 108.906 21.8514 106.716 21.8931 106.641C21.9487 106.552 23.5208 106.492 25.8998 106.492C28.5709 106.477 30.0873 106.418 30.6716 106.284C33.8019 105.569 36.3895 102.737 37.0434 99.3103C37.3216 97.8798 37.3216 97.2689 37.0573 95.8831C36.5426 93.2159 34.9009 90.8915 32.6611 89.6845C30.936 88.7458 30.0317 88.6117 25.5659 88.6117C22.1018 88.6117 21.8235 88.5968 21.8235 88.3435C21.8096 88.12 21.8235 79.1647 21.8235 78.9114C21.8235 78.8518 23.7434 78.7773 26.1085 78.7475C29.9899 78.6879 30.463 78.6432 31.2838 78.3601C33.4819 77.5853 35.36 75.8866 36.2921 73.8005C37.0156 72.1615 37.1686 71.491 37.1825 69.837C37.2103 65.784 34.734 62.3122 31.0194 61.1798C30.2125 60.9265 29.6004 60.8967 26.0389 60.8967C23.6599 60.8967 21.9487 60.8371 21.8931 60.7626C21.7679 60.5391 21.7957 51.1815 21.9209 51.0474C21.9766 50.9878 23.9799 50.9133 26.345 50.8835C30.2821 50.8239 30.7273 50.7941 31.4229 50.511C32.9254 49.915 33.6906 49.3934 34.7618 48.2461C36.0556 46.8603 36.7095 45.5342 37.0712 43.5524C37.2799 42.42 37.2938 42.0624 37.1547 41.0044C36.9182 39.2909 36.6399 38.5011 35.7774 37.1005C34.9288 35.7147 33.9271 34.776 32.4663 34.0012C30.9499 33.1817 29.8647 33.0326 25.6494 33.0326C22.8809 33.0326 21.9627 32.9879 21.8792 32.8389C21.8096 32.7495 21.7818 27.9665 21.8235 22.0062L21.8931 11.3524L22.3244 10.3689C22.7974 9.31098 23.966 7.92522 24.759 7.47821C25.0233 7.32921 25.5798 7.09079 25.9972 6.9418C26.7345 6.68847 28.7239 6.67359 75.9 6.67359C123.312 6.65868 125.051 6.67359 125.858 6.92689ZM140.146 23.0791C142.038 23.4516 143.986 25.0013 144.765 26.7297C145.127 27.5194 145.154 27.7728 145.21 29.6055C145.28 32.4664 144.932 58.0954 144.821 58.3338C144.612 58.7361 136.682 67.14 136.571 67.0655C136.432 66.9761 136.418 22.9897 136.571 22.8407C136.696 22.6917 139.019 22.8407 140.146 23.0791ZM29.8647 40.1849C31.2281 41.0789 31.1725 43.0756 29.7674 43.8653L29.1552 44.2081H18.5959C7.06277 44.2081 7.48014 44.2378 6.7567 43.3289C6.21413 42.6286 6.14457 41.973 6.53411 41.1236C7.14624 39.8124 6.35325 39.8869 18.6237 39.8869C29.1413 39.8869 29.4196 39.9018 29.8647 40.1849ZM170.614 43.0011C171.073 43.2991 176.499 49.0656 177.055 49.8405C177.458 50.4067 177.542 51.6285 177.208 52.2842C176.972 52.7759 172.506 57.6185 172.297 57.6185C172.116 57.6185 163.449 48.3653 163.449 48.1716C163.449 47.9332 167.525 43.5971 168.165 43.1501C168.93 42.6286 169.96 42.5541 170.614 43.0011ZM163.365 57.7526C166.176 60.7626 167.636 62.4314 167.609 62.5953C167.553 62.8188 115.48 118.711 115.313 118.711C115.271 118.711 113.24 116.565 110.792 113.943L106.34 109.174L132.494 81.1614C146.88 65.7542 158.747 53.1484 158.858 53.1484C158.969 53.1484 161 55.2195 163.365 57.7526ZM29.6978 67.9148C31.1307 68.6449 31.2699 70.4926 29.9899 71.5357L29.5169 71.9231H18.6098C7.91141 71.9231 7.68882 71.9231 7.24363 71.6251C6.6315 71.2227 6.20022 70.1946 6.32543 69.4496C6.43673 68.8089 6.9793 68.0787 7.56361 67.8105C7.8975 67.6466 10.0817 67.6168 18.5403 67.6019C28.9465 67.6019 29.1135 67.6019 29.6978 67.9148ZM30.1012 95.9129C31.2699 97.0752 31.0751 98.8335 29.7117 99.4891C29.1552 99.7722 28.6822 99.7871 18.582 99.7871C7.06277 99.7871 7.48014 99.8169 6.7567 98.908C6.21413 98.2076 6.14457 97.552 6.53411 96.7027C7.14624 95.3765 6.32543 95.451 18.7907 95.4957L29.7256 95.5404L30.1012 95.9129ZM145.252 96.658C145.28 96.7325 145.266 113.794 145.224 134.535L145.154 172.278L144.779 173.142C144 174.901 142.706 176.108 140.925 176.719C140.23 176.957 137.002 176.972 91.1059 176.972C42.2465 176.972 42.0239 176.972 41.1475 176.674C39.1719 175.988 37.7807 174.484 37.1964 172.397C37.0156 171.757 36.8625 167.823 37.0156 167.659C37.0573 167.614 56.6456 167.585 80.5466 167.585C109.261 167.585 124.439 167.525 125.26 167.436C130.338 166.81 134.233 163.472 135.847 158.376C136.446 156.499 136.459 156.379 136.459 130.452V105.747L140.744 101.143C143.096 98.595 145.057 96.5239 145.113 96.5239C145.154 96.509 145.224 96.5686 145.252 96.658ZM106.395 118.919C107.8 120.424 108.886 121.691 108.83 121.736C108.76 121.78 108.023 121.989 107.174 122.198C106.34 122.421 104.879 122.808 103.947 123.047C103.015 123.3 102.18 123.464 102.11 123.419C102.041 123.36 102.083 122.883 102.236 122.257C102.375 121.661 102.709 120.126 102.987 118.86C103.585 116.178 103.585 116.178 103.724 116.178C103.794 116.178 104.99 117.414 106.395 118.919ZM29.7117 123.479C31.1725 124.179 31.2559 126.295 29.8647 127.204C29.4196 127.502 29.183 127.502 18.4846 127.472L7.5497 127.428L7.11842 127.055C6.5202 126.548 6.31152 126.087 6.32543 125.342C6.33934 124.507 6.74279 123.837 7.42449 123.479C7.96706 123.196 8.25921 123.181 18.5542 123.181C28.6822 123.181 29.1552 123.196 29.7117 123.479Z" fill="black"/>
<path d="M48.1456 22.9161C47.4778 23.2588 46.9074 23.9144 46.6152 24.6446C46.3787 25.2555 46.3787 26.5965 46.6152 27.1926C46.8517 27.7886 47.5752 28.6379 48.1456 28.9657C48.5629 29.219 50.1767 29.2339 79.893 29.2339H111.195L111.794 28.8912C112.531 28.474 113.129 27.5949 113.352 26.6263C113.672 25.1959 112.92 23.5866 111.627 22.9161L111.042 22.6032H48.7299L48.1456 22.9161Z" fill="black"/>
<path d="M48.1769 46.0105C46.9804 46.6959 46.4378 47.6347 46.4378 49.0651C46.4378 50.3317 47.05 51.4045 48.0934 51.9856L48.8307 52.4028H79.7852C103.533 52.4028 110.879 52.3581 111.31 52.224C112.131 51.9558 113.021 50.9128 113.299 49.9145C113.48 49.2439 113.494 48.9906 113.355 48.3648C113.133 47.4112 112.479 46.4873 111.7 46.0403L111.087 45.6976H48.7333L48.1769 46.0105Z" fill="black"/>
<path d="M48.5851 68.9145C47.9312 69.1231 47.0547 69.9426 46.7626 70.628C46.0531 72.2522 46.5261 73.9807 47.9869 75.0684L48.4738 75.426H111.217L111.774 75.1131C112.497 74.7108 113.165 73.7721 113.374 72.8333C113.513 72.2075 113.499 71.9542 113.304 71.2539C113.026 70.2257 112.15 69.1976 111.343 68.9592C110.744 68.7804 49.1416 68.7506 48.5851 68.9145Z" fill="black"/>
<path d="M48.0796 92.3069C47.4953 92.6198 47.217 92.9029 46.8692 93.5287C46.438 94.2887 46.4101 94.4228 46.4519 95.4211C46.4936 96.33 46.5632 96.5834 46.9249 97.1347C47.1614 97.5072 47.6344 97.9542 48.0239 98.1777L48.7195 98.5949H71.758C92.5288 98.5949 94.8521 98.5651 95.3391 98.3565C97.5094 97.4029 97.9545 94.2589 96.1599 92.6645C95.8816 92.4261 95.4225 92.1579 95.1304 92.0536C94.7408 91.9344 88.4526 91.8897 71.7024 91.8897H48.8169L48.0796 92.3069Z" fill="black"/>
<path d="M48.6677 115.091C47.9582 115.24 46.9843 116.179 46.6365 117.058C46.3304 117.833 46.3861 119.174 46.7478 119.904C47.0817 120.575 47.833 121.29 48.4451 121.543C48.6955 121.647 54.9003 121.692 67.1152 121.692C87.3016 121.692 85.9243 121.752 86.9121 120.753C87.8581 119.785 88.1642 118.235 87.6355 116.998C87.3156 116.239 86.3974 115.345 85.7157 115.151C85.187 114.987 49.4468 114.942 48.6677 115.091Z" fill="black"/>
<path d="M48.4755 138.305C47.6547 138.633 47.2095 139.035 46.7921 139.87C46.4443 140.54 46.4026 140.764 46.4582 141.643C46.5139 142.865 46.9452 143.669 47.8634 144.295L48.4477 144.712H80.7238L81.3499 144.235C83.0193 142.999 83.2141 140.51 81.7533 139.02C80.7794 138.037 81.6837 138.082 64.5301 138.096C51.6336 138.096 48.9207 138.141 48.4755 138.305Z" fill="black"/>
</svg>
