<svg width="184" height="184" viewBox="0 0 184 184" fill="none" xmlns="http://www.w3.org/2000/svg">
<path d="M154.518 0.104148C154.417 0.167275 153.987 0.255647 153.571 0.306147C153.154 0.356639 152.498 0.495511 152.119 0.621756C151.74 0.748001 151.223 0.886873 150.983 0.937365C150.743 0.987865 149.998 1.3161 149.342 1.66959C148.685 2.02308 148.016 2.37656 147.865 2.45231C147.486 2.65431 145.858 3.97988 145.302 4.54798C140.53 9.37055 139.495 16.6675 142.74 22.7147L143.345 23.8509L132.539 34.6448C123.412 43.785 121.708 45.4388 121.494 45.3504C121.367 45.2999 120.812 44.9969 120.269 44.7066C116.835 42.7876 111.925 42.4846 107.936 43.9365C106.888 44.3278 105.802 44.858 105.133 45.3252C104.956 45.464 104.754 45.565 104.691 45.565C104.641 45.565 104.111 45.9943 103.517 46.5119C102.936 47.0295 102.381 47.4587 102.293 47.4587C102.154 47.4587 100.854 46.4992 98.7201 44.8328C97.786 44.1006 96.8897 43.4189 92.9258 40.389C91.7896 39.5179 90.502 38.5205 90.0602 38.1797C89.6183 37.8262 88.8861 37.2581 88.4191 36.9172C86.5129 35.478 84.4552 33.8242 84.4552 33.7106C84.4552 33.6601 84.6572 32.991 84.9096 32.2335C85.8059 29.5445 85.869 26.3 85.0864 23.4721C84.6193 21.8309 83.6094 19.6974 82.8267 18.7632C82.549 18.4349 82.2081 17.9678 82.0566 17.728C81.6401 17.0462 79.3046 15.1526 77.9286 14.3698C74.4949 12.4004 70.1523 11.8576 66.403 12.9307C63.6637 13.7007 60.9495 15.3546 59.2075 17.2987C58.0839 18.5486 58.0839 18.5612 57.1876 20.114C55.8621 22.4243 55.1678 25.0249 55.1678 27.714C55.1678 30.0874 55.9379 33.0036 57.074 34.9857C57.3517 35.4402 57.5664 35.8946 57.5664 35.9956C57.5664 36.084 52.7188 41.0076 46.7856 46.9411L36.0174 57.7098L34.5152 56.9523C32.6342 55.9929 31.1699 55.551 29.1627 55.3364C27.5973 55.1723 25.7037 55.248 24.4918 55.5384C20.7173 56.4347 17.8517 58.2274 15.5037 61.1689C14.5316 62.3935 13.4586 64.5649 12.9158 66.4207C12.4613 67.9483 12.4613 68.0114 12.4487 70.3091C12.4361 71.8493 12.4992 72.8971 12.6128 73.3894C13.446 77.0632 15.2386 80.0552 17.8643 82.1509C18.3566 82.5422 18.7732 82.8957 18.8111 82.9462C18.849 82.9967 19.3539 83.3123 19.9473 83.6532C21.096 84.3223 23.0022 85.0545 24.4287 85.3701C26.6253 85.8625 29.857 85.711 32.0788 85.0166C33.5431 84.5495 35.7523 83.4512 36.5981 82.7695C37.0652 82.3781 37.9867 81.6206 38.3023 81.3555C38.7694 80.9641 40.2969 78.9569 40.7009 78.1994C40.966 77.707 41.2816 77.1389 41.4078 76.9369C41.6098 76.5834 41.9254 75.6619 42.342 74.1595C42.6323 73.1622 42.8469 71.117 42.8217 69.8167C42.7712 67.7715 41.9885 64.9058 41.0038 63.1762C40.764 62.7596 40.5368 62.3177 40.4863 62.2041C40.4232 62.04 42.9353 59.4646 51.1408 51.2461C57.4149 44.9843 61.9721 40.5152 62.1109 40.5152C62.2246 40.5152 62.6538 40.7046 63.0451 40.9444C64.6483 41.9165 67.1479 42.6614 69.4328 42.8508C71.2885 43.0149 74.0784 42.573 75.9846 41.8282C77.1207 41.3863 78.9385 40.3385 79.8475 39.5936C80.264 39.2528 80.668 38.9498 80.7564 38.9119C80.8447 38.8867 81.375 39.2149 81.9304 39.6567C82.4985 40.086 83.0918 40.5405 83.2433 40.6415C83.3948 40.7425 84.127 41.3106 84.8844 41.9039C85.6418 42.4973 86.4497 43.1159 86.677 43.2926C86.9168 43.4694 87.8762 44.2016 88.823 44.9338C92.6102 47.8501 93.7337 48.7085 95.1476 49.7942C95.9681 50.4128 96.6624 50.9557 96.7003 50.9936C96.7382 51.0314 97.2305 51.4228 97.7986 51.852C98.3667 52.2813 98.8716 52.6852 98.9095 52.761C98.9474 52.8241 98.8085 53.5185 98.5813 54.3012C98.2278 55.551 98.1647 55.9676 98.1142 57.6846C98.0511 59.957 98.2404 61.3709 98.8716 63.1762C100.879 69.034 106.143 73.0233 112.404 73.4399C115.636 73.6546 118.805 72.8087 121.683 70.9655C122.478 70.4606 124.157 69.034 124.523 68.5416C124.662 68.3649 125.053 67.8978 125.394 67.5064C126.051 66.7237 127.338 64.325 127.768 63.0626C128.866 59.856 128.714 55.4753 127.427 52.5337C127.313 52.2686 127.162 51.9278 127.086 51.751C127.01 51.5743 126.758 51.1198 126.53 50.7284C126.303 50.3371 126.114 49.9331 126.114 49.8447C126.114 49.7437 130.961 44.8202 136.895 38.8867L147.663 28.1179L149.001 28.8249C151.601 30.2136 154.707 30.8322 157.585 30.5418C158.822 30.4156 159.58 30.2515 161.587 29.6329C162.281 29.4183 164.364 28.2821 165.059 27.7392C166.687 26.4641 167.078 26.0854 168.012 24.9239C169.136 23.5226 170.297 21.4017 170.6 20.2402C170.714 19.8236 170.891 19.2303 170.992 18.9273C171.32 18.0057 171.471 15.5439 171.307 13.7512C170.966 9.98914 168.884 6.02504 166.043 3.71476C165.526 3.29815 164.958 2.83104 164.768 2.67955C164.579 2.51543 164.389 2.38919 164.339 2.38919C164.288 2.38919 163.771 2.12407 163.203 1.80846C162.054 1.17724 160.489 0.621756 159.125 0.369265C158.646 0.280893 158.078 0.167275 157.876 0.104148C157.408 -0.0347161 154.77 -0.0347161 154.518 0.104148ZM158.368 6.51741C161.448 7.32537 163.771 9.54728 164.882 12.7539C165.273 13.8649 165.298 16.5539 164.945 17.7911C164.049 20.8588 161.764 23.1818 158.683 24.1665C157.762 24.4568 157.383 24.5073 156.096 24.5073C154.808 24.5073 154.417 24.4568 153.571 24.1917C150.402 23.1818 148.319 21.0735 147.272 17.8542C146.615 15.8595 146.893 13.2463 147.978 11.1632C149.935 7.40112 154.278 5.45695 158.368 6.51741ZM72.7276 18.7379C75.7195 19.508 78.3578 22.0708 79.2163 25.0502C80.4534 29.3678 78.3326 34.0641 74.293 35.9073C72.8917 36.5511 71.9702 36.7531 70.3922 36.7531C69.2939 36.7531 68.789 36.69 68.0441 36.4754C64.8503 35.5159 62.6033 33.2814 61.5807 30.0369C61.3409 29.2541 61.2904 28.8249 61.303 27.5751C61.303 26.2748 61.3661 25.9087 61.6565 24.9997C62.1993 23.3585 62.78 22.399 64.0171 21.1871C65.5573 19.6469 67.0469 18.8894 69.2434 18.5359C70.064 18.4097 71.8313 18.5107 72.7276 18.7379ZM115.51 49.365C118.577 50.1351 121.001 52.4328 122.024 55.5763C122.327 56.4852 122.365 56.8135 122.365 58.2527C122.365 59.7045 122.327 60.0075 122.024 60.9038C121.393 62.7722 120.282 64.3503 118.918 65.3603C117.189 66.6353 115.775 67.1403 113.616 67.2287C112.341 67.2918 112.026 67.2666 110.965 66.9762C109.211 66.5217 107.973 65.8147 106.749 64.5649C106.143 63.9589 105.562 63.2267 105.335 62.7849C105.12 62.3809 104.893 61.9264 104.817 61.7875C104.565 61.3204 104.262 60.0832 104.161 59.1616C103.757 55.4121 105.739 51.7889 109.173 50.0593C111.243 49.0115 113.212 48.7969 115.51 49.365ZM30.1095 61.6739C32.5206 62.3556 34.6793 64.1609 35.7776 66.3955C38.012 70.9529 36.2194 76.3057 31.7127 78.5655C30.3114 79.2725 29.5035 79.4492 27.5847 79.4492C25.6532 79.4618 24.9211 79.2851 23.2926 78.4771C21.2096 77.4419 19.5054 75.3841 18.7859 73.036C18.5586 72.3164 18.5081 71.8114 18.5081 70.4984C18.4955 68.6048 18.647 67.9483 19.4802 66.2692C20.2124 64.7922 21.8787 63.1005 23.3178 62.3809C25.6406 61.2068 27.7488 60.9922 30.1095 61.6739Z" fill="black"/>
<path d="M139.834 61.5105C139.178 61.7124 138.559 62.2553 138.143 62.9623L137.789 63.5556L137.663 177.555L134.772 177.593C132.753 177.618 131.831 177.58 131.717 177.479C131.566 177.353 131.541 171.823 131.541 141.916V106.492L131.276 105.949C130.947 105.28 130.455 104.762 129.811 104.446C129.344 104.219 128.751 104.207 113.615 104.169C103.099 104.143 97.6961 104.181 97.2795 104.27C96.522 104.434 95.7898 104.989 95.3354 105.759L94.9945 106.353L94.9314 177.467L94.6411 177.542C94.1487 177.669 89.2507 177.631 88.9856 177.492C88.7457 177.353 88.7457 176.659 88.7457 126.893C88.7457 94.0312 88.6952 76.2433 88.6195 75.8898C88.367 74.7914 87.5465 73.9456 86.4987 73.7057C85.7918 73.5416 55.0653 73.5669 54.2826 73.731C53.4873 73.8951 52.5279 74.7914 52.288 75.5742C52.1744 75.9655 52.1365 87.5674 52.1365 126.703C52.1365 169.513 52.1113 177.353 51.9598 177.479C51.8462 177.58 50.9246 177.618 48.9048 177.593L46.014 177.555L45.8877 118.725L45.5974 118.157C45.206 117.412 44.9914 117.185 44.3097 116.781L43.7417 116.452H11.4246L10.8313 116.806C10.0486 117.26 9.59413 117.866 9.39215 118.763C9.25329 119.356 9.21542 124.608 9.21542 148.468C9.21542 174.79 9.20279 177.467 9.01344 177.542C8.89982 177.58 6.82951 177.618 4.40573 177.618H0V183.678H183.677V177.618H179.271C176.848 177.618 174.777 177.58 174.664 177.542C174.474 177.467 174.462 172.366 174.462 120.921C174.462 58.8846 174.525 63.4799 173.73 62.4825C173.528 62.2427 173.111 61.9018 172.808 61.7251L172.253 61.4095L156.283 61.3842C144.303 61.3716 140.201 61.3968 139.834 61.5105ZM168.251 67.4692C168.465 67.545 168.478 177.239 168.251 177.467C168.036 177.681 144.152 177.681 143.937 177.467C143.748 177.277 143.71 67.6586 143.899 67.4566C144.026 67.343 167.923 67.343 168.251 67.4692ZM82.661 128.534C82.6863 176.785 82.6863 177.353 82.4464 177.492C82.2697 177.58 78.3437 177.605 70.2265 177.593L58.2591 177.555L58.2212 128.761C58.2086 101.922 58.2212 79.8917 58.2591 79.8034C58.297 79.6771 60.8091 79.6519 70.4664 79.6771L82.6232 79.715L82.661 128.534ZM125.418 177.555L113.451 177.593C105.346 177.605 101.407 177.58 101.231 177.492C100.991 177.353 100.991 176.911 100.991 143.936C100.991 118.03 101.029 110.468 101.142 110.355C101.256 110.241 104.084 110.203 113.362 110.228L125.418 110.266V177.555ZM39.7399 122.6C39.9545 122.815 39.9545 177.252 39.7399 177.467C39.5253 177.681 15.641 177.681 15.4264 177.467C15.2118 177.252 15.2118 122.815 15.4264 122.6C15.641 122.386 39.5253 122.386 39.7399 122.6Z" fill="black"/>
</svg>
