<svg width="44" height="30" viewBox="0 0 44 30" fill="none" xmlns="http://www.w3.org/2000/svg">
<path d="M17.175 3.01549C17.0375 3.04131 16.911 3.15146 16.8328 3.31325C16.7969 3.38554 16.7969 3.39071 16.7922 4.23236L16.7875 5.07745L16.75 5.08778C16.7282 5.09466 16.361 5.09811 15.9344 5.09811C15.2219 5.09639 15.1407 5.09983 14.9719 5.13253C14.4766 5.22547 14.0344 5.48021 13.6844 5.87436C13.4813 6.10499 13.3782 6.26334 13.2485 6.54733C13.1532 6.75732 13.0782 7.01205 13.0344 7.27022L13 7.48193V16.0189C13 25.2771 12.9954 24.7074 13.086 25.0688C13.1641 25.3804 13.2375 25.5594 13.3907 25.8244C13.5579 26.1119 13.8407 26.4131 14.1329 26.6162C14.375 26.7831 14.6328 26.8898 14.9844 26.969C15.1188 26.9983 15.4094 27 22 27H28.875L29.0469 26.9621C29.5688 26.8485 29.9828 26.6007 30.3484 26.1842C30.6859 25.7986 30.9047 25.2943 30.9797 24.7281C30.9969 24.6024 31 23.0034 31 16.0275V7.48193L30.9656 7.27022C30.8734 6.71945 30.6672 6.27367 30.3234 5.88296C29.9594 5.4716 29.5453 5.23236 29.0234 5.13081C28.8594 5.09983 28.7766 5.09639 28.0656 5.09811C27.6391 5.09811 27.2719 5.09466 27.25 5.08778L27.2125 5.07745L27.2078 4.23236C27.2031 3.39071 27.2031 3.38554 27.1672 3.31325C27.0594 3.08778 26.8688 2.97763 26.6531 3.01549C26.5016 3.04303 26.3516 3.18416 26.2875 3.35972C26.2703 3.4062 26.2641 3.60069 26.2578 4.25473L26.25 5.0895L24.3844 5.09466C23.0188 5.09638 22.5141 5.09294 22.4985 5.07917C22.4813 5.06368 22.4766 4.91394 22.4766 4.27367C22.4766 3.65921 22.4719 3.46988 22.4547 3.39931C22.3969 3.15835 22.225 3.01205 22 3.01205C21.775 3.01205 21.6031 3.15835 21.5453 3.39931C21.5281 3.46988 21.5235 3.65921 21.5235 4.27367C21.5235 4.91394 21.5188 5.06368 21.5016 5.07917C21.486 5.09294 20.9813 5.09638 19.6157 5.09466L17.75 5.0895L17.7422 4.25473C17.736 3.60069 17.7297 3.4062 17.7125 3.35972C17.6469 3.18072 17.5 3.04303 17.3391 3.01377C17.2907 3.00516 17.25 3 17.25 3C17.25 3 17.2172 3.00861 17.175 3.01549ZM16.7891 6.98279C16.7969 7.79518 16.7985 7.8296 16.8297 7.90534C16.9532 8.19794 17.2844 8.30637 17.5203 8.13081C17.5938 8.07745 17.6813 7.95697 17.7125 7.86919C17.7282 7.82272 17.736 7.61962 17.7422 6.97418L17.75 6.13942L19.6016 6.13425C20.6203 6.13253 21.4688 6.13425 21.4891 6.13942L21.5235 6.14802V6.93115C21.5235 7.43374 21.5297 7.74527 21.5406 7.80379C21.586 8.04647 21.7735 8.21342 22 8.21342C22.2266 8.21342 22.4141 8.04647 22.4594 7.80379C22.4703 7.74527 22.4766 7.43374 22.4766 6.93115V6.14802L22.5125 6.13942C22.5313 6.13425 23.3797 6.13253 24.3985 6.13425L26.25 6.13942L26.2578 6.97418C26.2672 7.88468 26.2656 7.86575 26.3625 8.00689C26.5828 8.3253 27.0172 8.27022 27.1703 7.90534C27.2016 7.8296 27.2031 7.79518 27.2109 6.98279L27.2188 6.13942H28.0234C28.7469 6.14114 28.8391 6.14286 28.9375 6.17212C29.2406 6.25818 29.4469 6.38382 29.6391 6.60241C29.8375 6.8296 29.9406 7.03615 30.0188 7.36145C30.0453 7.47676 30.0469 7.79174 30.0469 16.0534C30.0469 24.2685 30.0453 24.6299 30.0188 24.7367C29.9578 24.9793 29.9047 25.1067 29.7891 25.296C29.7109 25.4234 29.5578 25.5921 29.4391 25.6833C29.3344 25.7625 29.1266 25.8657 28.9844 25.9105L28.8594 25.9501H22.0156C16.2813 25.9501 15.1563 25.9466 15.0782 25.926C14.4594 25.7711 14.0141 25.2186 13.9594 24.5387C13.95 24.4165 13.9454 21.3528 13.9485 15.9071L13.9532 7.46472L13.9875 7.33563C14.0594 7.05336 14.1313 6.89673 14.2735 6.70912C14.5188 6.38554 14.8453 6.18933 15.211 6.14802C15.275 6.14114 15.6547 6.13597 16.0547 6.13769L16.7813 6.13942L16.7891 6.98279Z" fill="black"/>
<path d="M19.3377 10.3393C19.3031 10.3531 19.252 10.3806 19.2223 10.4013C19.1926 10.4219 18.7951 10.8281 18.3366 11.3049L17.5037 12.1706L17.1656 11.8212C16.9792 11.6302 16.7945 11.4529 16.7533 11.4288C16.5801 11.3255 16.3954 11.3307 16.2321 11.4426C16.0375 11.5768 15.9616 11.8143 16.0358 12.0536C16.0622 12.1396 16.1035 12.1861 16.6444 12.7507C17.0023 13.1242 17.2464 13.3651 17.2844 13.3841C17.4245 13.4495 17.5829 13.4495 17.7231 13.3841C17.789 13.3513 19.8639 11.2085 19.9216 11.1104C20.1277 10.7662 19.8903 10.31 19.5076 10.3152C19.4482 10.3152 19.3724 10.3273 19.3377 10.3393Z" fill="black"/>
<path d="M21.3888 11.3666C21.1694 11.4182 21.0078 11.6299 21.0078 11.8674C21.0078 12.0774 21.1035 12.2426 21.2816 12.3356L21.3789 12.3872H24.9991H28.6193L28.7134 12.339C29.0614 12.16 29.0927 11.666 28.7694 11.4423C28.7232 11.4113 28.6457 11.3752 28.5979 11.3648C28.4841 11.3407 21.4977 11.3407 21.3888 11.3666Z" fill="black"/>
<path d="M19.3457 15.5524C19.3078 15.5662 19.2484 15.5972 19.2171 15.623C19.1841 15.6488 18.7883 16.0567 18.3364 16.5283C17.8844 17.0016 17.5101 17.3872 17.5035 17.3872C17.4985 17.3872 17.3484 17.2357 17.1686 17.0498C16.9905 16.8639 16.8206 16.6935 16.7926 16.6712C16.5765 16.4973 16.2187 16.5696 16.0818 16.8157C15.9877 16.9844 15.9828 17.1892 16.0702 17.3441C16.118 17.4302 17.2049 18.561 17.2726 18.5972C17.4259 18.6763 17.6189 18.6677 17.7591 18.5731C17.8003 18.5472 18.3017 18.0343 18.874 17.4354C19.6508 16.623 19.9246 16.3269 19.9494 16.2684C20.0648 16.0102 19.9659 15.7176 19.7152 15.5782C19.6327 15.5318 19.4447 15.5197 19.3457 15.5524Z" fill="black"/>
<path d="M21.4267 16.5767C21.2585 16.6077 21.1117 16.7265 21.0424 16.8883C21.0095 16.9674 21.0045 17.0036 21.0095 17.112C21.0193 17.3168 21.1117 17.4666 21.2832 17.5543L21.3772 17.6025H25.0057H28.6342L28.7166 17.5561C28.9822 17.4098 29.0729 17.0776 28.9195 16.8177C28.8667 16.7265 28.7925 16.6628 28.6787 16.6077L28.6012 16.5698L25.0469 16.5681C23.0925 16.5664 21.463 16.5698 21.4267 16.5767Z" fill="black"/>
<path d="M19.3693 20.7677C19.333 20.778 19.277 20.8004 19.2473 20.8193C19.2159 20.8365 18.8119 21.2444 18.35 21.7264C17.8882 22.2083 17.5056 22.6024 17.5007 22.6024C17.4957 22.6024 17.3275 22.4338 17.1263 22.2272C16.7106 21.7969 16.6876 21.7832 16.4698 21.7969C16.333 21.8073 16.2488 21.8451 16.1565 21.9432C15.9998 22.105 15.9635 22.3494 16.0641 22.5542C16.0823 22.5904 16.3412 22.8761 16.6496 23.198C17.2764 23.852 17.2912 23.8641 17.5056 23.8641C17.7217 23.8641 17.6705 23.9088 18.8465 22.6833C19.6744 21.821 19.9152 21.5594 19.9466 21.4923C20.1346 21.093 19.7767 20.6437 19.3693 20.7677Z" fill="black"/>
<path d="M21.3542 21.8091C21.2766 21.8349 21.214 21.8762 21.1447 21.9519C21.049 22.0552 21.0078 22.155 21.0078 22.2945C21.0078 22.4597 21.0457 22.5595 21.1546 22.6714C21.3195 22.8418 20.927 22.8263 25.0107 22.8263C29.0284 22.8263 28.6705 22.8383 28.8255 22.6938C28.9228 22.6025 28.9657 22.5251 28.9871 22.3994C29.0284 22.1602 28.8964 21.9124 28.682 21.828C28.5946 21.7936 28.5534 21.7936 24.9942 21.7953C23.015 21.7953 21.3773 21.8022 21.3542 21.8091Z" fill="black"/>
</svg>
