<svg width="183" height="181" viewBox="0 0 183 181" fill="none" xmlns="http://www.w3.org/2000/svg">
<path d="M142.249 0.203989C135.032 1.03077 125.826 4.40489 119.815 8.38231C115.972 10.952 112.91 14.0803 111.48 16.9405C110.698 18.5494 110.787 18.0801 109.491 27.2193C108.866 31.5766 108.084 37.0288 107.749 39.3304L107.168 43.5089L84.0403 66.6138L73.7839 56.268C68.1529 50.5923 63.5722 45.8328 63.5945 45.6764C63.6169 45.5423 63.8626 44.7155 64.1308 43.8664C64.8011 41.7213 64.8682 36.6042 64.2649 34.258C63.6615 31.9788 62.075 28.8281 60.5556 26.9511C59.1255 25.1859 60.6226 26.2137 42.5901 14.4602C24.7139 2.81837 23.0604 1.7905 22.2113 1.61174C20.6918 1.34359 19.9544 1.94691 11.7761 10.1476C3.46369 18.5047 3.48604 18.4823 3.86591 20.337C4.02232 21.0967 4.17874 21.3425 13.6307 35.8222C17.2507 41.3414 21.8091 48.3131 23.7754 51.3074C27.5741 57.1618 28.5126 58.212 31.3058 59.8655C34.6128 61.8543 36.758 62.4129 41.2047 62.3906C44.4224 62.3906 44.9586 62.3235 46.4781 61.8096L48.1987 61.2509L58.3881 71.4403C63.9967 77.049 68.5775 81.7415 68.5775 81.8532C68.5775 81.9873 62.9242 87.73 55.9972 94.657L43.4392 107.215L36.4004 108.22C32.5347 108.779 26.9038 109.561 23.9095 109.986C19.1276 110.678 18.2785 110.857 17.0272 111.461C10.6141 114.634 4.31281 124.599 1.40794 136.241C-0.491399 143.839 -0.469053 151.637 1.47497 157.804C2.65927 161.625 4.1117 164.039 5.56414 164.642C6.41325 164.999 7.97741 164.821 8.7595 164.307C9.11702 164.083 10.413 162.139 11.9772 159.525C15.4184 153.738 19.9991 146.945 21.4515 145.47C22.0996 144.822 23.2615 143.995 24.0436 143.593C25.2502 143.012 25.7418 142.9 27.0825 142.9C31.9538 142.9 38.8361 147.682 40.646 152.33C41.2717 153.916 41.4951 157.223 41.0482 158.408C40.8918 158.832 38.5232 162.966 35.7971 167.569C31.2611 175.189 30.8142 176.06 30.8142 176.976C30.8142 178.094 31.3951 179.144 32.4454 179.926C33.0487 180.373 33.4062 180.395 38.1434 180.462C40.9365 180.507 43.6179 180.485 44.1095 180.395C44.8246 180.306 45.9195 179.591 49.2489 177.088C62.7007 166.988 69.1361 161.156 70.2087 158.117C70.4992 157.335 70.5885 155.436 70.6779 147.771C70.745 142.61 70.879 137.515 70.9461 136.442L71.1025 134.498L83.5934 122.03C90.4534 115.17 96.1514 109.539 96.2408 109.516C96.3302 109.472 98.4976 111.572 101.09 114.142L105.782 118.834L101.626 123.013C99.3244 125.337 97.291 127.527 97.0899 127.929C96.643 128.823 96.643 129.784 97.0675 130.834C97.3133 131.392 103.95 138.185 118.251 152.442C129.714 163.882 139.635 173.714 140.305 174.273C148.707 181.401 161.422 181.647 170.471 174.898C172.661 173.267 176.572 169.2 177.912 167.167C183.856 158.162 183.297 146.654 176.527 138.23C175.812 137.336 165.824 127.236 154.361 115.773C131.434 92.8917 132.73 94.076 130.652 94.6793C129.87 94.9251 128.932 95.7295 125.446 99.193C123.1 101.517 121.089 103.416 120.977 103.416C120.619 103.416 111.637 94.3218 111.726 94.0536C111.771 93.9196 116.932 88.6908 123.167 82.4565L134.518 71.0828L137.244 70.9487C138.741 70.8594 143.948 70.7253 148.797 70.6583L157.623 70.5018L158.964 69.8091C161.824 68.312 168.036 61.2733 176.907 49.4974C178.94 46.7936 180.147 44.9613 180.303 44.3804C180.46 43.8217 180.527 41.5872 180.482 38.4142C180.415 33.3419 180.415 33.3195 179.812 32.4257C179.499 31.9341 178.851 31.3531 178.382 31.1297C176.75 30.3699 176.37 30.5264 167.075 36.0456L158.517 41.1403L156.595 41.252C151.768 41.5202 147.679 38.6823 144.484 32.7832C141.981 28.2025 142.272 24.6272 145.355 21.4989C146.763 20.1135 154.874 14.6613 160.081 11.6224C163.477 9.63364 163.924 9.29847 164.393 8.42701C165.019 7.26506 164.974 5.83497 164.282 4.89647C162.874 2.97478 157.265 0.82966 151.925 0.18164C149.78 -0.06415 144.529 -0.06415 142.249 0.203989ZM151.322 7.26506C152.148 7.33209 152.819 7.46617 152.819 7.55555C152.819 7.64493 151.634 8.47169 150.204 9.3655C139.166 16.2255 135.747 20.4934 135.792 27.331C135.814 31.9341 138.138 37.1852 142.205 41.8554C146.495 46.7713 152.93 49.2069 159.075 48.2014C161.019 47.8885 161.868 47.464 167.879 43.8888C170.672 42.2129 173.063 40.8498 173.175 40.8498C173.287 40.8498 173.376 41.252 173.376 41.766C173.376 42.5927 173.086 43.0396 170.136 46.9054C164.528 54.2122 158.561 61.3627 156.64 63.0609C156.215 63.4408 155.701 63.4855 150.964 63.5748C143.255 63.6866 132.105 64.2675 131.479 64.6027C131.211 64.7368 125.513 70.256 118.854 76.8255C112.195 83.395 106.654 88.8025 106.542 88.8472C106.363 88.9143 100.464 83.0822 100.576 82.9481C126.273 57.2065 124.91 58.7259 124.597 56.4467C124.44 55.3295 123.345 54.1228 122.161 53.7653C120.239 53.1843 120.53 52.9609 107.436 66.0328L95.4364 77.9875L92.2633 74.8145L89.0903 71.6191L101.268 59.4186C107.972 52.7151 113.558 47.0171 113.67 46.7713C113.804 46.5255 114.72 40.537 115.726 33.4759C117.782 19.0633 117.58 19.8007 119.927 17.4098C122.407 14.9071 125.736 12.829 130.786 10.7062C135.412 8.73985 138.674 7.77901 142.316 7.35444C144.149 7.13099 149.333 7.06395 151.322 7.26506ZM25.1608 11.533C26.6133 12.4938 33.7637 17.1863 41.0482 21.9458C49.7629 27.6662 54.5447 30.9286 55.0363 31.5095C57.2485 34.0792 58.187 38.4142 57.2932 41.8554C56.5558 44.6485 55.7514 45.8551 52.1538 49.4974C48.6903 52.9832 47.0814 54.2122 44.981 54.9273C42.0538 55.9328 38.769 55.687 35.8418 54.2569C34.8586 53.7653 33.7414 53.095 33.3392 52.7598C32.9593 52.4023 30.5907 48.9611 28.0657 45.0954C25.563 41.2297 20.9153 34.1016 17.7646 29.2527C14.5916 24.4038 11.9995 20.3593 11.9772 20.2476C11.9325 20.0465 22.0996 9.79007 22.3677 9.79007C22.4571 9.79007 23.7307 10.5721 25.1608 11.533ZM87.906 80.4007L116.061 108.556L113.491 111.125C112.083 112.533 110.832 113.695 110.698 113.695C110.586 113.695 97.8049 101.025 82.3197 85.5401L54.1649 57.3852L56.7345 54.8155C58.1423 53.4078 59.3936 52.2459 59.5277 52.2459C59.6394 52.2459 72.4208 64.9156 87.906 80.4007ZM77.0016 90.0539C78.6328 91.685 79.9735 93.1151 79.9735 93.2492C79.9735 93.3609 74.0967 99.3494 66.9239 106.545C55.2598 118.209 53.852 119.706 53.6956 120.466C53.2487 123.013 55.4609 125.225 57.9188 124.644C58.3881 124.555 58.8126 124.421 58.8797 124.376C58.9244 124.354 64.8458 118.432 72.041 111.237L85.1352 98.1875L91.2578 104.31L78.0295 117.561C70.7673 124.823 64.6671 131.102 64.466 131.482C64.0414 132.353 63.4381 143.816 63.4381 151.168V156.039L62.589 156.933C60.4215 159.301 53.1593 165.312 44.9586 171.547C42.8359 173.155 42.3666 173.424 41.5845 173.446C41.0706 173.446 40.646 173.379 40.646 173.29C40.646 173.178 42.1208 170.63 43.9308 167.592C45.7407 164.553 47.3943 161.603 47.5954 161.044C48.154 159.614 48.5339 156.531 48.3551 154.944C47.6177 147.995 43.3274 142.185 36.1993 138.431C32.6912 136.576 30.0321 135.817 27.0155 135.817C22.7476 135.817 18.4349 137.872 15.5524 141.269C14.0106 143.057 11.2622 146.967 9.36281 150.073C8.44666 151.57 7.61989 152.799 7.53051 152.799C7.17299 152.799 7.01657 150.922 7.03892 146.989C7.03892 141.068 7.75396 137.694 10.279 131.549C12.5135 126.052 14.9268 122.141 17.5635 119.728C19.3288 118.119 20.4237 117.583 22.6582 117.27C36.2664 115.416 46.2994 113.896 46.8133 113.606C47.1708 113.427 53.3381 107.394 60.5332 100.199C67.7284 93.0034 73.6945 87.1043 73.8286 87.1043C73.9403 87.1043 75.3704 88.445 77.0016 90.0539ZM151.232 122.588C161.891 133.247 171.03 142.52 171.544 143.213C175.588 148.576 176.035 156.084 172.684 162.184C171.969 163.48 171.075 164.53 168.818 166.765C165.622 169.938 164.304 170.832 161.489 171.815C157.802 173.066 153.668 173.088 150.048 171.837C146.115 170.496 146.54 170.854 124.999 149.246L105.246 129.448L118.362 116.309C125.58 109.092 131.568 103.193 131.658 103.193C131.77 103.193 140.574 111.907 151.232 122.588Z" fill="black"/>
</svg>
