<svg width="125" height="162" viewBox="0 0 125 162" fill="none" xmlns="http://www.w3.org/2000/svg">
<path d="M15.8409 0.125696C15.5984 0.186304 15.1589 0.246927 14.8861 0.262079C14.5982 0.262079 14.1587 0.368172 13.901 0.489403C13.6283 0.610649 13.113 0.807655 12.7341 0.9289C11.0065 1.51995 10.2184 1.8382 10.0062 2.02005C9.885 2.12613 9.4152 2.39893 8.99086 2.6111C8.55137 2.82326 8.18765 3.06573 8.18765 3.12636C8.18765 3.20213 7.89971 3.4143 7.55115 3.61131C6.61155 4.14173 4.62626 6.09671 3.91398 7.20302C3.58057 7.73344 3.24716 8.15779 3.18654 8.15779C3.12592 8.15779 2.85314 8.56696 2.5955 9.06707C2.32272 9.55202 2.04993 10.0067 1.97415 10.0521C1.91353 10.0976 1.80745 10.3552 1.74683 10.628C1.68621 10.8857 1.4892 11.4464 1.29218 11.8707C-0.405163 15.614 -0.435472 20.9637 1.23156 24.6008C1.38311 24.9342 1.54982 25.404 1.61044 25.6617C1.71652 26.1012 2.15601 26.9195 2.83798 27.9046C3.035 28.1774 3.3684 28.6926 3.59573 29.0564C4.20192 30.0414 6.47515 32.3601 7.27836 32.8299C7.65723 33.0421 8.09673 33.3452 8.26343 33.5119C8.67261 33.8908 10.5367 34.9819 10.7943 34.9819C10.9155 34.9819 11.2793 35.1183 11.5975 35.285C11.9309 35.4669 12.5068 35.6639 12.8857 35.7548C13.6737 35.9367 14.0223 36.2095 14.4163 36.9824C14.7043 37.5279 14.7043 38.6494 14.7043 80.7497C14.7043 122.85 14.7043 123.971 14.4163 124.517C14.0223 125.29 13.6283 125.608 12.9463 125.714C12.6129 125.775 12.0521 125.972 11.6884 126.169C11.3247 126.366 10.9307 126.517 10.8094 126.517C10.5518 126.517 8.71808 127.578 8.18765 128.033C7.97549 128.215 7.5663 128.488 7.27836 128.639C6.65701 128.957 3.79274 131.852 3.79274 132.17C3.79274 132.276 3.56542 132.64 3.29263 132.973C2.70159 133.686 1.67106 135.353 1.67106 135.61C1.67106 135.716 1.50435 136.186 1.32249 136.656C0.367736 138.929 0.00401906 140.596 0.00401906 142.733C0.00401906 145.522 0.398046 147.658 1.29218 149.629C1.4892 150.038 1.68621 150.614 1.74683 150.871C1.80745 151.144 1.91353 151.402 1.98931 151.462C2.06508 151.508 2.33787 151.947 2.58035 152.447C2.83798 152.932 3.09561 153.342 3.17139 153.342C3.24716 153.342 3.56542 153.736 3.85336 154.236C4.45955 155.221 6.21752 156.964 7.46022 157.797C7.89971 158.1 8.4756 158.494 8.74839 158.691C9.80923 159.419 10.5518 159.828 11.0519 159.934C11.3247 159.995 11.7794 160.161 12.037 160.313C12.2946 160.464 12.7493 160.631 13.0372 160.692C13.3252 160.752 13.6434 160.874 13.7495 160.949C14.2951 161.389 18.9476 161.662 20.9178 161.374C22.2362 161.177 24.0094 160.661 25.1005 160.146C25.4339 159.995 25.7976 159.858 25.9037 159.858C26.1007 159.858 27.6768 158.964 28.3436 158.464C28.5558 158.312 28.9953 158.009 29.3287 157.797C30.1925 157.236 32.2233 155.221 32.8295 154.327C33.1174 153.902 33.466 153.402 33.6175 153.19C34.1177 152.523 35.0118 150.947 35.0118 150.75C35.0118 150.644 35.1482 150.28 35.2997 149.947C35.815 148.871 36.3454 147.098 36.5273 145.84C36.8304 143.839 36.5576 139.141 36.0878 138.596C36.012 138.49 35.8908 138.141 35.8302 137.808C35.7695 137.474 35.5574 136.899 35.3604 136.535C35.1785 136.171 35.0118 135.762 35.0118 135.656C35.0118 135.383 34.0267 133.716 33.5569 133.186C33.3751 132.973 33.0871 132.534 32.9204 132.2C32.6173 131.594 29.7379 128.639 29.4348 128.639C29.359 128.639 28.9498 128.366 28.5558 128.033C28.1466 127.699 27.7678 127.427 27.7071 127.427C27.6465 127.427 27.2525 127.23 26.8585 126.972C26.4493 126.73 26.0249 126.517 25.9037 126.517C25.7825 126.517 25.3581 126.351 24.9338 126.154C24.5246 125.942 23.9184 125.745 23.6153 125.684C23.0091 125.593 22.4484 125.017 22.1453 124.214C22.0392 123.926 21.9786 118.182 21.9786 106.907C21.9634 88.0543 21.9028 89.0848 22.9485 89.0848C23.5092 89.0848 23.7214 89.2667 23.873 89.8577C24.07 90.6458 25.1611 92.1764 26.7069 93.8283C28.6619 95.9349 30.5563 97.7989 31.1473 98.2081C31.4049 98.3899 31.8747 98.8143 32.2233 99.1477C33.0871 100.012 34.0873 100.815 34.7087 101.133C34.9966 101.285 35.5119 101.618 35.8453 101.891C36.1787 102.148 36.6485 102.451 36.891 102.558C37.1335 102.648 37.5123 102.876 37.7245 103.042C38.5277 103.664 39.8007 104.437 40.2402 104.573C40.8767 104.785 42.9226 105.77 43.1954 105.998C43.4379 106.195 44.8928 106.74 45.8475 106.983C46.1809 107.074 46.6204 107.24 46.8023 107.362C47.2418 107.65 48.8027 108.18 49.6363 108.332C50.197 108.438 50.7274 108.559 53.4553 109.18C53.9857 109.301 54.8344 109.498 55.3648 109.605C57.244 110.029 62.3209 110.165 74.8691 110.15C86.9173 110.12 87.281 110.135 87.8417 110.423C88.6298 110.832 88.9177 111.166 89.0389 111.893C89.0996 112.226 89.2814 112.711 89.433 112.969C89.5997 113.227 89.7209 113.545 89.7209 113.666C89.7209 114.03 91.0242 116.394 91.3273 116.561C91.4486 116.621 91.691 116.97 91.8577 117.318C92.2972 118.182 94.6462 120.562 95.4798 120.986C95.8586 121.183 96.2981 121.486 96.4648 121.668C96.6315 121.85 97.0407 122.138 97.3741 122.304C97.7075 122.471 98.0864 122.698 98.2076 122.804C98.3289 122.911 98.7381 123.077 99.1018 123.183C99.4655 123.274 99.9201 123.456 100.087 123.562C100.269 123.683 100.678 123.835 101.011 123.926C101.345 124.002 101.905 124.184 102.254 124.305C104.118 124.987 109.816 124.896 111.271 124.153C111.498 124.032 111.802 123.941 111.953 123.941C112.105 123.941 112.529 123.774 112.908 123.577C113.287 123.38 113.772 123.183 113.984 123.138C114.423 123.032 115.939 122.168 116.621 121.638C116.863 121.441 117.333 121.107 117.682 120.895C118.333 120.471 121.092 117.682 121.092 117.44C121.092 117.364 121.364 116.97 121.698 116.591C122.031 116.212 122.304 115.833 122.304 115.757C122.304 115.682 122.516 115.288 122.759 114.894C123.016 114.5 123.213 114.075 123.213 113.954C123.213 113.818 123.38 113.363 123.592 112.954C123.789 112.529 123.971 112.075 123.971 111.923C123.971 111.772 124.077 111.438 124.213 111.196C124.501 110.635 124.88 107.907 124.88 106.361C124.88 104.876 124.501 102.3 124.213 101.739C124.077 101.482 123.971 101.148 123.971 100.981C123.971 100.815 123.804 100.36 123.592 99.9661C123.38 99.572 123.213 99.1477 123.213 98.9961C123.213 98.7537 122.365 97.2382 121.819 96.5107C121.667 96.2986 121.304 95.7833 121.031 95.3741C120.5 94.5709 117.879 91.9643 117.606 91.9643C117.53 91.9643 117.197 91.737 116.894 91.449C116.287 90.9186 114.075 89.691 113.711 89.691C113.59 89.691 113.241 89.5546 112.938 89.4031C111.377 88.5696 109.24 88.1756 106.316 88.1907C104.148 88.1907 102.603 88.3877 101.921 88.7363C101.754 88.8272 101.345 88.9485 101.026 88.9939C100.708 89.0545 100.284 89.2061 100.102 89.3273C99.9201 89.4486 99.42 89.6456 98.9957 89.7668C98.5714 89.9032 98.1773 90.0699 98.1319 90.1457C98.0712 90.2366 97.7075 90.4639 97.3135 90.661C96.9195 90.8731 96.5103 91.1459 96.3891 91.2823C96.283 91.4187 95.9344 91.6612 95.6465 91.8127C94.8736 92.2068 92.2366 94.8134 91.8729 95.5408C91.7062 95.8742 91.4486 96.238 91.3122 96.3592C91.1758 96.4804 90.9181 96.8441 90.7514 97.1776C90.5847 97.5261 90.312 97.9656 90.1604 98.1626C89.9937 98.3596 89.8725 98.6324 89.8725 98.784C89.8725 98.9204 89.7058 99.3599 89.5087 99.7539C89.3117 100.148 89.0996 100.724 89.0389 101.027C88.9783 101.33 88.7965 101.754 88.6146 101.936C87.8114 102.8 88.6146 102.755 73.1415 102.739C64.8063 102.724 58.4412 102.648 57.8199 102.558C55.5467 102.239 53.4098 101.8 52.4399 101.436C52.152 101.33 51.3336 101.118 50.6213 100.981C49.909 100.83 49.0452 100.542 48.6967 100.36C48.3481 100.163 47.9389 99.9964 47.7874 99.9964C47.6358 99.9964 47.2418 99.8297 46.9084 99.6175C46.575 99.4205 46.1658 99.2386 45.9991 99.2386C45.8324 99.2386 45.5293 99.1325 45.3171 99.0113C45.1049 98.8901 44.5594 98.6173 44.1047 98.4051C43.6501 98.1929 43.1348 97.8898 42.9681 97.7383C42.8014 97.5867 42.4074 97.3746 42.1043 97.2836C41.8012 97.1776 41.4678 97.0109 41.3768 96.8896C41.2859 96.7684 40.8464 96.4653 40.4221 96.2076C39.3764 95.6014 38.0882 94.6164 35.6786 92.6008C34.1328 91.2975 33.6327 90.7974 32.2991 89.2212C31.7232 88.5241 31.0109 87.6754 30.723 87.342C30.435 87.0086 30.041 86.4631 29.8288 86.1296C29.6167 85.7962 29.3287 85.4174 29.1923 85.2961C29.0408 85.19 28.768 84.7809 28.571 84.402C28.3891 84.0231 28.086 83.5836 27.9193 83.4169C27.7375 83.2654 27.5556 82.9471 27.5101 82.7046C27.4495 82.4773 27.2828 82.1288 27.1464 81.9317C26.6918 81.3559 25.6764 79.3251 25.5551 78.7795C25.5097 78.4916 25.3733 78.1582 25.2521 78.0369C25.146 77.9005 24.9641 77.5217 24.858 77.1883C24.7519 76.8549 24.5701 76.4305 24.4488 76.2335C24.3276 76.0365 24.1003 75.3242 23.9336 74.6422C23.7669 73.9603 23.5092 72.9601 23.3425 72.4145C23.191 71.8689 22.994 71.0808 22.903 70.6717C22.8121 70.2473 22.6303 69.429 22.509 68.8531C22.0998 66.9739 21.9634 61.6242 22.0089 49.273L22.0544 37.2855L22.509 36.6186C22.8727 36.1185 23.1152 35.9367 23.5699 35.8306C23.9033 35.77 24.5246 35.5426 24.9338 35.3456C25.3581 35.1486 25.7825 34.9819 25.9037 34.9819C26.1007 34.9819 27.6617 34.1029 28.3436 33.5877C28.5558 33.4361 29.0711 33.0876 29.4803 32.7996C30.435 32.1631 32.6022 29.9202 32.9659 29.2231C33.1023 28.9351 33.3751 28.5259 33.5569 28.3138C34.0267 27.7834 35.0118 26.1163 35.0118 25.8587C35.0118 25.7374 35.1482 25.3737 35.3149 25.0555C35.4967 24.7221 35.7089 24.1462 35.7998 23.7673C35.8908 23.3884 36.0272 23.0096 36.1029 22.9035C36.5576 22.3276 36.8304 17.6447 36.5273 15.6595C36.3303 14.3107 35.9059 12.8558 35.3604 11.7192C35.1785 11.2948 35.0118 10.8705 35.0118 10.7493C35.0118 10.5522 34.1328 8.99129 33.6175 8.30933C33.466 8.09716 33.1174 7.58189 32.8295 7.17271C32.3142 6.39981 29.6773 3.76286 29.4196 3.76286C29.3439 3.76286 28.9498 3.49008 28.5558 3.15667C28.1466 2.82326 27.7526 2.55048 27.6617 2.55048C27.5859 2.55048 27.207 2.3383 26.8282 2.09583C26.4493 1.85335 26.0401 1.64118 25.9189 1.64118C25.7976 1.64118 25.3581 1.47448 24.9338 1.29262C23.7972 0.747046 22.6454 0.398476 21.2966 0.186304C20.0085 -0.025854 16.5986 -0.0713247 15.8409 0.125696ZM21.721 7.80921C22.3575 8.02139 22.9334 8.24871 22.9788 8.33964C23.0243 8.41541 23.4183 8.64274 23.8426 8.83974C25.4339 9.59749 27.0555 11.2191 27.8132 12.8103C28.0102 13.2347 28.2376 13.6287 28.3133 13.6742C28.4043 13.7196 28.6467 14.3258 28.8892 15.0078C29.2681 16.1444 29.2984 16.4778 29.2984 18.3116C29.2984 20.5545 29.1165 21.3122 28.0102 23.4642C27.0706 25.2979 25.146 27.3136 23.9184 27.7379C23.6456 27.8288 23.2668 28.0258 23.0849 28.1774C22.8879 28.3138 22.1756 28.6169 21.4936 28.8442C20.3873 29.2079 20.0085 29.2685 18.3414 29.2685C16.6895 29.2685 16.2955 29.2231 15.265 28.8745C14.6133 28.6472 13.8859 28.3441 13.6737 28.1925C13.4464 28.0258 13.0069 27.8137 12.6887 27.7076C11.9006 27.4499 9.20303 24.7524 8.9454 23.9643C8.83931 23.6461 8.62715 23.2066 8.46044 22.9792C8.30889 22.7671 8.0058 22.0548 7.79363 21.4031C7.44507 20.3575 7.38445 19.9786 7.3996 18.2358C7.3996 16.0383 7.59661 15.2654 8.67261 13.1589C9.61221 11.31 11.446 9.40047 12.8402 8.82459C13.1585 8.68819 13.5828 8.46087 13.795 8.32449C14.2648 7.99107 16.0833 7.43034 16.9017 7.33941C18.296 7.20302 20.5389 7.41519 21.721 7.80921ZM109.953 95.9955C110.544 96.2076 111.12 96.4804 111.256 96.6017C111.377 96.7078 111.726 96.8896 112.014 96.9957C113.302 97.4352 115.242 99.4659 116.257 101.436C117.272 103.437 117.485 104.331 117.485 106.528C117.485 108.286 117.439 108.619 117.06 109.665C116.833 110.302 116.56 110.938 116.454 111.059C116.348 111.181 116.136 111.59 115.969 111.969C115.393 113.302 113.347 115.363 112.044 115.924C111.65 116.091 111.211 116.318 111.089 116.424C110.968 116.53 110.286 116.803 109.574 117.03C108.483 117.364 108.013 117.424 106.452 117.424C104.891 117.424 104.436 117.364 103.436 117.046C102.784 116.833 102.072 116.53 101.86 116.379C101.648 116.227 101.208 115.985 100.875 115.848C100.557 115.712 100.041 115.379 99.7231 115.106C99.42 114.848 99.0412 114.515 98.8745 114.378C97.8742 113.545 96.5558 111.347 95.9041 109.468C95.6465 108.726 95.5859 108.18 95.5859 106.437C95.5859 104.513 95.6162 104.209 95.995 103.194C96.2072 102.588 96.5255 101.891 96.6922 101.679C96.8437 101.451 97.0256 101.088 97.071 100.875C97.2074 100.33 98.5562 98.7688 99.7989 97.7231C100.329 97.2685 102.239 96.2834 103.209 95.95C104.376 95.556 105.194 95.465 107.073 95.5408C108.543 95.5863 109.104 95.6772 109.953 95.9955ZM21.524 132.655C23.4638 133.352 25.1763 134.383 26.1765 135.459C26.9646 136.323 27.7375 137.308 27.7375 137.459C27.7375 137.55 27.9193 137.944 28.1466 138.323C28.374 138.702 28.7225 139.49 28.9347 140.081C29.2529 141.005 29.2984 141.4 29.2984 143.188C29.2984 144.961 29.2378 145.385 28.9195 146.295C28.7225 146.87 28.374 147.674 28.1466 148.052C27.9193 148.431 27.7375 148.825 27.7375 148.916C27.7375 149.068 26.9646 150.053 26.1765 150.917C25.1763 151.993 23.5092 152.993 21.4482 153.751C20.5086 154.099 20.16 154.145 18.3414 154.145C16.0985 154.145 15.3408 153.963 13.1888 152.857C11.355 151.917 9.33943 149.992 8.91509 148.765C8.82416 148.492 8.62715 148.113 8.4756 147.931C8.3392 147.734 8.03611 147.022 7.80878 146.34C7.44507 145.249 7.3996 144.855 7.3996 143.188C7.3996 141.521 7.44507 141.127 7.80878 140.036C8.03611 139.354 8.3392 138.626 8.49075 138.444C8.65746 138.247 8.82416 137.899 8.88478 137.671C8.97571 137.308 9.32427 136.823 10.4609 135.535C11.7642 134.034 14.78 132.504 16.9017 132.261C18.402 132.094 20.4328 132.261 21.524 132.655Z" fill="black"/>
</svg>
