<svg width="18" height="24" viewBox="0 0 18 24" fill="none" xmlns="http://www.w3.org/2000/svg">
<path d="M4.17503 0.0154915C4.03753 0.0413094 3.91097 0.151463 3.83284 0.313253C3.79691 0.385542 3.79691 0.390707 3.79222 1.23236L3.78753 2.07745L3.75003 2.08778C3.72816 2.09467 3.36097 2.09811 2.93441 2.09811C2.22191 2.09639 2.14066 2.09983 1.97191 2.13253C1.4766 2.22547 1.03441 2.48021 0.684415 2.87436C0.48129 3.10499 0.378165 3.26334 0.248478 3.54733C0.153166 3.75731 0.078166 4.01205 0.0344161 4.27022L4.11986e-05 4.48193V13.0189C4.11986e-05 22.2771 -0.00464629 21.7074 0.0859785 22.0688C0.164103 22.3804 0.237541 22.5594 0.390665 22.8244C0.557852 23.1119 0.840664 23.4131 1.13285 23.6162C1.37504 23.7831 1.63285 23.8898 1.98441 23.969C2.11879 23.9983 2.40941 24 9.00002 24H15.875L16.0469 23.9621C16.5688 23.8485 16.9828 23.6007 17.3484 23.1842C17.6859 22.7986 17.9047 22.2943 17.9797 21.7281C17.9969 21.6024 18 20.0034 18 13.0275V4.48193L17.9656 4.27022C17.8734 3.71945 17.6672 3.27367 17.3234 2.88296C16.9594 2.4716 16.5453 2.23236 16.0234 2.13081C15.8594 2.09983 15.7766 2.09639 15.0656 2.09811C14.6391 2.09811 14.2719 2.09467 14.25 2.08778L14.2125 2.07745L14.2078 1.23236C14.2031 0.390707 14.2031 0.385542 14.1672 0.313253C14.0594 0.08778 13.8688 -0.0223751 13.6531 0.0154915C13.5016 0.0430298 13.3516 0.184164 13.2875 0.359724C13.2703 0.406197 13.2641 0.600689 13.2578 1.25473L13.25 2.0895L11.3844 2.09466C10.0188 2.09638 9.51408 2.09294 9.49846 2.07917C9.48127 2.06368 9.47658 1.91394 9.47658 1.27367C9.47658 0.659208 9.47189 0.469879 9.45471 0.399311C9.39689 0.158348 9.22502 0.0120487 9.00002 0.0120487C8.77502 0.0120487 8.60315 0.158348 8.54533 0.399311C8.52815 0.469879 8.52346 0.659208 8.52346 1.27367C8.52346 1.91394 8.51877 2.06368 8.50158 2.07917C8.48596 2.09294 7.98127 2.09638 6.61565 2.09466L4.75003 2.0895L4.74222 1.25473C4.73597 0.600689 4.72972 0.406197 4.71253 0.359724C4.64691 0.180723 4.50003 0.0430298 4.33909 0.0137691C4.29066 0.00516319 4.25003 0 4.25003 0C4.25003 0 4.21722 0.00860596 4.17503 0.0154915ZM3.7891 3.98279C3.79691 4.79518 3.79847 4.82961 3.82972 4.90534C3.95316 5.19794 4.28441 5.30637 4.52034 5.13081C4.59378 5.07745 4.68128 4.95697 4.71253 4.86919C4.72816 4.82272 4.73597 4.61962 4.74222 3.97418L4.75003 3.13942L6.60159 3.13425C7.62034 3.13253 8.46877 3.13425 8.48908 3.13942L8.52346 3.14802V3.93115C8.52346 4.43374 8.52971 4.74527 8.54065 4.80379C8.58596 5.04647 8.77346 5.21342 9.00002 5.21342C9.22658 5.21342 9.41408 5.04647 9.45939 4.80379C9.47033 4.74527 9.47658 4.43374 9.47658 3.93115V3.14802L9.51252 3.13942C9.53127 3.13425 10.3797 3.13253 11.3985 3.13425L13.25 3.13942L13.2578 3.97418C13.2672 4.88468 13.2656 4.86575 13.3625 5.00689C13.5828 5.3253 14.0172 5.27022 14.1703 4.90534C14.2016 4.82961 14.2031 4.79518 14.2109 3.98279L14.2188 3.13942H15.0234C15.7469 3.14114 15.8391 3.14286 15.9375 3.17212C16.2406 3.25817 16.4469 3.38382 16.6391 3.60241C16.8375 3.8296 16.9406 4.03614 17.0188 4.36145C17.0453 4.47676 17.0469 4.79174 17.0469 13.0534C17.0469 21.2685 17.0453 21.6299 17.0188 21.7367C16.9578 21.9793 16.9047 22.1067 16.7891 22.296C16.7109 22.4234 16.5578 22.5921 16.4391 22.6833C16.3344 22.7625 16.1266 22.8657 15.9844 22.9105L15.8594 22.9501H9.01565C3.28128 22.9501 2.15629 22.9466 2.07816 22.926C1.45941 22.7711 1.0141 22.2186 0.959414 21.5387C0.950039 21.4165 0.945351 18.3528 0.948476 12.9071L0.953164 4.46472L0.987539 4.33563C1.05941 4.05336 1.13129 3.89673 1.27348 3.70912C1.51879 3.38554 1.84535 3.18933 2.21097 3.14802C2.27504 3.14114 2.65472 3.13597 3.05472 3.13769L3.78128 3.13942L3.7891 3.98279Z" fill="black"/>
</svg>
