<svg width="184" height="184" viewBox="0 0 184 184" fill="none" xmlns="http://www.w3.org/2000/svg">
<path d="M89.838 0.113925C89.7875 0.177049 89.4719 0.290672 89.131 0.36642C86.5934 0.909286 83.8791 3.21962 82.6797 5.87083C81.5056 8.48416 81.493 11.5772 82.6671 14.1653C83.4499 15.9075 84.6871 17.3468 86.3283 18.4577L87.2373 19.0764V22.2326C87.2373 24.6439 87.1994 25.4014 87.0858 25.4393C86.9974 25.4771 85.8991 25.616 84.6492 25.7549C79.2711 26.3609 75.2059 27.2698 70.1938 28.9742C69.3227 29.2772 68.4516 29.5802 68.237 29.6686C68.035 29.7569 67.7446 29.8706 67.6057 29.9337C62.7578 31.9031 59.3996 33.6327 55.6122 36.0819C54.3118 36.9278 51.7869 38.7584 50.739 39.6043C50.234 40.0083 49.6533 40.4754 49.4387 40.6395C49.2241 40.8036 48.8579 41.1192 48.6307 41.3339L48.2141 41.7126L45.929 39.4275L43.6439 37.1424L43.8585 36.1198C44.5655 32.5975 43.505 29.2014 40.9296 26.7396C39.4903 25.3761 37.9375 24.5429 36.0311 24.1136C34.9707 23.8738 32.6225 23.9369 31.4988 24.2273C28.6835 24.9721 26.2848 26.9037 24.9971 29.4792C23.0529 33.3929 23.7851 37.9125 26.8656 41.0687C29.2895 43.5306 32.6225 44.5406 36.0816 43.8462L37.1421 43.6442L39.4146 45.9167L41.6997 48.2017L41.1442 48.8582C40.8412 49.2244 40.4119 49.7293 40.1973 49.9818C39.5787 50.7141 37.6092 53.3653 36.7129 54.6656C33.3168 59.6777 30.1354 66.2299 28.4689 71.7091C28.3553 72.0878 28.128 72.8327 27.9639 73.3503C27.6735 74.2972 27.0928 76.6454 26.7141 78.4002C26.3732 80.0036 26.0197 82.2761 25.7546 84.6495C25.6157 85.8994 25.4768 86.9977 25.4389 87.0735C25.4011 87.1997 24.6436 87.2376 22.2323 87.2376H19.0761L18.4448 86.316C16.488 83.4502 13.458 81.8089 10.0746 81.8089C6.99413 81.8089 4.21668 83.1219 2.23459 85.5332C1.33823 86.6064 0.504992 88.3233 0.31562 89.4091C0.277745 89.6742 0.189372 89.8888 0.126248 89.8888C0.0504992 89.8888 0 90.6589 0 91.7699C0 93.1839 0.0504992 93.7394 0.189372 94.0045C0.29037 94.2065 0.378744 94.4716 0.378744 94.5978C0.378744 94.7241 0.542866 95.2417 0.757487 95.7341C1.96947 98.6378 4.64592 100.923 7.72637 101.68C8.87523 101.971 11.1856 101.971 12.2965 101.693C14.872 101.049 17.1066 99.4836 18.4574 97.4005C18.7226 96.9966 19.0129 96.6052 19.1013 96.5547C19.3033 96.4284 25.338 96.4284 25.4263 96.5547C25.4516 96.6052 25.6031 97.7288 25.7546 99.0418C26.0323 101.504 26.3606 103.612 26.7141 105.291C27.0928 107.059 27.6735 109.394 27.9639 110.341C28.128 110.859 28.3553 111.603 28.4689 111.982C30.1354 117.449 33.3294 124.051 36.7129 129.026C37.6471 130.389 39.4398 132.813 40.1216 133.621C40.3867 133.924 40.8412 134.467 41.1442 134.833L41.6871 135.477L39.4146 137.762L37.1548 140.047L36.1195 139.832C32.5467 139.113 29.2011 140.173 26.7014 142.799C20.9571 148.859 24.631 158.795 32.9507 159.704C38.796 160.348 44.0605 155.626 44.0605 149.756C44.0605 149.15 43.9721 148.177 43.8459 147.609L43.6439 146.549L45.9164 144.276L48.2014 141.991L48.8579 142.547C49.2241 142.85 49.729 143.279 49.9815 143.481C51.3576 144.643 54.4255 146.864 56.1298 147.925C59.6521 150.122 63.1366 151.952 66.217 153.202C66.8483 153.455 67.4669 153.707 67.6057 153.758C68.6031 154.174 70.6483 154.906 71.7088 155.222C72.0875 155.336 72.8324 155.563 73.35 155.727C74.2969 156.017 76.6451 156.598 78.3999 156.977C80.0033 157.318 82.2758 157.671 84.6492 157.936C85.8991 158.075 86.9974 158.214 87.0858 158.252C87.1994 158.29 87.2373 159.047 87.2373 161.459V164.615L86.3283 165.246C83.4625 167.19 81.8086 170.233 81.8086 173.566C81.8086 176.179 82.705 178.527 84.4346 180.421C85.6971 181.797 87.3888 182.858 89.0048 183.262C89.4593 183.375 89.8759 183.514 89.939 183.577C90.1031 183.729 93.8022 183.729 93.8022 183.565C93.8022 183.502 94.0168 183.413 94.2819 183.375C95.0647 183.249 96.3903 182.694 97.2614 182.126C99.4202 180.749 101.074 178.426 101.68 175.952C101.996 174.677 101.97 172.417 101.642 171.129C100.973 168.604 99.0415 166.004 97.072 165.006C96.8195 164.867 96.5796 164.678 96.5291 164.564C96.4913 164.451 96.4534 162.999 96.4534 161.332C96.4534 159.022 96.4913 158.29 96.6175 158.252C96.6933 158.214 97.8042 158.075 99.0793 157.936C103.081 157.482 107.361 156.649 110.341 155.727C110.858 155.563 111.603 155.336 111.982 155.222C119.645 152.886 127.965 148.316 134.378 142.938L135.489 142.004L137.774 144.276L140.047 146.549L139.832 147.571C139.125 151.106 140.186 154.515 142.774 156.952C144.781 158.858 146.902 159.704 149.616 159.717C152.432 159.729 154.881 158.744 156.813 156.813C158.744 154.881 159.704 152.508 159.704 149.68C159.704 147.95 159.502 146.978 158.883 145.615C158.075 143.847 156.611 142.13 155.058 141.158C152.911 139.807 150.159 139.315 147.571 139.832L146.549 140.047L144.276 137.775L142.004 135.49L142.938 134.379C144.693 132.27 146.801 129.392 147.899 127.624C148.468 126.677 149.566 124.872 149.679 124.657C149.755 124.519 150.033 124.014 150.298 123.534C151.308 121.691 152.482 119.241 153.202 117.474C153.454 116.843 153.707 116.224 153.757 116.085C153.82 115.946 153.934 115.656 154.022 115.454C154.111 115.239 154.414 114.368 154.717 113.497C156.421 108.485 157.33 104.42 157.936 99.0418C158.088 97.7288 158.239 96.6052 158.264 96.5547C158.302 96.5042 159.741 96.4537 161.471 96.4537H164.615L165.246 97.3627C169.867 104.193 180.017 103.056 183.022 95.3932C183.186 94.9766 183.312 94.5347 183.312 94.3958C183.312 94.2696 183.4 93.9666 183.514 93.7394C183.792 93.1334 183.703 90.5327 183.337 89.2323C182.1 84.7758 178.186 81.8089 173.553 81.8089C170.195 81.8216 167.177 83.4628 165.233 86.316L164.615 87.2376H161.458C159.047 87.2376 158.29 87.1997 158.252 87.0735C158.214 86.9977 158.075 85.8994 157.936 84.6495C157.671 82.2761 157.317 80.0036 156.977 78.4002C156.598 76.6454 156.017 74.2972 155.727 73.3503C155.563 72.8327 155.335 72.0878 155.222 71.7091C152.899 64.0837 148.367 55.8145 143.014 49.4011L142.004 48.1891L144.276 45.9167L146.549 43.6442L147.609 43.8462C151.131 44.5532 154.578 43.4675 156.989 40.892C158.29 39.5033 159.047 38.1145 159.527 36.2208C159.678 35.6148 159.716 35.0215 159.678 33.658C159.628 32.0925 159.577 31.7516 159.236 30.7795C158.113 27.535 155.5 25.0984 152.192 24.2399C150.891 23.9117 148.606 23.8738 147.369 24.1894C146.296 24.4545 144.933 25.0605 143.973 25.7296C143.077 26.3356 141.726 27.7243 141.158 28.6333C139.807 30.7795 139.315 33.5317 139.832 36.1198L140.047 37.1424L137.774 39.4149L135.502 41.6874L134.29 40.6774C131.323 38.1903 127.851 35.8168 124.064 33.658C120.996 31.9031 115.428 29.5171 111.982 28.4692C111.603 28.3556 110.858 28.1283 110.341 27.9642C107.361 27.0426 103.081 26.2094 99.0793 25.7549C97.8042 25.616 96.6933 25.4771 96.6175 25.4393C96.4913 25.4014 96.4534 24.6565 96.4534 22.3083C96.4534 20.0358 96.4913 19.19 96.6175 19.0385C96.6933 18.9375 97.1099 18.6219 97.5265 18.3441C101.529 15.6677 103.018 10.3021 100.998 5.8582C100.001 3.64887 98.1072 1.79302 95.8221 0.795663C95.3045 0.568417 94.7617 0.379045 94.6228 0.379045C94.4839 0.379045 94.2062 0.290672 94.0042 0.189673C93.7391 0.0508007 93.1962 0.000301531 91.7696 0.000301531C90.747 0.000301531 89.8759 0.0508007 89.838 0.113925ZM96.5039 34.6553C98.6501 34.8573 100.746 35.1225 101.945 35.3497C110.177 36.9657 115.921 39.2255 123.13 43.7199C124.645 44.6668 128.028 47.2675 129.846 48.8835C133.103 51.7998 136.398 55.4231 138.469 58.39C138.759 58.8066 139.176 59.3999 139.403 59.7156C141.044 61.988 143.91 67.4041 145.122 70.5097C145.438 71.343 145.766 72.151 145.829 72.3151C145.892 72.4792 146.17 73.2998 146.435 74.1457C148.253 79.8395 149.061 84.6369 149.187 90.5705C149.313 96.2896 148.644 101.642 147.104 107.311C146.612 109.078 145.273 112.879 144.667 114.229C144.465 114.671 144.301 115.05 144.301 115.088C144.301 115.227 142.458 118.901 141.877 119.898C136.865 128.66 130.225 135.54 121.64 140.855C119.797 141.991 116.956 143.481 115.201 144.226C114.57 144.491 114.014 144.756 113.939 144.807C113.812 144.895 110.644 146.044 109.116 146.561C106.629 147.395 102.614 148.291 99.4202 148.72C84.6366 150.715 69.1965 146.688 57.5059 137.787C55.4607 136.222 55.0315 135.868 53.4029 134.391C49.83 131.134 47.8732 128.912 44.5908 124.405C42.7475 121.88 39.8691 116.514 38.5814 113.232C36.3215 107.437 35.2232 102.791 34.655 96.5799C34.3899 93.7772 34.453 88.4117 34.7687 85.7226C35.7534 77.4155 38.3162 69.6008 42.1542 63.2C42.6465 62.3668 43.0505 61.6724 43.0505 61.6471C43.0505 61.5714 45.424 58.0996 45.8659 57.5315C51.6228 50.0323 58.5664 44.2754 66.621 40.3239C67.8204 39.7431 68.8303 39.2634 68.8682 39.2634C68.9061 39.2634 69.1712 39.1498 69.4742 39.0109C70.6988 38.4428 74.4358 37.1172 76.0644 36.6753C78.3873 36.0567 79.3847 35.8168 81.8086 35.3371C85.7854 34.5543 92.0978 34.264 96.5039 34.6553Z" fill="black"/>
<path d="M92.6374 51.9498C91.3244 52.3033 90.2513 53.2249 89.6453 54.5252C89.355 55.1565 89.3171 55.3837 89.3297 56.5578C89.3297 57.8708 89.4307 58.5525 89.8978 60.8502C90.7184 64.8018 92.4228 68.8165 94.5311 71.7581C95.5411 73.1594 97.4979 75.1794 98.6721 76.0252C100.49 77.3256 102.535 78.2472 104.593 78.7017C105.085 78.8027 106.272 78.9542 107.244 79.0299C110.4 79.2572 111.499 79.5602 113.09 80.5828C115.476 82.123 117.243 84.8752 118.152 88.4985C118.304 89.0919 118.506 89.8999 118.619 90.3039C119.339 93.1571 122.583 94.5963 125.146 93.2076C126.964 92.2102 127.785 90.4554 127.507 88.1577C126.56 80.5197 121.864 74.3209 114.794 71.3793C112.976 70.6345 111.461 70.2683 109.264 70.0537C107.131 69.8517 105.957 69.5866 105.01 69.0942C102.762 67.9201 100.856 65.2563 99.682 61.6709C99.1392 60.0044 98.9372 59.0828 98.5584 56.7472C98.2554 54.8408 97.9903 54.1465 97.2581 53.3006C96.185 52.0381 94.3039 51.4827 92.6374 51.9498Z" fill="black"/>
<path d="M75.5583 86.8612C74.1317 87.0632 72.7935 88.1237 72.0739 89.626C70.4958 92.8832 67.8825 95.0042 64.1077 96.0899C61.8731 96.7338 60.7116 96.8727 57.2524 96.8979L54.0962 96.9105L53.2756 97.3019C52.3035 97.7438 51.5081 98.5644 51.0284 99.587C50.738 100.206 50.6875 100.471 50.6875 101.443C50.6875 102.478 50.7254 102.667 51.1041 103.425C51.7859 104.826 53.0105 105.71 54.5633 105.925C55.0052 105.988 56.5202 106.076 57.9468 106.127C60.7747 106.215 62.8325 106.038 64.8273 105.533C65.3828 105.382 66.0392 105.218 66.2917 105.155C67.5795 104.852 70.5589 103.463 72.2128 102.415C76.0886 99.9405 80.28 94.9032 80.785 92.0879C81.3405 89.0705 78.6767 86.432 75.5583 86.8612Z" fill="black"/>
<path d="M98.2327 100.321C97.008 100.75 96.0359 101.647 95.4804 102.833C95.1396 103.553 95.127 103.667 95.127 105.485C95.1396 110.762 97.1722 116.178 100.669 120.306C102.942 122.995 106.224 124.876 110.087 125.697C111.981 126.101 116.576 126.126 118.23 125.735C120.452 125.205 122.03 123.021 121.778 120.836C121.513 118.627 119.518 116.759 117.41 116.759C117.031 116.759 115.907 116.797 114.935 116.847C113.458 116.923 112.978 116.898 112.17 116.721C110.996 116.468 109.633 115.9 108.736 115.307C107.499 114.486 106.224 112.63 105.315 110.345C104.659 108.654 104.431 107.606 104.28 105.447C104.217 104.5 104.078 103.465 103.964 103.149C103.535 101.925 102.399 100.801 101.149 100.346C100.404 100.081 98.9649 100.069 98.2327 100.321Z" fill="black"/>
</svg>
